<?xml version="1.0" encoding="UTF-8" standalone="no"?>
<!-- Generator: Adobe Illustrator 19.0.0, SVG Export Plug-In . SVG Version: 6.00 Build 0)  -->

<svg
   xmlns:dc="http://purl.org/dc/elements/1.1/"
   xmlns:cc="http://creativecommons.org/ns#"
   xmlns:rdf="http://www.w3.org/1999/02/22-rdf-syntax-ns#"
   xmlns:svg="http://www.w3.org/2000/svg"
   xmlns="http://www.w3.org/2000/svg"
   xmlns:sodipodi="http://sodipodi.sourceforge.net/DTD/sodipodi-0.dtd"
   xmlns:inkscape="http://www.inkscape.org/namespaces/inkscape"
   version="1.1"
   id="Layer_1"
   x="0px"
   y="0px"
   viewBox="0 0 492.47458 514.99567"
   xml:space="preserve"
   sodipodi:docname="character1.svg"
   inkscape:version="0.92.5 (2060ec1f9f, 2020-04-08)"
   width="492.47458"
   height="514.99567"><metadata
   id="metadata55"><rdf:RDF><cc:Work
       rdf:about=""><dc:format>image/svg+xml</dc:format><dc:type
         rdf:resource="http://purl.org/dc/dcmitype/StillImage" /><dc:title></dc:title></cc:Work></rdf:RDF></metadata><defs
   id="defs53" /><sodipodi:namedview
   pagecolor="#ffffff"
   bordercolor="#666666"
   borderopacity="1"
   objecttolerance="10"
   gridtolerance="10"
   guidetolerance="10"
   inkscape:pageopacity="0"
   inkscape:pageshadow="2"
   inkscape:window-width="1848"
   inkscape:window-height="1017"
   id="namedview51"
   showgrid="false"
   inkscape:zoom="0.23046875"
   inkscape:cx="947.56761"
   inkscape:cy="194.18425"
   inkscape:window-x="72"
   inkscape:window-y="27"
   inkscape:window-maximized="1"
   inkscape:current-layer="Layer_1" />







<g
   id="g20"
   transform="translate(-4.3389893,14.927828)">
</g>
<g
   id="g22"
   transform="translate(-4.3389893,14.927828)">
</g>
<g
   id="g24"
   transform="translate(-4.3389893,14.927828)">
</g>
<g
   id="g26"
   transform="translate(-4.3389893,14.927828)">
</g>
<g
   id="g28"
   transform="translate(-4.3389893,14.927828)">
</g>
<g
   id="g30"
   transform="translate(-4.3389893,14.927828)">
</g>
<g
   id="g32"
   transform="translate(-4.3389893,14.927828)">
</g>
<g
   id="g34"
   transform="translate(-4.3389893,14.927828)">
</g>
<g
   id="g36"
   transform="translate(-4.3389893,14.927828)">
</g>
<g
   id="g38"
   transform="translate(-4.3389893,14.927828)">
</g>
<g
   id="g40"
   transform="translate(-4.3389893,14.927828)">
</g>
<g
   id="g42"
   transform="translate(-4.3389893,14.927828)">
</g>
<g
   id="g44"
   transform="translate(-4.3389893,14.927828)">
</g>
<g
   id="g46"
   transform="translate(-4.3389893,14.927828)">
</g>
<g
   id="g48"
   transform="translate(-4.3389893,14.927828)">
</g>
<circle
   style="fill:#9fa8da;fill-opacity:1;stroke:none;stroke-opacity:1"
   id="path862"
   cx="246.23729"
   cy="268.75836"
   r="246.23729" /><g
   id="g1077"
   transform="matrix(0.0363897,0,0,-0.0363897,87.827715,465.72018)"
   style="fill:#000000;stroke:none"><path
     id="path1075"
     d="m 7294,12752 c -32,-44 -42,-50 -81,-55 -59,-6 -185,-69 -219,-109 l -27,-33 28,-20 c 16,-11 39,-29 52,-40 l 23,-20 -351,-430 c -193,-236 -355,-431 -359,-433 -5,-2 -22,4 -39,12 -16,9 -34,16 -39,16 -5,0 -40,-39 -78,-87 -38,-49 -98,-122 -135,-163 -36,-41 -93,-113 -128,-159 l -63,-84 13,-44 c 11,-42 11,-45 -16,-72 -36,-39 -84,-49 -196,-44 -74,4 -98,2 -114,-10 -19,-15 -19,-16 -1,-36 24,-27 96,-50 178,-58 59,-5 69,-9 74,-27 3,-12 0,-35 -7,-51 -6,-17 -13,-77 -14,-135 -1,-110 -7,-128 -56,-191 -16,-20 -40,-60 -55,-88 -23,-47 -26,-62 -22,-140 3,-74 8,-96 37,-155 32,-66 113,-161 156,-184 19,-10 18,-13 -21,-58 -25,-30 -103,-91 -206,-160 -91,-61 -200,-139 -242,-173 l -76,-62 -70,32 -70,32 -47,-39 c -86,-69 -307,-296 -393,-404 -85,-106 -215,-297 -231,-337 -7,-19 -13,-21 -44,-16 -30,5 -35,3 -35,-14 0,-17 -9,-21 -57,-27 -180,-21 -408,-85 -651,-182 l -163,-66 -48,21 c -26,11 -134,63 -238,114 -157,78 -256,117 -409,162 -11,3 -29,56 -63,182 -9,34 -17,44 -39,48 -72,15 -94,36 -124,117 -15,43 -34,105 -42,138 l -14,61 57,-7 c 95,-13 320,-7 400,10 96,21 183,68 206,110 17,32 18,90 1,127 -5,13 5,20 52,37 86,32 160,87 141,106 -3,3 -37,-1 -75,-9 -38,-8 -88,-15 -111,-15 h -43 l -2,45 c -1,25 -2,53 -2,63 -1,14 6,16 34,14 19,-2 50,-10 68,-18 63,-26 30,9 -40,43 -59,29 -68,36 -72,65 -3,18 -10,66 -17,107 -8,56 -17,80 -35,96 -18,16 -24,33 -24,62 0,39 2,42 54,67 30,15 61,38 70,51 l 16,25 h -46 c -33,0 -45,4 -41,13 67,150 89,233 85,317 l -3,64 61,32 60,31 -33,37 c -18,20 -37,36 -42,36 -7,0 -41,70 -41,84 0,1 89,6 198,10 185,6 265,11 522,37 199,19 285,30 310,40 14,5 40,30 58,54 39,51 52,118 41,203 -20,142 -85,242 -268,410 -138,127 -185,159 -346,239 -146,73 -237,107 -345,127 -93,18 -275,21 -316,6 -15,-6 -29,-8 -32,-5 -12,12 44,386 74,492 9,29 13,57 10,61 -11,18 -106,21 -207,7 -238,-31 -507,-109 -794,-230 -134,-57 -160,-64 -240,-70 -180,-13 -438,-69 -583,-126 -262,-104 -695,-456 -747,-607 -29,-86 -26,-89 130,-152 191,-79 642,-219 788,-245 46,-9 47,-17 2,-33 -53,-20 -151,-96 -190,-149 -67,-91 -70,-174 -9,-264 31,-46 34,-57 28,-95 -8,-54 17,-143 57,-200 l 29,-43 -40,-11 c -106,-29 -200,46 -200,159 0,50 -14,59 -37,24 -15,-22 -18,-49 -18,-153 0,-117 2,-129 29,-188 37,-80 120,-158 218,-206 107,-52 184,-69 297,-64 82,3 106,8 164,35 41,20 67,27 67,20 0,-7 7,-79 15,-162 22,-224 24,-217 -51,-163 -71,50 -65,22 9,-45 l 67,-62 7,-320 c 5,-276 3,-339 -12,-455 -23,-170 -23,-541 0,-666 31,-171 86,-291 202,-446 85,-114 296,-331 386,-398 38,-28 74,-68 104,-114 88,-135 125,-241 184,-526 43,-203 46,-383 10,-528 l -23,-92 -196,-168 C 2353,5601 2308,5564 1955,5285 1466,4899 1140,4638 1024,4539 963,4487 783,4335 624,4200 343,3962 84,3717 27,3633 l -28,-41 22,-44 c 77,-150 282,-428 316,-428 5,0 67,54 138,120 78,73 133,116 139,111 6,-4 37,-29 69,-55 184,-148 576,-371 826,-471 89,-35 271,-86 357,-99 l 41,-6 12,98 c 34,274 123,672 204,923 114,350 291,727 532,1134 l 136,229 192,196 c 387,393 678,764 817,1040 22,44 42,80 44,80 2,0 18,-49 35,-109 l 32,-109 -25,-124 c -14,-69 -46,-196 -71,-283 -25,-87 -42,-162 -38,-166 5,-4 37,-9 73,-11 58,-3 65,-5 63,-23 -3,-28 -92,-269 -106,-289 -11,-14 -23,-14 -134,8 -90,17 -125,20 -132,12 -16,-19 -48,-113 -115,-336 -35,-118 -96,-312 -134,-430 -107,-327 -146,-486 -172,-687 -10,-78 -9,-95 4,-121 19,-36 72,-84 114,-101 l 32,-14 -167,-171 C 2817,3174 2685,2990 2525,2665 2178,1955 2149,1591 2394,999 c 6,-13 -3,-19 -41,-28 C 2221,937 1870,777 1734,689 1488,528 1363,378 1327,198 1305,92 1292,6 1296,1 c 16,-17 354,90 553,174 258,109 831,413 831,441 0,3 -9,17 -20,31 -51,65 9,193 89,193 36,0 99,-45 107,-75 8,-31 7,-31 61,0 38,23 42,28 32,46 -12,23 -7,69 23,229 59,317 185,737 312,1045 88,212 288,613 373,748 223,353 540,742 973,1195 l 212,222 h 64 c 88,0 166,-37 280,-133 188,-158 274,-264 491,-612 187,-298 243,-413 352,-714 65,-179 112,-349 151,-545 64,-323 79,-528 61,-821 -7,-99 -14,-216 -16,-260 -10,-164 -37,-352 -57,-393 -17,-32 -4,-39 89,-47 75,-6 83,-5 89,11 19,63 36,86 77,104 51,24 115,26 144,5 16,-11 23,-28 25,-63 l 3,-47 803,-3 c 722,-2 802,-1 802,14 0,27 -100,122 -204,193 -93,63 -256,151 -331,179 -186,68 -550,126 -800,125 h -160 l 73,111 c 124,187 209,386 250,585 13,65 17,131 16,271 -2,353 -60,658 -209,1106 -151,455 -311,803 -521,1141 l -64,101 -4,89 c -10,216 -109,479 -249,665 -31,41 -96,113 -146,161 l -90,87 h -84 -83 l -28,58 -28,59 26,51 c 30,58 34,127 12,171 -20,38 -77,86 -121,103 -35,12 -43,24 -115,168 -43,85 -103,202 -134,259 -31,57 -55,105 -54,107 2,1 102,-39 223,-91 l 220,-94 70,74 c 53,56 74,72 85,66 25,-15 323,-118 360,-125 65,-12 66,-18 26,-84 -37,-60 -48,-107 -33,-150 8,-20 3,-25 -45,-47 -29,-14 -60,-25 -68,-25 -31,0 -60,-30 -60,-61 0,-72 66,-138 205,-204 52,-25 114,-53 136,-60 86,-31 142,-12 152,50 3,19 15,49 27,65 19,27 27,30 73,30 58,0 111,26 121,58 6,17 12,19 44,11 50,-11 112,5 137,34 14,17 34,26 69,31 26,3 60,15 74,25 26,19 27,19 67,-2 93,-50 245,-17 334,72 l 41,41 74,-40 c 40,-22 82,-40 94,-40 11,0 32,14 46,32 l 25,32 43,-21 c 24,-11 216,-113 427,-227 212,-113 390,-206 397,-206 7,0 25,24 42,53 16,28 39,69 51,89 l 22,37 -37,19 c -37,19 -38,21 -35,67 3,58 -11,76 -101,121 -85,43 -100,43 -124,-1 -12,-23 -24,-33 -33,-30 -45,17 -840,447 -971,524 -165,98 -309,171 -338,171 -29,0 -144,113 -187,184 -22,36 -45,68 -51,70 -24,9 -54,-24 -54,-58 0,-26 7,-39 34,-59 31,-24 66,-80 66,-106 0,-6 -19,3 -42,19 -42,30 -131,62 -174,63 -13,0 -45,-16 -71,-36 l -47,-35 -67,33 c -36,19 -110,52 -165,75 -54,23 -103,45 -108,50 -5,5 6,26 25,49 19,24 29,45 23,49 -5,5 -40,22 -79,39 -38,17 -160,71 -270,119 -451,198 -1179,583 -1161,612 3,5 43,31 89,60 125,76 239,164 668,513 212,173 482,390 599,483 182,143 211,170 198,180 -9,7 -86,46 -172,87 -85,40 -154,77 -153,81 1,4 47,64 102,133 55,69 125,162 155,207 53,78 57,82 115,99 58,18 61,18 84,1 22,-16 50,-64 85,-142 9,-19 20,-26 51,-28 37,-3 42,0 140,100 100,103 235,272 235,295 0,24 -61,82 -106,100 -37,15 -44,22 -39,38 18,58 17,103 -4,149 -19,44 -19,50 -6,83 8,20 15,63 15,97 -1,79 -27,139 -75,167 -28,17 -35,27 -35,52 -1,18 -7,43 -14,57 -13,23 -11,28 64,106 94,100 154,188 176,258 15,48 15,57 0,108 -11,37 -30,72 -60,105 l -44,48 20,39 c 24,47 20,60 -31,85 -22,12 -42,25 -46,30 -3,6 71,111 165,235 103,136 168,230 164,239 -3,8 -16,19 -30,26 l -25,11 21,30 c 12,17 33,38 45,46 13,9 37,39 54,67 16,29 126,174 245,322 119,149 216,275 215,280 0,10 -169,147 -188,153 -5,2 -26,-19 -47,-46 z m -653,-1653 c 16,-11 36,-33 44,-49 20,-38 19,-123 -1,-163 -38,-72 -162,-196 -184,-182 -5,3 14,40 44,83 65,93 116,193 116,226 0,37 -30,65 -90,86 l -55,19 h 48 c 34,1 58,-5 78,-20 z m 512,-4863 c 60,-27 72,-39 72,-74 1,-24 -21,-40 -82,-62 l -28,-10 29,26 c 26,23 28,29 20,62 -6,24 -20,44 -43,59 -43,29 -37,29 32,-1 z"
     inkscape:connector-curvature="0" /></g></svg>