<?xml version="1.0" encoding="UTF-8" standalone="no"?>
<!-- Generator: Adobe Illustrator 19.0.0, SVG Export Plug-In . SVG Version: 6.00 Build 0)  -->

<svg
   xmlns:dc="http://purl.org/dc/elements/1.1/"
   xmlns:cc="http://creativecommons.org/ns#"
   xmlns:rdf="http://www.w3.org/1999/02/22-rdf-syntax-ns#"
   xmlns:svg="http://www.w3.org/2000/svg"
   xmlns="http://www.w3.org/2000/svg"
   xmlns:sodipodi="http://sodipodi.sourceforge.net/DTD/sodipodi-0.dtd"
   xmlns:inkscape="http://www.inkscape.org/namespaces/inkscape"
   version="1.1"
   id="Layer_1"
   x="0px"
   y="0px"
   viewBox="0 0 492.47458 492.47458"
   xml:space="preserve"
   sodipodi:docname="character2.svg"
   inkscape:version="0.92.5 (2060ec1f9f, 2020-04-08)"
   width="492.47458"
   height="492.47458"><metadata
   id="metadata55"><rdf:RDF><cc:Work
       rdf:about=""><dc:format>image/svg+xml</dc:format><dc:type
         rdf:resource="http://purl.org/dc/dcmitype/StillImage" /><dc:title></dc:title></cc:Work></rdf:RDF></metadata><defs
   id="defs53" /><sodipodi:namedview
   pagecolor="#ffffff"
   bordercolor="#666666"
   borderopacity="1"
   objecttolerance="10"
   gridtolerance="10"
   guidetolerance="10"
   inkscape:pageopacity="0"
   inkscape:pageshadow="2"
   inkscape:window-width="1848"
   inkscape:window-height="1017"
   id="namedview51"
   showgrid="false"
   inkscape:zoom="0.23046875"
   inkscape:cx="947.56761"
   inkscape:cy="194.18423"
   inkscape:window-x="72"
   inkscape:window-y="27"
   inkscape:window-maximized="1"
   inkscape:current-layer="Layer_1" />







<g
   id="g20"
   transform="translate(-4.3389893,-7.5932444)">
</g>
<g
   id="g22"
   transform="translate(-4.3389893,-7.5932444)">
</g>
<g
   id="g24"
   transform="translate(-4.3389893,-7.5932444)">
</g>
<g
   id="g26"
   transform="translate(-4.3389893,-7.5932444)">
</g>
<g
   id="g28"
   transform="translate(-4.3389893,-7.5932444)">
</g>
<g
   id="g30"
   transform="translate(-4.3389893,-7.5932444)">
</g>
<g
   id="g32"
   transform="translate(-4.3389893,-7.5932444)">
</g>
<g
   id="g34"
   transform="translate(-4.3389893,-7.5932444)">
</g>
<g
   id="g36"
   transform="translate(-4.3389893,-7.5932444)">
</g>
<g
   id="g38"
   transform="translate(-4.3389893,-7.5932444)">
</g>
<g
   id="g40"
   transform="translate(-4.3389893,-7.5932444)">
</g>
<g
   id="g42"
   transform="translate(-4.3389893,-7.5932444)">
</g>
<g
   id="g44"
   transform="translate(-4.3389893,-7.5932444)">
</g>
<g
   id="g46"
   transform="translate(-4.3389893,-7.5932444)">
</g>
<g
   id="g48"
   transform="translate(-4.3389893,-7.5932444)">
</g>
<circle
   style="fill:#9fa8da;fill-opacity:1;stroke:none;stroke-opacity:1"
   id="path862"
   cx="246.23729"
   cy="246.23729"
   r="246.23729" /><g
   id="g1291"
   transform="matrix(0.02617869,0,0,-0.02617869,158.24806,404.20045)"
   style="fill:#000000;stroke:none"><path
     id="path1149"
     d="m 1865,12793 c -20,-5 -35,-21 -35,-37 0,-6 6,-1 14,10 12,16 17,17 28,6 11,-11 10,-12 -6,-6 -16,6 -17,4 -11,-17 4,-13 16,-41 27,-62 10,-21 16,-43 12,-49 -5,-7 -3,-8 6,-3 10,6 12,4 7,-9 -5,-11 -3,-15 5,-10 8,5 9,2 5,-10 -5,-11 -3,-15 5,-10 8,5 9,2 5,-10 -5,-11 -3,-15 5,-10 8,5 9,2 5,-10 -5,-11 -3,-15 5,-10 8,5 9,2 5,-10 -5,-11 -3,-15 4,-10 7,4 10,1 7,-7 -5,-13 27,-89 37,-89 3,0 -4,18 -15,40 -11,22 -18,40 -15,40 11,0 45,-81 39,-92 -5,-7 -3,-8 6,-3 10,6 12,4 7,-9 -5,-11 -3,-15 5,-10 8,5 9,2 5,-10 -5,-11 -3,-15 5,-10 8,5 9,1 4,-12 -4,-10 -4,-15 0,-11 10,10 115,-184 109,-201 -3,-8 0,-10 7,-6 8,5 9,2 5,-10 -4,-9 -3,-15 1,-12 12,7 74,-112 66,-125 -4,-7 -3,-9 3,-6 12,8 66,-101 57,-115 -4,-7 -2,-8 4,-4 14,8 86,-130 76,-146 -5,-7 -2,-8 6,-3 10,6 12,4 7,-9 -5,-11 -3,-15 5,-10 8,5 9,2 5,-10 -4,-10 -3,-15 3,-11 12,8 43,-52 34,-67 -4,-6 -3,-8 3,-5 5,3 21,-20 35,-51 46,-102 49,-107 44,-91 -6,24 4,34 56,54 59,22 160,17 186,-9 16,-16 15,-16 -20,-1 -70,29 -189,11 -205,-31 -4,-11 4,-37 19,-66 14,-26 23,-48 18,-48 -4,0 -15,18 -25,40 -10,22 -20,38 -22,36 -3,-2 5,-22 15,-43 11,-21 25,-65 31,-98 12,-62 15,-501 5,-553 -6,-28 -10,-31 -73,-42 -341,-63 -550,-330 -640,-820 -44,-236 -58,-507 -32,-625 29,-131 96,-231 186,-278 51,-26 130,-47 178,-47 83,0 26,-19 -175,-59 -117,-23 -223,-41 -234,-41 -40,0 -179,-51 -304,-112 -114,-55 -133,-68 -210,-147 -87,-88 -133,-159 -171,-268 -18,-50 -22,-95 -29,-338 -5,-154 -14,-386 -21,-515 -8,-161 -9,-317 -3,-495 13,-375 9,-557 -16,-845 -27,-305 -24,-421 19,-700 17,-110 32,-260 36,-345 3,-82 10,-211 16,-285 9,-117 8,-139 -5,-165 -20,-38 -21,-140 -1,-223 16,-65 44,-129 101,-223 19,-31 34,-62 34,-68 0,-12 -49,-11 -192,5 l -48,5 v -65 -65 l 28,4 c 15,2 71,7 125,10 l 97,5 -1,-152 c 0,-84 -4,-206 -7,-271 l -7,-117 h 59 59 l -7,271 -8,270 104,-6 c 56,-3 120,-8 141,-10 l 37,-5 v 65 66 l -42,-5 c -24,-3 -87,-8 -140,-11 l -97,-6 59,94 c 32,52 70,120 83,153 23,56 25,59 56,56 l 33,-2 -4,147 -3,148 -60,135 -59,135 -4,135 c -3,104 2,183 22,340 34,265 46,470 46,812 0,192 6,347 20,500 21,250 36,532 46,902 8,287 -3,280 109,76 227,-416 374,-779 389,-962 4,-42 3,-55 -3,-38 l -9,25 -1,-26 c -1,-32 -45,-290 -65,-384 -18,-84 -32,-125 -81,-229 -20,-43 -48,-122 -62,-175 -22,-85 -24,-109 -18,-206 14,-241 13,-280 -10,-450 -94,-668 -124,-1074 -145,-1965 -11,-457 -13,-479 -80,-809 -52,-264 -70,-380 -77,-521 -8,-174 18,-491 72,-875 52,-361 59,-472 44,-660 -20,-246 -18,-362 6,-402 25,-43 70,-63 143,-63 95,0 164,16 189,45 28,31 50,32 269,5 135,-17 233,-21 538,-23 415,-2 398,-5 417,66 9,36 8,43 -7,54 -10,7 -40,13 -68,13 -87,0 -624,237 -792,350 -110,74 -212,158 -219,180 -7,21 10,314 25,440 6,47 37,274 70,505 32,231 70,521 85,645 14,124 33,253 41,288 17,75 79,245 105,288 11,17 30,81 44,142 13,61 34,137 47,169 l 23,58 h 130 129 l 32,-100 c 49,-151 143,-500 154,-569 5,-34 14,-142 20,-241 22,-351 57,-466 287,-950 122,-256 211,-465 278,-655 l 48,-135 7,-235 c 7,-247 12,-271 59,-314 15,-14 41,-20 94,-24 98,-6 177,11 210,46 30,32 18,32 306,-3 97,-11 238,-17 504,-18 l 369,-2 24,28 c 28,33 33,91 8,101 -9,3 -38,6 -64,6 -50,0 -59,3 -500,187 -184,77 -309,142 -433,225 -121,81 -172,134 -190,196 -15,48 -54,235 -262,1236 l -106,509 -9,216 c -7,174 -14,234 -34,311 -13,52 -27,142 -30,200 -4,58 -20,242 -36,410 -85,861 -134,1349 -176,1770 -32,320 -47,509 -46,605 0,277 9,472 26,570 26,156 75,409 102,528 23,102 121,413 142,453 5,11 17,80 27,154 9,74 21,139 26,145 5,5 9,0 10,-15 3,-78 26,-215 36,-213 13,3 496,33 524,33 34,0 20,-18 -18,-24 -21,-3 -144,-13 -273,-22 -129,-9 -237,-18 -238,-19 -6,-5 46,-280 84,-445 135,-585 358,-1157 619,-1590 92,-152 219,-345 232,-353 4,-3 67,40 138,94 123,93 155,113 140,88 -8,-12 -243,-187 -259,-192 -15,-5 113,-156 251,-298 l 113,-116 V 2826 848 l -30,-68 c -16,-38 -30,-86 -30,-107 0,-37 36,-223 46,-232 14,-14 19,26 16,143 -4,139 4,165 42,150 19,-7 19,-6 16,-166 -1,-85 2,-128 9,-128 5,0 14,17 20,38 39,160 39,231 -1,309 l -25,48 5,1972 5,1973 23,15 c 13,9 24,24 24,35 0,12 10,24 24,30 13,5 26,20 30,36 4,16 16,34 27,42 10,7 19,19 19,26 0,8 16,26 35,40 28,22 39,25 54,16 33,-17 66,-11 92,16 l 24,26 -25,16 c -25,16 -47,38 -148,146 -30,32 -85,78 -124,103 l -71,46 5,1715 c 6,1873 2,1753 61,1738 41,-10 65,-74 77,-206 10,-114 24,-151 51,-135 9,6 10,41 6,144 -10,222 -51,342 -164,476 -60,71 -87,84 -106,53 -9,-13 -2,-27 30,-70 69,-91 115,-166 108,-177 -3,-6 -15,-11 -26,-11 -28,0 -77,-27 -89,-49 -7,-13 -10,-578 -10,-1735 V 5400 h -29 c -16,0 -36,7 -44,14 -8,8 -45,93 -82,188 -239,613 -273,690 -394,902 -38,66 -74,139 -80,161 -6,22 -17,126 -26,230 -22,270 -48,476 -100,782 -46,267 -46,268 -39,438 5,138 3,183 -10,238 -49,208 -200,351 -435,410 l -86,23 -17,52 c -16,49 -80,396 -94,511 -6,49 -5,55 17,72 14,10 24,29 25,46 0,15 2,52 2,80 2,50 4,53 36,67 19,8 42,26 52,41 24,37 12,68 -89,226 -81,127 -88,142 -131,291 -78,267 -95,302 -197,404 -104,105 -205,142 -419,152 l -135,7 -9,179 c -5,106 -5,237 0,320 6,78 7,143 4,146 -3,3 9,32 27,65 18,33 33,56 33,52 0,-5 -5,-17 -10,-28 -6,-10 -8,-19 -6,-19 3,0 17,24 31,53 14,28 20,44 12,35 -28,-35 -24,-17 10,47 19,36 39,63 44,60 5,-3 6,2 2,11 -4,12 -3,15 5,10 8,-5 10,-1 5,10 -4,12 -3,15 5,10 8,-5 10,-1 5,10 -5,13 -3,15 7,9 8,-5 11,-4 6,3 -10,16 26,85 37,70 5,-9 6,-6 3,7 -6,22 46,120 58,108 4,-4 4,1 0,11 -5,13 -4,17 4,12 8,-5 10,-1 5,10 -5,13 -3,15 7,9 8,-5 11,-4 6,3 -9,14 65,163 77,155 6,-3 7,-1 3,5 -6,10 58,152 69,152 3,0 -11,-31 -30,-70 -19,-38 -33,-70 -30,-70 10,0 72,136 67,149 -3,8 0,11 7,7 7,-5 9,-1 4,10 -4,12 -3,15 5,10 8,-5 10,-1 5,10 -4,12 -3,15 5,10 8,-5 10,-1 5,10 -5,13 -3,15 7,9 8,-5 11,-4 6,3 -6,10 118,272 129,272 3,0 -2,-14 -11,-31 -8,-17 -12,-29 -7,-26 18,11 116,225 110,241 -6,15 -75,16 -774,15 -422,-1 -777,-4 -788,-6 z m 1083,-9 c 181,-6 183,-6 176,-28 -6,-20 -5,-20 11,2 9,12 21,20 26,17 5,-4 9,-1 9,4 0,7 38,11 105,11 58,0 105,-4 105,-9 0,-5 9,-7 20,-4 12,3 20,0 20,-6 0,-7 -5,-9 -10,-6 -6,4 -18,1 -27,-7 -14,-11 -16,-11 -8,2 8,13 7,13 -8,1 -18,-15 -23,-26 -7,-16 6,3 10,3 10,0 0,-9 -60,-95 -66,-95 -3,0 -2,5 2,12 4,7 3,8 -4,4 -6,-4 -9,-13 -6,-20 3,-8 0,-17 -7,-22 -8,-5 -10,-3 -4,6 5,9 4,11 -4,6 -6,-4 -9,-11 -6,-16 8,-12 -45,-91 -56,-84 -5,3 -6,-1 -3,-9 3,-8 0,-18 -7,-23 -8,-5 -10,-3 -4,6 5,9 4,11 -4,6 -6,-4 -9,-11 -6,-16 5,-9 -42,-90 -52,-90 -2,0 -1,6 3,13 4,7 3,8 -2,4 -5,-5 -9,-16 -9,-25 0,-9 -6,-16 -13,-14 -8,1 -11,-2 -7,-7 3,-6 -78,-136 -181,-289 l -186,-280 7,-66 c 4,-36 11,-66 15,-66 5,0 6,-9 3,-20 -8,-30 -23,-24 -23,8 0,16 -3,65 -6,108 -4,43 -3,76 1,72 9,-9 35,22 60,72 10,19 21,37 25,40 4,3 32,43 63,90 38,56 57,95 57,115 0,23 3,27 10,15 11,-17 9,-19 64,64 32,48 42,79 64,182 17,83 29,120 35,112 6,-9 7,-7 2,7 -9,27 27,213 36,188 7,-16 8,-15 8,5 2,38 -25,24 -43,-23 -11,-27 -22,-42 -28,-39 -7,4 -8,2 -4,-5 4,-6 -23,-86 -61,-178 l -68,-167 -7,90 c -11,146 -14,343 -5,331 6,-8 7,-8 5,2 -4,14 -39,26 -36,13 4,-19 -46,-161 -55,-155 -6,3 -7,1 -3,-6 4,-6 -7,-69 -26,-138 l -33,-127 -6,204 c -4,143 -9,205 -17,208 -7,2 -9,9 -5,15 3,7 2,8 -3,4 -4,-4 -9,-16 -9,-25 -1,-40 -39,-222 -44,-213 -4,5 -7,-9 -7,-32 -1,-23 -5,-76 -10,-117 l -9,-75 -6,75 c -4,41 -6,104 -3,140 3,47 1,58 -5,40 -7,-17 -8,-3 -4,44 5,51 3,67 -5,62 -8,-5 -13,4 -14,28 -1,20 -2,44 -2,54 -2,36 -36,37 -36,1 0,-11 -4,-17 -10,-14 -6,4 -8,-16 -5,-52 2,-32 -2,-123 -9,-203 l -12,-145 -18,57 c -9,32 -14,63 -10,69 4,7 3,9 -3,6 -13,-8 -45,106 -36,129 4,11 2,15 -4,11 -13,-8 -38,77 -28,94 5,8 4,10 -3,5 -11,-7 -16,7 -15,41 1,7 -3,11 -7,8 -5,-3 -8,-87 -7,-188 1,-100 4,-164 7,-142 4,30 8,12 14,-68 6,-84 15,-129 41,-200 22,-62 34,-85 38,-72 2,11 5,-7 5,-40 0,-51 -1,-55 -8,-25 -4,19 -35,111 -69,204 -37,103 -59,178 -55,190 3,14 2,17 -4,8 -6,-9 -12,-2 -20,24 -6,21 -8,42 -5,47 3,6 1,7 -4,4 -13,-8 -27,39 -17,55 4,6 3,8 -3,5 -13,-8 -27,39 -17,55 4,6 3,8 -4,4 -13,-8 -45,84 -37,106 4,9 2,19 -4,23 -7,4 -9,-1 -6,-12 3,-10 -1,-4 -9,12 -23,47 -29,11 -17,-99 6,-52 11,-134 11,-181 0,-47 4,-85 9,-85 5,0 14,-34 20,-75 15,-103 12,-148 -4,-55 -16,98 -53,220 -66,220 -6,0 -8,4 -5,9 8,12 -4,42 -13,36 -11,-6 -42,64 -35,78 4,7 3,8 -2,4 -4,-4 -30,34 -56,85 -52,103 -58,97 -27,-24 11,-44 18,-87 15,-95 -3,-8 -2,-12 2,-9 11,7 45,-131 36,-145 -4,-7 -3,-9 3,-6 6,4 15,-17 22,-49 16,-71 131,-249 141,-219 5,15 8,10 13,-17 3,-21 23,-63 45,-95 48,-72 54,-83 49,-83 -11,0 -338,491 -332,499 3,5 0,13 -6,17 -8,5 -10,2 -5,-7 4,-8 -2,-3 -13,11 -11,14 -19,30 -16,37 2,7 -1,15 -7,19 -7,5 -8,2 -3,-6 5,-9 4,-11 -4,-6 -6,4 -10,15 -9,24 2,9 -3,17 -9,17 -17,0 -66,73 -58,85 4,6 1,9 -7,8 -7,-2 -13,5 -13,14 0,9 -4,20 -9,25 -5,5 -6,2 -1,-6 6,-10 4,-12 -4,-7 -7,5 -10,14 -7,22 3,7 0,16 -6,20 -7,5 -8,2 -3,-7 8,-12 6,-12 -8,0 -20,16 -23,36 -4,25 7,-4 9,-3 4,2 -5,5 -14,9 -19,9 -6,0 -13,6 -16,14 -3,9 0,11 9,6 11,-6 12,-5 2,6 -7,7 -13,15 -13,19 0,8 858,11 1068,4 z m -159,-508 c -6,-26 -13,-45 -16,-43 -2,3 1,26 8,51 6,26 13,45 16,43 2,-3 -1,-26 -8,-51 z m -212,-23 c -2,-16 -4,-5 -4,22 0,28 2,40 4,28 2,-13 2,-35 0,-50 z m 130,-35 c -2,-18 -4,-6 -4,27 0,33 2,48 4,33 2,-15 2,-42 0,-60 z m 52,-52 c -6,-26 -13,-45 -16,-43 -2,3 1,26 8,51 6,26 13,45 16,43 2,-3 -1,-26 -8,-51 z m -192,-28 c -2,-13 -4,-3 -4,22 0,25 2,35 4,23 2,-13 2,-33 0,-45 z m 165,-32 c 8,5 9,-1 5,-17 -4,-13 -7,-46 -7,-73 0,-82 -7,-48 -12,59 -3,55 -3,83 -1,62 3,-24 8,-35 15,-31 z m -197,-360 c -9,-110 -18,-202 -20,-204 -2,-2 -5,22 -7,52 -1,31 0,56 3,56 3,0 9,32 13,71 6,69 5,72 -30,130 -21,33 -34,62 -31,66 4,3 10,-3 14,-13 4,-10 16,-35 27,-54 l 21,-35 6,30 c 4,17 8,55 9,85 1,30 4,47 7,36 3,-10 -3,-109 -12,-220 z m 202,137 c -2,-16 -4,-5 -4,22 0,28 2,40 4,28 2,-13 2,-35 0,-50 z m -277,-153 c 6,-11 8,-20 6,-20 -3,0 -10,9 -16,20 -6,11 -8,20 -6,20 3,0 10,-9 16,-20 z m 30,-50 c 6,-11 8,-20 6,-20 -3,0 -10,9 -16,20 -6,11 -8,20 -6,20 3,0 10,-9 16,-20 z m 956,-1739 c -10,-15 -46,-14 -46,2 0,7 5,18 12,25 10,10 15,9 26,-2 8,-8 11,-19 8,-25 z m -186,20 c 0,-15 -19,-23 -38,-16 -14,5 -14,7 -2,15 19,12 40,13 40,1 z m 163,-968 c 51,-162 53,-172 33,-168 -11,3 -97,21 -190,39 -93,19 -173,39 -178,44 -5,5 6,56 28,125 37,115 38,117 68,118 17,0 63,6 101,13 39,7 73,10 76,7 4,-3 31,-84 62,-178 z M 2109,8675 c 31,-63 102,-145 186,-213 52,-43 25,-29 -42,21 -88,66 -154,160 -192,274 -12,34 -21,77 -20,95 0,24 5,13 18,-39 10,-40 32,-102 50,-138 z m 56,15 c 16,-31 58,-85 99,-125 39,-38 57,-59 39,-47 -92,65 -186,216 -197,317 -6,46 -5,44 12,-20 10,-38 31,-95 47,-125 z m 89,13 c 14,-21 35,-51 47,-68 l 23,-30 -33,30 c -38,35 -97,153 -105,210 -4,30 1,21 19,-32 14,-40 36,-90 49,-110 z m 831,155 c -4,-13 -20,-51 -36,-85 -35,-72 -83,-112 -167,-136 -70,-21 -66,-4 8,29 71,32 133,95 162,165 21,49 45,69 33,27 z m -1116,-60 c 37,-178 142,-325 303,-425 57,-35 58,-36 58,-83 0,-30 -6,-52 -15,-60 -20,-17 -19,-66 1,-74 9,-4 14,-9 11,-12 -11,-11 -190,83 -249,130 -74,59 -153,155 -201,245 l -38,71 h 26 c 31,0 61,14 93,43 37,34 29,49 -24,46 -41,-3 -48,0 -60,24 -18,33 -21,34 -20,6 1,-12 -5,-24 -11,-26 -18,-6 -16,32 2,47 20,17 43,6 47,-22 3,-22 4,-22 38,10 l 35,31 -42,1 c -24,0 -46,-1 -49,-2 -4,-2 -10,7 -15,20 -7,19 -11,21 -28,10 -25,-15 -35,-6 -26,22 5,16 10,18 20,10 10,-8 14,-8 17,1 6,18 28,1 28,-22 0,-17 3,-18 20,-9 11,6 20,17 20,25 0,9 6,12 18,8 12,-4 14,-3 7,5 -5,6 -30,12 -55,14 l -45,3 35,12 c 19,6 46,12 60,12 24,1 27,-4 39,-61 z m 335,-46 c 10,-19 15,-36 13,-38 -9,-9 -57,100 -56,125 0,21 3,18 13,-14 7,-22 20,-55 30,-73 z m -514,63 c -10,-12 -9,-20 4,-40 9,-14 23,-25 31,-25 11,0 10,-5 -6,-21 -11,-11 -22,-19 -23,-17 -4,5 -26,95 -26,107 0,6 7,11 16,11 13,0 14,-3 4,-15 z m 1695,-14 c 3,-5 -4,-13 -15,-16 -27,-9 -20,-30 9,-29 14,0 20,-4 17,-12 -3,-7 3,-15 12,-19 15,-6 15,-8 -3,-15 -11,-5 -33,-9 -48,-9 -19,-1 -27,-5 -24,-13 2,-7 10,-12 16,-10 6,1 10,-3 9,-9 -2,-6 3,-14 10,-16 8,-3 10,1 6,11 -3,9 -3,16 0,16 4,0 10,-10 15,-22 10,-27 -5,-36 -57,-37 -30,-1 -32,-3 -22,-22 6,-11 19,-23 28,-26 9,-4 20,-11 24,-17 4,-6 8,1 8,16 0,15 5,30 11,33 15,10 17,4 12,-33 -6,-36 2,-35 -93,-16 -36,7 -38,-5 -8,-46 27,-37 38,-38 38,-5 0,16 6,25 16,25 11,0 14,-5 9,-17 -4,-10 -10,-26 -12,-35 -6,-20 -14,-22 -29,-9 -14,13 -94,25 -94,13 0,-18 27,-32 46,-25 17,6 17,5 5,-10 -7,-9 -9,-17 -3,-17 5,0 12,7 16,15 7,20 26,19 26,-1 0,-9 -9,-18 -20,-21 -11,-3 -17,-10 -13,-16 4,-7 0,-8 -12,-3 -12,4 -22,0 -32,-14 -8,-11 -18,-18 -23,-15 -5,3 -5,-8 1,-24 14,-40 54,-50 79,-19 23,28 24,32 6,47 -10,8 -19,5 -40,-14 -27,-25 -27,-25 -24,-3 4,25 54,44 74,27 7,-6 18,-8 24,-4 5,3 10,0 10,-7 -1,-17 -74,-97 -126,-136 -47,-36 -59,-40 -50,-16 11,28 -11,45 -40,32 -20,-10 -27,-9 -35,3 -5,8 -6,20 -4,28 3,8 0,18 -7,23 -10,7 -9,8 2,5 8,-2 14,-13 13,-24 -2,-17 2,-19 24,-15 l 27,5 -34,29 c -19,15 -38,28 -42,28 -10,0 1,-78 14,-103 9,-17 11,-17 27,-3 23,21 43,20 39,-1 -2,-9 -14,-20 -28,-24 l -25,-7 25,-1 c 24,-2 24,-2 6,-16 -28,-21 -46,-18 -46,8 0,12 -17,40 -38,62 -20,22 -36,38 -35,36 2,-2 -2,-10 -8,-17 -15,-19 -3,-80 21,-104 19,-19 19,-20 -2,-31 -17,-9 -23,-9 -26,0 -5,14 -62,15 -62,1 0,-6 10,-9 23,-7 12,2 16,2 10,0 -7,-3 -13,-9 -13,-14 0,-5 -11,-9 -24,-9 -20,0 -22,4 -18,25 2,14 7,23 10,20 3,-3 14,2 24,11 14,14 20,14 33,4 12,-10 15,-9 15,5 0,26 -40,86 -52,79 -6,-4 -8,-2 -4,4 3,6 2,13 -3,16 -12,8 -21,-17 -21,-57 l -1,-32 -22,26 c -29,33 -55,27 -59,-14 l -3,-32 -23,43 c -26,49 -39,47 -48,-9 -9,-56 -21,-57 -27,-2 -6,60 -1,73 32,73 42,0 178,37 239,65 150,69 257,201 312,385 13,41 25,78 27,83 6,10 41,9 48,-2 z m -225,-102 c -55,-136 -160,-229 -309,-273 -83,-24 -95,-18 -16,8 92,30 147,59 197,104 50,45 110,135 134,202 10,27 20,48 22,45 3,-2 -10,-41 -28,-86 z m -1332,27 c -13,-14 -28,-12 -28,5 0,5 9,9 20,9 17,0 19,-2 8,-14 z m 1232,-46 c -6,-11 -13,-20 -16,-20 -2,0 0,9 6,20 6,11 13,20 16,20 2,0 0,-9 -6,-20 z m -1316,-31 c -8,-8 -12,-19 -9,-22 3,-4 1,-4 -4,0 -5,5 -13,20 -16,35 -7,26 -6,27 18,15 23,-10 24,-14 11,-28 z m 1679,35 c 8,-8 -3,-34 -14,-34 -5,0 -9,9 -9,20 0,19 11,26 23,14 z m 34,-38 c -4,-9 -14,-16 -22,-16 -9,0 -14,3 -12,8 2,4 7,16 11,26 5,14 10,16 18,8 6,-6 8,-18 5,-26 z m -1602,4 c -10,-11 -21,-18 -23,-15 -3,3 3,12 14,20 27,20 30,18 9,-5 z m -36,-25 c 3,-16 1,-17 -12,-7 -12,10 -16,10 -21,-3 -7,-19 -36,-20 -36,0 0,17 29,36 50,32 8,-1 16,-11 19,-22 z m 1360,-17 c -28,-54 -87,-121 -139,-156 -60,-42 -148,-82 -177,-81 -10,0 10,10 44,23 112,42 216,126 259,209 8,15 17,27 20,27 2,0 -1,-10 -7,-22 z m 285,-3 c -4,-8 -10,-15 -14,-15 -4,0 -10,7 -14,15 -4,10 1,15 14,15 13,0 18,-5 14,-15 z m -109,-7 c 4,-3 2,-9 -3,-12 -5,-3 -15,1 -21,8 -10,11 -9,14 3,12 9,-1 18,-5 21,-8 z m 77,-20 c 2,-41 -2,-63 -17,-78 -9,-9 -15,-10 -15,-3 0,6 -3,18 -6,26 -3,10 0,14 12,14 9,-1 19,4 21,11 3,7 -1,10 -11,6 -11,-4 -16,0 -16,13 0,37 29,47 32,11 z m -112,-64 c 0,-8 -5,-12 -10,-9 -6,4 -8,11 -5,16 9,14 15,11 15,-7 z m 70,-20 c 0,-8 -9,-14 -20,-14 -18,0 -19,3 -10,20 12,22 30,18 30,-6 z m -140,-24 c 0,-5 -2,-10 -4,-10 -3,0 -8,5 -11,10 -3,6 -1,10 4,10 6,0 11,-4 11,-10 z m 140,-18 c 0,-25 -34,-55 -57,-50 -20,4 -25,29 -5,36 6,2 12,-4 12,-13 0,-9 5,-13 11,-10 6,4 8,14 5,22 -8,19 1,33 20,33 8,0 14,-8 14,-18 z m -553,-88 c -3,-3 -12,-4 -19,-1 -8,3 -5,6 6,6 11,1 17,-2 13,-5 z m 453,-9 c 0,-16 -27,-32 -37,-21 -7,7 16,36 28,36 5,0 9,-7 9,-15 z m -512,-2 c -10,-2 -26,-2 -35,0 -10,3 -2,5 17,5 19,0 27,-2 18,-5 z m 247,-103 c -3,-5 1,-10 9,-10 21,0 20,-13 -3,-34 -18,-17 -19,-16 -18,18 1,20 5,36 10,36 4,0 5,-4 2,-10 z m -80,-20 c 3,-5 1,-10 -4,-10 -6,0 -11,5 -11,10 0,6 2,10 4,10 3,0 8,-4 11,-10 z m -75,-20 c 0,-5 -4,-10 -10,-10 -5,0 -10,5 -10,10 0,6 5,10 10,10 6,0 10,-4 10,-10 z m -80,-10 c 0,-5 -7,-10 -16,-10 -8,0 -12,5 -9,10 3,6 10,10 16,10 5,0 9,-4 9,-10 z m 180,1 c 0,-10 -30,-24 -37,-17 -3,3 -2,9 2,15 8,13 35,15 35,2 z m 98,-14 c 2,-12 -3,-17 -17,-17 -12,0 -21,6 -21,13 0,31 32,34 38,4 z m -838,-3 c 0,-8 -4,-12 -10,-9 -5,3 -10,10 -10,16 0,5 5,9 10,9 6,0 10,-7 10,-16 z m 657,-9 c -4,-8 -2,-17 4,-21 14,-9 -38,-54 -63,-54 -17,0 -18,3 -8,15 7,8 16,12 21,9 5,-3 10,3 10,13 1,10 2,23 4,28 1,6 3,13 3,18 1,4 9,7 18,7 10,0 14,-6 11,-15 z m -84,-2 c 4,-3 2,-12 -4,-20 -9,-10 -8,-13 2,-13 10,0 9,-5 -4,-17 -13,-14 -19,-15 -29,-5 -10,10 -10,15 2,22 10,7 11,10 3,10 -7,0 -13,7 -13,15 0,15 31,21 43,8 z m -48,-63 c 18,-19 17,-20 -3,-20 -15,0 -22,6 -22,20 0,11 2,20 3,20 2,0 12,-9 22,-20 z m -35,-89 c 0,-49 -3,-96 -6,-105 -5,-14 -36,-16 -240,-16 h -234 v 105 105 h 240 240 z M 1414,7903 c 79,-3 132,-10 124,-14 -15,-10 -428,-12 -452,-3 -9,3 -13,10 -10,15 6,11 147,12 338,2 z m 2756,-2 c -16,-9 -336,-31 -452,-31 -39,0 -68,4 -68,10 0,12 -11,10 155,19 194,11 382,12 365,2 z m 30,-111 c 0,-5 -8,-10 -17,-10 -10,0 -117,-7 -238,-15 -263,-17 -285,-18 -285,-6 0,13 57,20 255,30 250,12 285,12 285,1 z m -2695,-9 c 49,-7 49,-7 -35,-14 -157,-13 -400,-4 -400,14 0,11 362,10 435,0 z m 22,-117 c 61,-16 -9,-24 -222,-24 -208,0 -274,7 -233,23 18,8 429,8 455,1 z m 892,-1106 c 370,-179 714,-351 691,-344 -23,7 -244,102 -335,145 -44,20 -223,100 -397,176 -223,98 -318,145 -318,156 0,15 8,29 18,29 3,0 157,-73 341,-162 z m -269,47 c 15,-9 19,-14 10,-15 -13,0 -13,-1 0,-10 8,-5 11,-10 5,-10 -5,0 -17,5 -25,10 -13,9 -13,10 0,10 9,1 5,6 -10,15 -14,8 -20,14 -15,14 6,0 21,-6 35,-14 z m 69,-9 24,-14 -23,-7 c -17,-6 -20,-9 -9,-16 8,-5 10,-9 4,-9 -5,0 -17,5 -25,10 -13,9 -13,10 0,10 13,0 13,1 0,10 -13,9 -13,10 0,10 13,0 13,1 0,10 -23,15 2,11 29,-4 z m -165,-12 c 3,-8 2,-12 -4,-9 -6,3 -10,10 -10,16 0,14 7,11 14,-7 z m 221,-10 c 13,-6 14,-9 3,-16 -9,-7 -7,-8 10,-5 12,3 20,2 18,-2 -3,-4 51,-31 120,-60 69,-30 123,-56 120,-58 -2,-3 -14,0 -25,7 -12,6 -26,8 -31,5 -5,-3 -66,18 -135,46 -84,35 -122,55 -113,60 10,7 10,9 -2,9 -13,0 -13,1 0,10 18,12 15,11 35,4 z m 124,-191 c 356,-124 364,-127 333,-140 -30,-12 -53,-7 -315,67 -346,99 -407,119 -407,132 0,6 6,8 13,5 70,-26 620,-188 624,-183 4,3 -2,6 -13,7 -18,0 -18,1 1,10 17,8 16,8 -7,4 -17,-3 -104,18 -240,60 -306,94 -368,115 -368,126 0,5 3,9 8,9 4,0 135,-43 292,-95 157,-52 289,-95 295,-94 5,0 -111,42 -260,93 -148,51 -286,100 -305,109 -89,40 13,8 349,-110 z m -38,44 c -10,-9 -11,-8 -5,6 3,10 9,15 12,12 3,-3 0,-11 -7,-18 z m 224,-7 c 3,-6 -1,-7 -9,-4 -18,7 -21,14 -7,14 6,0 13,-4 16,-10 z m -74,-53 c -10,-9 -11,-8 -5,6 3,10 9,15 12,12 3,-3 0,-11 -7,-18 z m 133,-31 c -3,-9 -10,-16 -15,-16 -6,0 -5,9 1,21 13,24 24,20 14,-5 z m 28,-18 c -7,-7 -12,-8 -12,-2 0,14 12,26 19,19 2,-3 -1,-11 -7,-17 z m -388,-60 c 161,-36 223,-54 210,-60 -12,-5 -4,-6 21,-3 25,4 35,2 27,-3 -9,-6 7,-13 50,-21 111,-22 199,-43 195,-47 -2,-2 -116,19 -253,46 -137,28 -256,49 -264,48 -8,-2 41,-14 108,-27 68,-13 121,-25 118,-28 -2,-2 -122,17 -267,44 -145,26 -256,49 -245,51 10,2 61,-4 113,-13 52,-9 96,-15 98,-13 2,2 -37,12 -88,22 -119,23 -127,25 -127,37 0,12 4,11 183,-28 65,-14 120,-23 122,-21 3,2 -63,19 -145,38 -83,18 -150,35 -150,38 0,6 29,0 294,-60 z m 509,17 c -3,-9 -8,-14 -10,-11 -3,3 -2,9 2,15 9,16 15,13 8,-4 z m -297,-31 c -4,-9 -9,-15 -11,-12 -3,3 -3,13 1,22 4,9 9,15 11,12 3,-3 3,-13 -1,-22 z m 125,-31 c -8,-15 -10,-15 -11,-2 0,17 10,32 18,25 2,-3 -1,-13 -7,-23 z m -167,-943 c 170,-333 371,-727 447,-876 125,-242 137,-272 125,-289 -13,-18 -16,-14 -46,45 -18,36 -119,234 -225,440 -713,1391 -816,1599 -804,1621 13,25 -9,66 503,-941 z m -406,908 c 25,-45 213,-412 916,-1793 88,-172 109,-232 81,-229 -5,1 -80,138 -165,305 -531,1040 -895,1754 -898,1761 -2,4 5,8 16,8 14,0 30,-16 50,-52 z m 50,15 c 10,-16 238,-459 506,-986 400,-785 487,-962 481,-984 -3,-14 -10,-22 -14,-17 -5,5 -210,405 -456,889 -246,484 -476,935 -512,1003 -56,107 -62,122 -44,122 11,0 28,-12 39,-27 z m 882,15 c 0,-4 -4,-8 -9,-8 -6,0 -12,4 -15,8 -3,5 1,9 9,9 8,0 15,-4 15,-9 z m -826,-17 c 17,-19 949,-1840 959,-1876 6,-19 -7,-55 -16,-45 -10,12 -987,1927 -987,1935 0,12 29,3 44,-14 z m 58,-3 c 9,-7 174,-322 366,-699 576,-1128 580,-1137 554,-1153 -9,-5 -27,29 -390,739 -535,1047 -573,1125 -560,1125 8,0 21,-6 30,-12 z m 81,-32 c 8,-11 208,-401 445,-866 319,-625 430,-851 425,-868 -3,-12 -8,-22 -12,-22 -3,0 -56,98 -117,218 -421,824 -794,1559 -794,1564 0,14 40,-6 53,-26 z m 84,-49 c 34,-61 456,-885 683,-1335 112,-220 131,-266 123,-284 -8,-20 -20,-3 -95,142 -231,444 -778,1524 -778,1536 0,3 8,4 17,2 10,-2 32,-29 50,-61 z m -379,-59 c 153,-290 992,-1946 997,-1969 11,-44 -12,-42 -38,3 -29,50 -774,1512 -931,1825 -99,198 -120,253 -97,253 5,0 36,-51 69,-112 z m 627,-305 c 566,-1109 590,-1158 579,-1183 -9,-21 -31,18 -209,366 -109,214 -294,577 -412,806 -117,230 -213,420 -213,424 0,3 10,4 22,2 19,-2 59,-74 233,-415 z m -88,411 c -3,-3 -12,-4 -19,-1 -8,3 -5,6 6,6 11,1 17,-2 13,-5 z m 698,-5 c 50,-13 58,-26 49,-85 -6,-42 -7,-43 -38,-38 -139,25 -186,64 -136,114 23,23 60,25 125,9 z m -756,-12 c 6,-8 178,-341 382,-741 300,-589 370,-732 364,-753 -3,-15 -10,-22 -15,-17 -6,7 -528,1025 -754,1472 -24,48 -25,52 -7,52 10,0 24,-6 30,-13 z m 412,-687 c 264,-518 349,-694 349,-720 -1,-32 -2,-33 -14,-17 -17,22 -726,1411 -726,1421 0,4 10,6 22,4 17,-2 85,-128 369,-688 z m -288,665 c 15,-15 159,-292 481,-927 159,-314 198,-407 165,-396 -8,3 -689,1322 -689,1335 0,9 31,1 43,-12 z m 54,-3 c 19,-12 77,-121 354,-668 177,-348 259,-521 259,-542 0,-18 -3,-32 -8,-32 -4,0 -78,141 -164,313 -87,171 -227,449 -313,617 -85,168 -155,308 -155,313 0,9 12,9 27,-1 z m -561,-369 c 645,-1264 874,-1720 872,-1732 -2,-8 -8,-16 -14,-18 -11,-4 -1,-23 -532,1017 -531,1042 -534,1049 -528,1076 4,13 8,24 10,24 3,0 89,-165 192,-367 z m 642,352 c 1,-1 126,-244 277,-541 248,-485 275,-542 268,-570 -7,-30 -30,12 -298,537 -159,313 -292,574 -294,580 -2,7 5,9 20,4 13,-4 25,-8 27,-10 z m 64,-14 c 3,-3 115,-219 248,-479 207,-405 241,-477 238,-510 -3,-41 -17,-16 -378,692 -140,274 -159,317 -139,311 13,-4 27,-10 31,-14 z m 98,-73 c 22,-40 121,-234 220,-430 140,-277 180,-365 180,-395 v -38 l -24,42 c -14,23 -122,234 -241,468 -185,363 -213,425 -196,425 15,0 31,-19 61,-72 z m 213,-300 c 170,-332 219,-448 191,-448 -5,0 -35,51 -66,113 -32,61 -124,244 -206,405 -135,264 -147,292 -127,292 19,0 48,-50 208,-362 z m 38,42 c 118,-228 158,-314 158,-342 1,-21 -2,-38 -7,-38 -6,0 -294,563 -339,663 -12,27 -11,28 9,25 18,-2 53,-63 179,-308 z m -93,282 c 9,-9 70,-123 136,-252 97,-192 117,-241 115,-270 -4,-32 -17,-9 -140,230 -75,146 -140,275 -143,288 -9,27 7,29 32,4 z m -917,-495 c 825,-1615 801,-1565 788,-1588 -13,-26 4,-58 -489,911 -183,360 -386,760 -452,887 -107,211 -138,293 -110,293 4,0 122,-226 263,-503 z m 975,495 c 6,-4 51,-85 99,-180 79,-156 113,-252 89,-252 -8,0 -224,420 -224,435 0,7 23,6 36,-3 z m 69,-18 c 45,-46 140,-282 121,-302 -5,-5 -156,293 -156,308 0,15 16,12 35,-6 z m 83,-36 c 17,-28 43,-152 29,-138 -2,3 -23,42 -46,88 -37,73 -39,82 -22,82 11,0 28,-14 39,-32 z m 22,11 c 0,-6 -4,-7 -10,-4 -5,3 -10,11 -10,16 0,6 5,7 10,4 6,-3 10,-11 10,-16 z M 2392,4931 c 279,-548 508,-1004 508,-1013 0,-27 -18,-30 -33,-6 -13,21 -754,1474 -930,1823 -90,178 -98,200 -90,222 6,14 9,14 22,-7 9,-13 244,-472 523,-1019 z m -92,67 c 250,-491 482,-945 515,-1010 56,-110 59,-118 43,-134 -15,-16 -21,-7 -93,137 -43,85 -270,533 -506,995 -404,793 -456,904 -421,904 4,0 212,-402 462,-892 z m -257,387 c 112,-220 334,-654 492,-965 158,-311 292,-570 296,-576 6,-7 2,-17 -9,-27 -17,-15 -41,31 -449,831 -556,1091 -553,1086 -553,1124 0,20 4,28 9,23 5,-6 101,-190 214,-410 z m 240,-585 c 504,-989 511,-1004 503,-1027 -6,-14 -9,-15 -20,-2 -30,32 -896,1747 -911,1804 -8,33 -18,69 -21,80 -4,13 -3,17 4,10 5,-5 205,-395 445,-865 z m 2518,799 c -27,-22 -274,-177 -297,-186 -8,-3 -14,1 -14,9 0,7 71,55 157,106 153,89 204,113 154,71 z M 3430,4519 c 55,-552 104,-1045 110,-1096 5,-50 10,-109 10,-131 v -39 l -557,-6 c -306,-4 -710,-7 -897,-6 h -341 l 146,39 c 583,155 951,439 1178,910 155,320 241,757 241,1224 0,66 2,117 5,115 2,-3 50,-457 105,-1010 z m -1138,146 c 461,-904 458,-898 458,-920 0,-57 -50,28 -256,433 -125,246 -321,630 -436,854 -172,338 -208,415 -208,450 0,23 2,39 5,37 2,-3 199,-387 437,-854 z m 2564,846 c -13,-20 -287,-202 -296,-196 -18,11 -2,24 137,116 119,79 175,107 159,80 z M 2353,4430 c 316,-618 364,-717 352,-729 -8,-8 -17,-12 -20,-10 -6,6 -575,1123 -741,1454 -98,195 -114,235 -108,259 7,27 13,19 80,-115 40,-79 237,-466 437,-859 z m -94,70 c 367,-719 419,-827 406,-839 -8,-8 -16,-13 -18,-10 -2,2 -72,137 -154,299 -83,162 -268,525 -412,806 -206,404 -261,520 -261,550 0,24 4,34 9,29 5,-6 199,-381 430,-835 z m 2746,757 c 21,-16 13,-37 -14,-37 -22,0 -45,25 -36,40 9,14 28,13 50,-3 z M 2057,4781 c 120,-234 299,-586 399,-781 172,-338 189,-380 154,-380 -5,0 -165,309 -358,688 -462,907 -442,866 -442,904 1,31 2,32 15,14 8,-10 112,-210 232,-445 z m 2900,433 c 6,-17 -14,-44 -32,-44 -20,0 -50,51 -35,60 17,10 61,0 67,-16 z m -3551,-2 c -7,-12 -252,-24 -296,-16 -29,6 -31,9 -15,15 27,10 317,11 311,1 z m 3504,-58 c 11,-12 10,-18 -4,-32 -20,-20 -49,-6 -54,27 -3,17 2,21 21,21 14,0 30,-7 37,-16 z M 2205,4377 c 220,-433 384,-765 381,-774 -3,-8 -11,-13 -18,-11 -15,5 -23,20 -432,824 -268,527 -336,669 -336,700 0,23 4,34 9,29 5,-6 183,-351 396,-768 z m -840,743 c 13,-5 -23,-8 -95,-7 -109,1 -111,1 -40,7 110,9 113,9 135,0 z m 3495,-25 c 10,-12 10,-18 0,-30 -17,-20 -27,-19 -35,5 -11,36 12,53 35,25 z M 2214,4241 c 331,-649 345,-680 306,-681 -5,0 -20,29 -441,860 -158,311 -290,578 -293,593 -14,59 8,46 48,-30 23,-43 194,-377 380,-742 z m -834,789 c -35,-11 -301,-11 -275,0 11,5 83,8 160,8 85,0 130,-3 115,-8 z m 505,-258 c 55,-108 216,-426 358,-705 144,-282 256,-514 253,-522 -3,-8 -10,-15 -15,-15 -5,0 -167,310 -360,689 -330,646 -378,751 -343,751 4,0 52,-89 107,-198 z m 91,-292 c 415,-814 484,-957 469,-970 -11,-9 -25,12 -78,112 -109,207 -576,1126 -592,1164 -17,41 -21,104 -5,88 5,-5 98,-183 206,-394 z m 107,-325 c 174,-343 318,-634 320,-647 1,-14 -3,-23 -12,-23 -14,0 -145,250 -516,987 -79,156 -125,258 -125,277 0,17 3,31 8,31 4,0 150,-281 325,-625 z m -14,-90 c 239,-469 298,-592 288,-603 -9,-12 -14,-11 -27,8 -8,13 -143,273 -299,579 -184,360 -285,570 -288,596 -5,36 -4,38 10,25 9,-8 151,-280 316,-605 z m -67,15 c 132,-261 258,-508 280,-549 36,-69 42,-101 19,-101 -14,0 -40,48 -315,592 -185,366 -256,516 -256,540 1,32 1,32 16,13 8,-11 123,-234 256,-495 z m -667,425 c 42,-2 74,0 82,7 22,18 24,4 13,-68 -13,-82 -59,-179 -111,-237 -44,-49 -59,-46 -97,19 -22,39 -74,192 -85,251 -6,29 -4,32 21,36 15,2 45,3 67,1 22,-3 71,-6 110,-9 z m 761,-722 c 143,-282 177,-354 167,-364 -8,-8 -16,-9 -22,-4 -5,6 -125,236 -266,512 -226,443 -256,507 -250,534 8,35 -11,70 371,-678 z m -82,44 c 179,-353 214,-428 201,-433 -9,-4 -20,-3 -24,2 -13,14 -445,863 -464,913 -10,24 -15,52 -11,63 8,25 12,18 298,-545 z m -55,-8 c 122,-240 218,-439 214,-442 -3,-4 -12,-7 -19,-7 -19,0 -435,824 -441,874 -5,37 -4,39 10,26 8,-8 114,-211 236,-451 z m -33,-49 c 144,-284 202,-406 194,-414 -7,-7 -14,-6 -25,4 -25,26 -395,758 -395,783 0,22 9,41 17,34 1,-2 95,-185 209,-407 z m -31,-56 c 181,-356 192,-383 155,-384 -3,0 -85,156 -182,346 -145,284 -176,352 -171,375 3,16 7,29 8,29 2,0 87,-165 190,-366 z m -26,-65 c 89,-174 158,-319 154,-322 -3,-4 -12,-7 -19,-7 -6,0 -76,126 -155,279 -79,154 -146,278 -147,276 -2,-2 59,-126 135,-276 76,-150 140,-277 142,-282 2,-5 -7,-7 -20,-5 -20,2 -43,41 -146,243 l -121,240 v 93 c 0,52 4,90 9,85 4,-4 80,-150 168,-324 z m -8,-213 c 62,-125 69,-149 42,-144 -10,2 -54,76 -115,195 -80,156 -98,200 -98,235 v 43 l 56,-105 c 31,-58 83,-158 115,-224 z m -77,35 c 47,-93 86,-174 86,-180 0,-6 -8,-11 -18,-11 -12,0 -39,43 -95,155 -70,142 -91,205 -68,205 5,0 48,-76 95,-169 z m 31,-199 c -14,-14 -43,20 -87,104 -37,69 -47,99 -47,134 0,45 1,44 70,-94 39,-76 67,-141 64,-144 z m -45,-4 c 0,-5 -9,-8 -20,-8 -26,0 -70,86 -70,137 1,38 1,38 45,-42 25,-44 45,-83 45,-87 z m -60,-5 c 0,-7 -4,-13 -9,-13 -10,0 -21,25 -21,48 1,15 3,14 15,-2 8,-11 15,-26 15,-33 z M 3930,1042 c 0,-8 -45,-20 -288,-77 -83,-19 -145,-29 -148,-23 -3,5 -4,11 -3,13 2,2 83,21 179,43 96,22 184,42 195,45 34,8 65,7 65,-1 z M 2090,951 c 0,-10 -454,-26 -470,-16 -33,20 9,25 230,25 132,0 240,-4 240,-9 z m 1856,-23 c -29,-16 -389,-109 -403,-103 -22,8 -14,22 15,29 15,3 101,23 192,45 91,22 176,40 190,40 23,0 24,0 6,-11 z M 2068,841 c 23,-14 -54,-21 -258,-21 -241,0 -249,18 -10,23 91,1 185,3 210,5 25,1 51,-2 58,-7 z m 1912,-30 c 0,-8 -334,-101 -376,-104 -13,-1 -24,3 -26,8 -2,6 80,31 182,57 191,49 220,54 220,39 z M 2040,722 c 77,-12 23,-20 -194,-28 -150,-5 -206,-4 -206,4 0,17 32,22 155,25 61,1 130,3 155,4 25,1 65,-2 90,-5 z"
     inkscape:connector-curvature="0" /><path
     id="path1151"
     d="m 2071,12754 c 0,-11 3,-14 6,-6 3,7 2,16 -1,19 -3,4 -6,-2 -5,-13 z"
     inkscape:connector-curvature="0" /><path
     id="path1153"
     d="m 2130,12721 c 0,-6 4,-13 10,-16 6,-3 7,1 4,9 -7,18 -14,21 -14,7 z"
     inkscape:connector-curvature="0" /><path
     id="path1155"
     d="m 2692,12465 c 0,-16 2,-22 5,-12 2,9 2,23 0,30 -3,6 -5,-1 -5,-18 z"
     inkscape:connector-curvature="0" /><path
     id="path1157"
     d="m 2814,12445 c -3,-8 -4,-20 -2,-27 3,-7 7,-1 10,15 6,29 1,36 -8,12 z"
     inkscape:connector-curvature="0" /><path
     id="path1159"
     d="m 2567,12419 c 4,-13 8,-18 11,-10 2,7 -1,18 -6,23 -8,8 -9,4 -5,-13 z"
     inkscape:connector-curvature="0" /><path
     id="path1161"
     d="m 2160,12361 c 0,-6 5,-13 10,-16 6,-3 10,1 10,9 0,9 -4,16 -10,16 -5,0 -10,-4 -10,-9 z"
     inkscape:connector-curvature="0" /><path
     id="path1163"
     d="m 2440,12363 c 0,-4 5,-15 10,-23 8,-13 10,-13 10,2 0,9 -4,20 -10,23 -5,3 -10,3 -10,-2 z"
     inkscape:connector-curvature="0" /><path
     id="path1165"
     d="m 3081,12344 c 0,-11 3,-14 6,-6 3,7 2,16 -1,19 -3,4 -6,-2 -5,-13 z"
     inkscape:connector-curvature="0" /><path
     id="path1167"
     d="m 1961,8599 c -43,-8 -91,-33 -91,-47 0,-4 7,-18 16,-30 11,-17 22,-21 37,-16 39,11 108,87 90,97 -5,2 -28,0 -52,-4 z m 19,-28 c 0,-24 -19,-39 -58,-47 -29,-6 -32,-4 -32,20 0,27 14,35 26,14 5,-8 9,-6 14,6 6,18 7,18 24,0 18,-17 18,-17 12,4 -5,13 -3,22 3,22 6,0 11,-8 11,-19 z"
     inkscape:connector-curvature="0" /><path
     id="path1169"
     d="m 1984,8519 c -45,-13 -68,-42 -54,-68 10,-20 49,-29 63,-15 3,4 0,19 -9,35 -13,26 -13,29 0,29 8,0 20,-8 26,-17 9,-16 12,-15 35,12 13,16 22,32 19,34 -3,3 -9,-1 -13,-8 -6,-9 -11,-10 -15,-2 -8,12 -10,13 -52,0 z m 51,-19 c 3,-5 -1,-10 -9,-10 -9,0 -16,5 -16,10 0,6 4,10 9,10 6,0 13,-4 16,-10 z m -65,-25 c 7,-9 10,-18 7,-21 -10,-11 -37,5 -37,21 0,19 14,19 30,0 z"
     inkscape:connector-curvature="0" /><path
     id="path1171"
     d="m 2040,8449 -45,-20 24,-18 c 25,-19 21,-44 -6,-34 -10,4 -14,2 -11,-7 6,-20 21,-22 42,-7 16,12 16,14 -5,41 -20,26 -20,28 -3,24 10,-1 21,-14 24,-27 l 6,-24 17,26 c 13,20 14,25 3,21 -8,-3 -17,-1 -21,5 -3,6 1,11 9,11 9,0 16,6 16,13 0,8 4,7 10,-3 8,-13 10,-12 10,3 0,21 -13,21 -70,-4 z"
     inkscape:connector-curvature="0" /><path
     id="path1173"
     d="m 2106,8387 c -50,-29 -65,-51 -50,-74 19,-30 49,-27 78,7 27,33 33,50 17,50 -5,0 -13,-9 -16,-21 -5,-13 -12,-18 -22,-14 -13,4 -13,3 -4,-9 17,-21 -18,-31 -38,-11 -15,15 -14,18 9,35 14,11 31,18 38,15 6,-2 12,0 12,5 0,6 9,10 20,10 11,0 20,7 20,15 0,21 -18,18 -64,-8 z"
     inkscape:connector-curvature="0" /><path
     id="path1175"
     d="m 2225,8360 c 6,-10 4,-12 -7,-8 -8,4 -28,-4 -44,-18 l -29,-23 27,-1 c 19,0 26,4 22,14 -3,8 -1,17 5,21 14,8 14,-8 -1,-56 -9,-31 -16,-39 -35,-39 -18,0 -23,5 -21,18 2,9 10,16 17,14 7,-1 10,2 6,8 -13,22 -36,10 -33,-16 5,-40 33,-54 58,-28 27,27 53,111 38,120 -7,5 -8,2 -3,-6 z"
     inkscape:connector-curvature="0" /><path
     id="path1177"
     d="m 2284,8319 c -4,-8 -3,-9 4,-5 18,11 15,-19 -3,-34 -13,-10 -15,-9 -15,11 -1,23 -2,23 -31,-9 -39,-43 -38,-85 3,-90 33,-4 53,24 62,85 6,41 -5,65 -20,42 z m -4,-74 c 0,-12 -5,-12 -24,-4 -14,7 -22,17 -19,25 7,18 43,0 43,-21 z m -22,-17 c 17,-17 15,-25 -8,-23 -25,2 -34,11 -25,24 8,14 18,14 33,-1 z"
     inkscape:connector-curvature="0" /><path
     id="path1179"
     d="m 3280,8419 c 0,-5 5,-7 12,-3 8,5 9,2 5,-9 -7,-19 1,-21 23,-7 13,9 13,11 0,20 -20,13 -40,13 -40,-1 z"
     inkscape:connector-curvature="0" /><path
     id="path1181"
     d="m 3226,8358 c 11,-36 43,-96 55,-104 16,-10 59,17 59,37 0,23 -24,31 -47,14 -25,-19 -36,-18 -29,2 4,9 1,20 -6,24 -7,4 -9,12 -4,16 5,4 11,2 13,-4 3,-7 12,-13 21,-13 14,1 13,4 -6,20 -13,11 -30,16 -39,13 -11,-4 -14,-2 -9,5 4,7 2,12 -4,12 -7,0 -9,-8 -4,-22 z m 94,-68 c 0,-12 -28,-25 -36,-17 -9,9 6,27 22,27 8,0 14,-5 14,-10 z"
     inkscape:connector-curvature="0" /><path
     id="path1183"
     d="m 2940,8250 c 0,-5 5,-10 10,-10 6,0 10,5 10,10 0,6 -4,10 -10,10 -5,0 -10,-4 -10,-10 z"
     inkscape:connector-curvature="0" /><path
     id="path1185"
     d="m 2473,8093 c 59,-2 155,-2 215,0 59,1 10,3 -108,3 -118,0 -167,-2 -107,-3 z"
     inkscape:connector-curvature="0" /><path
     id="path1187"
     d="m 2478,8053 c 56,-2 148,-2 205,0 56,1 10,3 -103,3 -113,0 -159,-2 -102,-3 z"
     inkscape:connector-curvature="0" /><path
     id="path1189"
     d="m 2405,8020 c -4,-7 57,-10 174,-10 114,0 181,4 181,10 0,6 -65,10 -174,10 -106,0 -177,-4 -181,-10 z"
     inkscape:connector-curvature="0" /><path
     id="path1191"
     d="m 2478,7983 c 56,-2 148,-2 205,0 56,1 10,3 -103,3 -113,0 -159,-2 -102,-3 z"
     inkscape:connector-curvature="0" /><path
     id="path1193"
     d="m 2405,7950 c 11,-5 88,-9 170,-9 83,0 159,4 170,9 12,5 -55,9 -170,9 -115,0 -182,-4 -170,-9 z"
     inkscape:connector-curvature="0" /><path
     id="path1195"
     d="m 2473,7913 c 59,-2 154,-2 210,0 56,1 8,3 -108,3 -115,0 -161,-2 -102,-3 z"
     inkscape:connector-curvature="0" /><path
     id="path1197"
     d="m 2289,6529 c 24,-11 46,-18 48,-15 4,4 -73,36 -85,35 -4,0 13,-9 37,-20 z"
     inkscape:connector-curvature="0" /><path
     id="path1199"
     d="m 2370,6495 c 14,-8 30,-14 35,-14 6,0 -1,6 -15,14 -14,8 -29,14 -35,14 -5,0 1,-6 15,-14 z"
     inkscape:connector-curvature="0" /><path
     id="path1201"
     d="m 2430,6470 c 8,-5 20,-10 25,-10 6,0 3,5 -5,10 -8,5 -19,10 -25,10 -5,0 -3,-5 5,-10 z"
     inkscape:connector-curvature="0" /><path
     id="path1203"
     d="m 2665,6270 20,-9 -20,-1 c -18,-1 -18,-2 3,-11 13,-5 36,-6 50,-2 l 27,6 -35,13 c -40,14 -77,18 -45,4 z m 42,-16 c -3,-3 -12,-4 -19,-1 -8,3 -5,6 6,6 11,1 17,-2 13,-5 z"
     inkscape:connector-curvature="0" /><path
     id="path1205"
     d="m 2320,6230 c 14,-4 34,-8 45,-8 16,0 15,2 -5,8 -14,4 -34,8 -45,8 -16,0 -15,-2 5,-8 z"
     inkscape:connector-curvature="0" /><path
     id="path1207"
     d="m 2218,6223 c 6,-2 18,-2 25,0 6,3 1,5 -13,5 -14,0 -19,-2 -12,-5 z"
     inkscape:connector-curvature="0" /><path
     id="path1209"
     d="m 2398,6213 c 6,-2 18,-2 25,0 6,3 1,5 -13,5 -14,0 -19,-2 -12,-5 z"
     inkscape:connector-curvature="0" /><path
     id="path1211"
     d="m 2448,6203 c 7,-3 16,-2 19,1 4,3 -2,6 -13,5 -11,0 -14,-3 -6,-6 z"
     inkscape:connector-curvature="0" /><path
     id="path1213"
     d="m 1840,12736 c 0,-11 40,-86 45,-86 3,0 -4,19 -16,43 -23,45 -29,54 -29,43 z"
     inkscape:connector-curvature="0" /><path
     id="path1215"
     d="m 2400,11660 c 6,-11 13,-20 16,-20 2,0 0,9 -6,20 -6,11 -13,20 -16,20 -2,0 0,-9 6,-20 z"
     inkscape:connector-curvature="0" /><path
     id="path1217"
     d="m 2022,6777 c -6,-7 -13,-37 -16,-67 l -5,-55 11,55 c 5,30 15,58 21,62 6,4 9,10 6,13 -4,3 -11,0 -17,-8 z"
     inkscape:connector-curvature="0" /><path
     id="path1219"
     d="m 1992,6625 c 0,-16 2,-22 5,-12 2,9 2,23 0,30 -3,6 -5,-1 -5,-18 z"
     inkscape:connector-curvature="0" /><path
     id="path1221"
     d="m 1982,6565 c 0,-16 2,-22 5,-12 2,9 2,23 0,30 -3,6 -5,-1 -5,-18 z"
     inkscape:connector-curvature="0" /><path
     id="path1223"
     d="m 1965,6485 c -3,-26 -4,-49 -2,-51 3,-3 8,16 12,41 3,26 4,49 2,51 -3,3 -8,-16 -12,-41 z"
     inkscape:connector-curvature="0" /><path
     id="path1225"
     d="m 1946,6379 c -4,-23 -5,-44 -2,-46 2,-2 7,14 11,37 4,23 5,43 2,46 -2,3 -7,-14 -11,-37 z"
     inkscape:connector-curvature="0" /><path
     id="path1227"
     d="m 1931,6304 c 0,-11 3,-14 6,-6 3,7 2,16 -1,19 -3,4 -6,-2 -5,-13 z"
     inkscape:connector-curvature="0" /><path
     id="path1229"
     d="m 1921,6264 c 0,-11 3,-14 6,-6 3,7 2,16 -1,19 -3,4 -6,-2 -5,-13 z"
     inkscape:connector-curvature="0" /><path
     id="path1231"
     d="m 1877,6164 c -37,-74 -33,-83 4,-10 17,32 29,60 27,62 -2,2 -16,-21 -31,-52 z"
     inkscape:connector-curvature="0" /><path
     id="path1233"
     d="m 1816,6015 c -3,-9 -6,-22 -5,-28 0,-7 5,-1 10,12 5,13 8,26 5,28 -2,2 -6,-3 -10,-12 z"
     inkscape:connector-curvature="0" /><path
     id="path1235"
     d="m 1790,5903 c -7,-37 -10,-79 -7,-93 3,-19 5,-16 6,12 0,20 6,60 12,88 6,28 9,54 6,56 -3,3 -10,-25 -17,-63 z"
     inkscape:connector-curvature="0" /><path
     id="path1237"
     d="m 1781,5695 c 0,-22 6,-62 14,-90 16,-54 16,-61 -5,80 -7,49 -8,49 -9,10 z"
     inkscape:connector-curvature="0" /><path
     id="path1239"
     d="m 1785,5500 c -4,-23 -5,-43 -2,-46 2,-3 7,14 11,37 4,23 5,44 2,46 -2,2 -7,-14 -11,-37 z"
     inkscape:connector-curvature="0" /><path
     id="path1241"
     d="m 1767,5411 c -4,-18 -7,-43 -6,-55 1,-11 5,-1 10,24 5,25 7,49 6,55 -2,5 -7,-5 -10,-24 z"
     inkscape:connector-curvature="0" /><path
     id="path1243"
     d="m 1791,5358 c -21,-125 -50,-335 -56,-403 -2,-38 6,7 20,100 13,94 31,212 40,264 9,51 14,95 12,98 -3,2 -10,-24 -16,-59 z"
     inkscape:connector-curvature="0" /><path
     id="path1245"
     d="m 1745,5280 c -4,-28 -5,-53 -2,-56 2,-3 7,19 11,47 4,28 5,53 3,56 -3,2 -8,-19 -12,-47 z"
     inkscape:connector-curvature="0" /><path
     id="path1247"
     d="m 1732,5185 c 0,-16 2,-22 5,-12 2,9 2,23 0,30 -3,6 -5,-1 -5,-18 z"
     inkscape:connector-curvature="0" /><path
     id="path1249"
     d="m 1722,5115 c 0,-16 2,-22 5,-12 2,9 2,23 0,30 -3,6 -5,-1 -5,-18 z"
     inkscape:connector-curvature="0" /><path
     id="path1251"
     d="m 1712,5040 c 0,-19 2,-27 5,-17 2,9 2,25 0,35 -3,9 -5,1 -5,-18 z"
     inkscape:connector-curvature="0" /><path
     id="path1253"
     d="m 1703,4965 c 0,-22 2,-30 4,-17 2,12 2,30 0,40 -3,9 -5,-1 -4,-23 z"
     inkscape:connector-curvature="0" /><path
     id="path1255"
     d="m 1693,4880 c 0,-25 2,-35 4,-22 2,12 2,32 0,45 -2,12 -4,2 -4,-23 z"
     inkscape:connector-curvature="0" /><path
     id="path1257"
     d="m 1723,4840 c 0,-25 2,-35 4,-22 2,12 2,32 0,45 -2,12 -4,2 -4,-23 z"
     inkscape:connector-curvature="0" /><path
     id="path1259"
     d="m 1683,4785 c 0,-27 2,-38 4,-22 2,15 2,37 0,50 -2,12 -4,0 -4,-28 z"
     inkscape:connector-curvature="0" /><path
     id="path1261"
     d="m 1713,4750 c 0,-25 2,-35 4,-22 2,12 2,32 0,45 -2,12 -4,2 -4,-23 z"
     inkscape:connector-curvature="0" /><path
     id="path1263"
     d="m 1673,4685 c 0,-27 2,-38 4,-22 2,15 2,37 0,50 -2,12 -4,0 -4,-28 z"
     inkscape:connector-curvature="0" /><path
     id="path1265"
     d="m 1703,4645 c 0,-27 2,-38 4,-22 2,15 2,37 0,50 -2,12 -4,0 -4,-28 z"
     inkscape:connector-curvature="0" /><path
     id="path1267"
     d="m 1663,4575 c 0,-33 2,-45 4,-27 2,18 2,45 0,60 -2,15 -4,0 -4,-33 z"
     inkscape:connector-curvature="0" /><path
     id="path1269"
     d="m 1693,4535 c 0,-33 2,-45 4,-27 2,18 2,45 0,60 -2,15 -4,0 -4,-33 z"
     inkscape:connector-curvature="0" /><path
     id="path1271"
     d="m 1653,4455 c 0,-33 2,-45 4,-27 2,18 2,45 0,60 -2,15 -4,0 -4,-33 z"
     inkscape:connector-curvature="0" /><path
     id="path1273"
     d="m 1683,4415 c 0,-33 2,-45 4,-27 2,18 2,45 0,60 -2,15 -4,0 -4,-33 z"
     inkscape:connector-curvature="0" /><path
     id="path1275"
     d="m 1635,4280 c -4,-62 -5,-114 -2,-116 3,-3 8,45 12,106 4,61 5,113 2,116 -2,3 -8,-45 -12,-106 z"
     inkscape:connector-curvature="0" /><path
     id="path1277"
     d="m 1665,4230 c -4,-67 -5,-123 -2,-126 2,-3 8,50 12,116 4,67 5,124 2,126 -3,3 -8,-49 -12,-116 z"
     inkscape:connector-curvature="0" /><path
     id="path1279"
     d="m 1653,4030 c 0,-36 2,-50 4,-32 2,17 2,47 0,65 -2,17 -4,3 -4,-33 z"
     inkscape:connector-curvature="0" /><path
     id="path1281"
     d="m 1613,3935 c 0,-22 2,-30 4,-17 2,12 2,30 0,40 -3,9 -5,-1 -4,-23 z"
     inkscape:connector-curvature="0" /><path
     id="path1283"
     d="m 1643,3900 c 0,-36 2,-50 4,-32 2,17 2,47 0,65 -2,17 -4,3 -4,-33 z"
     inkscape:connector-curvature="0" /><path
     id="path1285"
     d="m 1603,3795 c 0,-33 2,-45 4,-27 2,18 2,45 0,60 -2,15 -4,0 -4,-33 z"
     inkscape:connector-curvature="0" /><path
     id="path1287"
     d="m 1621,3680 c -7,-83 -11,-154 -8,-156 6,-6 31,279 26,295 -3,7 -11,-55 -18,-139 z"
     inkscape:connector-curvature="0" /><path
     id="path1289"
     d="m 1577,3553 c -24,-252 -54,-356 -205,-708 -66,-155 -84,-222 -106,-400 -20,-162 -48,-480 -44,-500 2,-11 19,-2 66,36 35,28 64,49 66,47 1,-1 21,-29 45,-61 41,-57 42,-59 34,-110 l -8,-52 -40,57 c -22,32 -43,57 -47,55 -15,-4 -107,-81 -103,-85 2,-2 24,12 48,32 24,20 48,36 54,36 5,0 26,-24 46,-53 37,-54 46,-97 28,-141 -6,-16 -13,-12 -45,33 -41,55 -39,55 -102,4 -23,-18 -44,-33 -48,-33 -4,0 -5,46 -2,103 8,166 -2,83 -29,-248 -33,-389 -69,-763 -96,-970 -11,-88 -23,-182 -26,-208 l -6,-48 45,30 c 25,17 50,31 56,31 6,0 24,-19 41,-41 24,-33 29,-48 24,-73 -3,-17 -8,-33 -10,-35 -2,-3 -17,12 -34,32 l -30,37 -39,-25 c -22,-14 -42,-25 -44,-25 -3,0 -6,15 -8,32 -2,19 -11,-19 -22,-91 -21,-141 -21,-141 54,-140 l 45,2 -47,6 c -50,7 -63,14 -54,29 5,8 59,3 134,-13 31,-7 28,-23 -5,-28 l -28,-4 26,-2 c 15,0 31,5 36,12 12,14 107,713 99,730 -2,7 -5,0 -5,-15 -1,-37 -14,-35 -50,8 l -30,37 -43,-32 c -23,-17 -44,-28 -46,-23 -1,5 1,25 5,46 6,29 19,46 52,70 l 43,31 26,-30 c 15,-17 34,-41 42,-54 15,-22 17,-13 39,153 13,97 21,180 17,183 -3,4 -6,-7 -6,-23 0,-55 -14,-59 -49,-15 -18,23 -37,41 -42,41 -5,0 -27,-16 -49,-36 l -40,-36 v 45 c 0,42 4,49 52,92 l 52,47 21,-24 c 11,-13 30,-37 42,-53 12,-17 23,-28 26,-25 2,3 37,253 76,555 40,303 84,609 97,680 37,204 44,281 54,585 5,157 15,329 21,382 6,53 9,103 6,110 -3,7 -6,-3 -7,-22 -1,-19 -5,-44 -10,-55 -8,-19 -9,-19 -9,3 -1,13 4,77 10,142 6,65 9,129 7,142 -2,13 -11,-59 -21,-159 z M 1471,2459 c 31,-47 35,-60 31,-101 -2,-27 -8,-48 -13,-48 -4,0 -27,25 -49,55 -22,30 -43,55 -45,55 -2,0 -31,-23 -64,-50 l -61,-51 v 35 c 0,18 8,43 18,54 31,37 126,112 137,109 5,-2 26,-28 46,-58 z m -23,-122 c 39,-58 42,-67 36,-105 -4,-23 -9,-42 -13,-42 -3,0 -24,25 -45,55 -22,30 -42,55 -46,55 -3,0 -31,-23 -61,-51 l -54,-51 51,41 c 29,23 57,41 63,41 21,0 91,-117 90,-152 -1,-71 -12,-74 -53,-14 -21,31 -44,56 -50,56 -6,0 -36,-23 -66,-51 l -55,-51 60,46 c 38,29 63,42 70,36 6,-5 27,-33 47,-62 33,-48 36,-58 31,-100 -3,-27 -9,-48 -13,-48 -5,0 -25,23 -45,50 -20,28 -39,50 -42,50 -4,0 -30,-19 -60,-41 -29,-23 -56,-40 -59,-37 -10,10 26,333 39,345 35,33 113,93 122,93 5,0 29,-29 53,-63 z m -76,-628 37,-54 -15,-100 c -8,-55 -15,-104 -17,-109 -2,-5 -20,14 -41,43 l -38,51 -26,-20 c -15,-11 -39,-30 -54,-41 l -28,-20 v 43 c 0,50 6,60 72,112 l 46,37 32,-45 c 33,-49 54,-64 25,-18 -10,15 -25,37 -33,50 -8,12 -18,22 -22,22 -4,0 -30,-18 -59,-41 l -51,-41 v 44 c 0,24 6,52 13,61 20,26 101,87 112,84 6,-2 27,-28 47,-58 z m -37,-236 c 26,-36 35,-58 35,-89 0,-22 -3,-44 -6,-47 -4,-4 -24,16 -45,44 l -37,50 -34,-28 c -71,-61 -68,-60 -68,-11 0,43 3,48 53,86 28,23 55,42 59,42 4,0 23,-21 43,-47 z m -39,-80 c 60,-78 65,-90 58,-132 -4,-22 -10,-41 -14,-41 -4,0 -20,18 -35,40 -15,22 -32,40 -37,40 -6,0 -27,-13 -48,-30 -21,-16 -41,-30 -44,-30 -3,0 -6,18 -6,40 0,41 5,47 80,109 31,25 30,25 46,4 z m -4,-270 c 33,-44 36,-52 31,-95 -3,-27 -7,-48 -10,-48 -2,0 -17,16 -34,35 -17,19 -36,35 -42,35 -5,0 -25,-11 -43,-25 -18,-14 -35,-25 -38,-25 -3,0 -6,20 -6,44 0,40 4,48 48,85 26,22 49,40 52,41 3,0 22,-21 42,-47 z m -7,-134 c 22,-31 26,-46 22,-75 -3,-20 -9,-39 -12,-43 -3,-3 -21,12 -38,32 l -32,38 -42,-30 -43,-31 v 47 c 0,46 2,50 46,80 25,17 52,29 59,27 7,-3 26,-23 40,-45 z m -36,-216 c 31,-37 40,-83 22,-111 -6,-10 -15,-4 -35,22 -31,41 -43,44 -79,16 -37,-30 -51,-26 -43,13 6,32 67,97 92,97 7,0 26,-17 43,-37 z m 6,-133 c 7,-14 10,-40 7,-59 l -5,-35 -36,42 -36,43 -37,-26 c -45,-30 -48,-31 -48,-4 0,31 17,56 57,84 l 37,25 24,-23 c 13,-12 30,-33 37,-47 z m -33,-71 c 25,-31 32,-48 29,-72 -5,-50 -11,-52 -47,-13 l -34,37 -37,-26 c -38,-25 -38,-25 -41,-4 -6,39 8,68 45,94 21,14 41,25 45,25 4,0 22,-18 40,-41 z m -13,-106 c 30,-37 37,-65 25,-98 -6,-14 -12,-11 -41,17 l -34,33 -40,-23 c -23,-13 -43,-21 -46,-18 -14,14 19,82 49,103 45,30 52,29 87,-14 z m -30,-198 c 21,-25 31,-46 31,-69 0,-49 -11,-51 -46,-9 l -31,37 -43,-28 c -23,-15 -44,-26 -46,-23 -2,2 -1,18 2,36 5,23 19,42 47,62 22,16 43,29 47,29 5,0 22,-16 39,-35 z m 21,-148 c 0,-10 -110,-4 -143,8 -26,11 -21,21 26,54 l 42,30 38,-41 c 20,-22 37,-45 37,-51 z"
     inkscape:connector-curvature="0" /></g></svg>