<?xml version="1.0" encoding="UTF-8" standalone="no"?>
<!-- Generator: Adobe Illustrator 19.0.0, SVG Export Plug-In . SVG Version: 6.00 Build 0)  -->

<svg
   xmlns:dc="http://purl.org/dc/elements/1.1/"
   xmlns:cc="http://creativecommons.org/ns#"
   xmlns:rdf="http://www.w3.org/1999/02/22-rdf-syntax-ns#"
   xmlns:svg="http://www.w3.org/2000/svg"
   xmlns="http://www.w3.org/2000/svg"
   xmlns:sodipodi="http://sodipodi.sourceforge.net/DTD/sodipodi-0.dtd"
   xmlns:inkscape="http://www.inkscape.org/namespaces/inkscape"
   version="1.1"
   id="Layer_1"
   x="0px"
   y="0px"
   viewBox="0 0 548.48566 492.47458"
   xml:space="preserve"
   sodipodi:docname="character3.svg"
   inkscape:version="0.92.5 (2060ec1f9f, 2020-04-08)"
   width="548.48566"
   height="492.47458"><metadata
   id="metadata55"><rdf:RDF><cc:Work
       rdf:about=""><dc:format>image/svg+xml</dc:format><dc:type
         rdf:resource="http://purl.org/dc/dcmitype/StillImage" /><dc:title></dc:title></cc:Work></rdf:RDF></metadata><defs
   id="defs53" /><sodipodi:namedview
   pagecolor="#ffffff"
   bordercolor="#666666"
   borderopacity="1"
   objecttolerance="10"
   gridtolerance="10"
   guidetolerance="10"
   inkscape:pageopacity="0"
   inkscape:pageshadow="2"
   inkscape:window-width="1848"
   inkscape:window-height="1017"
   id="namedview51"
   showgrid="false"
   inkscape:zoom="0.921875"
   inkscape:cx="194.97227"
   inkscape:cy="311.93153"
   inkscape:window-x="72"
   inkscape:window-y="27"
   inkscape:window-maximized="1"
   inkscape:current-layer="Layer_1" />







<g
   id="g20"
   transform="translate(-4.3389893,-7.5932312)">
</g>
<g
   id="g22"
   transform="translate(-4.3389893,-7.5932312)">
</g>
<g
   id="g24"
   transform="translate(-4.3389893,-7.5932312)">
</g>
<g
   id="g26"
   transform="translate(-4.3389893,-7.5932312)">
</g>
<g
   id="g28"
   transform="translate(-4.3389893,-7.5932312)">
</g>
<g
   id="g30"
   transform="translate(-4.3389893,-7.5932312)">
</g>
<g
   id="g32"
   transform="translate(-4.3389893,-7.5932312)">
</g>
<g
   id="g34"
   transform="translate(-4.3389893,-7.5932312)">
</g>
<g
   id="g36"
   transform="translate(-4.3389893,-7.5932312)">
</g>
<g
   id="g38"
   transform="translate(-4.3389893,-7.5932312)">
</g>
<g
   id="g40"
   transform="translate(-4.3389893,-7.5932312)">
</g>
<g
   id="g42"
   transform="translate(-4.3389893,-7.5932312)">
</g>
<g
   id="g44"
   transform="translate(-4.3389893,-7.5932312)">
</g>
<g
   id="g46"
   transform="translate(-4.3389893,-7.5932312)">
</g>
<g
   id="g48"
   transform="translate(-4.3389893,-7.5932312)">
</g>
<circle
   style="fill:#9fa8da;fill-opacity:1;stroke:none;stroke-opacity:1"
   id="path862"
   cx="246.23729"
   cy="246.23729"
   r="246.23729" /><g
   id="g1146"
   transform="matrix(0.03427656,0,0,-0.03427656,166.95328,469.17865)"
   style="fill:#000000;stroke:none"><path
     id="path1142"
     d="m 8690,12780 c -239,-51 -365,-131 -676,-432 -125,-120 -185,-172 -225,-190 -85,-40 -252,-78 -369,-85 -172,-9 -287,19 -531,133 -255,119 -383,154 -559,154 -182,0 -350,-44 -555,-145 -429,-212 -749,-641 -856,-1148 -45,-208 -28,-386 66,-717 60,-208 145,-342 355,-563 118,-124 247,-219 410,-303 41,-22 77,-41 80,-42 8,-6 -108,-110 -142,-128 -24,-12 -32,-13 -38,-4 -11,18 -89,4 -115,-20 -11,-10 -81,-49 -155,-87 -74,-37 -175,-94 -223,-126 -48,-31 -94,-57 -102,-57 -35,0 -359,-141 -559,-243 -241,-123 -256,-129 -426,-181 -106,-32 -328,-108 -544,-185 -49,-18 -126,-37 -170,-43 -356,-46 -800,-120 -991,-165 -163,-38 -183,-41 -395,-68 -107,-13 -238,-34 -290,-47 -78,-18 -124,-22 -255,-22 -177,0 -156,-4 -480,108 -320,111 -539,114 -522,8 9,-50 -23,-80 -103,-99 -85,-19 -94,-27 -74,-65 27,-51 91,-73 209,-69 205,6 231,6 263,-8 64,-27 49,-92 -26,-106 -48,-9 -88,-33 -101,-61 -20,-44 2,-49 243,-49 189,0 238,-4 341,-24 171,-33 252,-27 415,28 76,26 149,45 185,47 256,15 371,15 605,0 445,-27 482,-28 631,-17 168,13 287,39 524,111 94,29 247,72 340,95 94,24 243,67 333,97 117,39 161,49 157,38 -4,-8 -38,-71 -77,-140 -121,-215 -273,-430 -336,-478 -20,-15 -86,-74 -147,-132 -231,-219 -526,-433 -691,-500 -217,-88 -395,-221 -612,-455 -120,-130 -217,-254 -306,-390 -201,-306 -412,-484 -686,-577 -171,-58 -296,-78 -542,-87 l -178,-6 82,-60 c 45,-33 163,-139 263,-236 117,-115 198,-185 230,-202 128,-64 309,-93 511,-82 l 121,7 74,-74 c 82,-81 178,-138 311,-182 170,-57 275,-67 417,-41 l 82,16 52,-57 c 29,-32 52,-62 52,-68 0,-6 -6,-64 -14,-129 -16,-138 -11,-506 9,-630 7,-43 11,-79 9,-81 -2,-2 -53,-9 -114,-15 -359,-38 -562,-100 -745,-229 -36,-25 -140,-120 -231,-211 C 1664,2827 1588,2721 1240,2145 1036,1808 892,1584 815,1487 753,1409 713,1393 539,1375 308,1352 305,1348 224,1005 200,901 150,703 114,565 3,147 -15,49 10,10 18,-2 24,0 51,25 c 61,58 221,278 446,615 72,107 173,245 225,305 52,61 263,279 469,486 389,392 537,524 954,854 110,87 277,219 370,294 225,181 266,209 495,341 225,129 271,161 337,234 26,29 183,267 348,529 218,347 306,478 323,483 35,10 64,-17 120,-111 64,-107 138,-205 243,-325 136,-153 285,-269 488,-378 l 93,-50 -174,-4 c -149,-5 -185,-9 -263,-32 -114,-34 -298,-123 -455,-220 -218,-135 -338,-238 -820,-701 -308,-296 -420,-399 -528,-483 -51,-40 -57,-42 -123,-42 -38,0 -111,9 -162,21 -53,12 -110,19 -135,16 -86,-9 -144,-99 -202,-307 -46,-169 -73,-212 -237,-383 -157,-163 -212,-243 -239,-350 -18,-74 -15,-97 16,-97 59,0 268,155 635,473 149,130 193,158 805,524 262,157 624,344 920,476 705,315 931,407 1116,456 211,57 389,137 529,240 28,20 83,58 123,85 40,26 76,56 82,66 34,63 31,176 -7,295 -34,110 -398,767 -560,1015 -73,111 -93,148 -85,160 11,18 -37,133 -326,786 -105,237 -200,463 -211,503 -28,99 -44,260 -36,356 17,226 43,330 126,507 33,71 87,194 119,275 33,80 71,161 86,180 33,43 158,144 284,228 139,93 268,152 370,170 142,24 215,51 452,167 l 227,111 297,-223 c 163,-123 358,-265 433,-314 148,-99 324,-191 382,-201 33,-6 42,-3 77,30 72,64 178,232 369,580 33,61 90,162 125,225 36,63 118,216 183,340 158,303 234,441 254,464 20,23 94,61 146,75 60,15 253,31 515,41 129,5 264,13 300,19 145,23 221,62 200,100 -14,27 -51,33 -106,16 -74,-22 -232,-16 -509,19 l -90,12 87,13 c 96,14 112,28 80,71 -24,31 -89,38 -208,20 -69,-11 -89,-10 -146,4 -36,9 -98,17 -137,18 -60,1 -80,-3 -134,-30 -107,-53 -191,-132 -287,-272 -185,-270 -401,-542 -560,-705 -85,-88 -171,-182 -190,-208 -19,-27 -48,-56 -63,-64 -27,-13 -33,-13 -80,11 -70,34 -239,187 -563,511 -360,358 -438,465 -438,595 0,79 28,140 104,223 47,52 53,55 78,46 60,-23 262,-70 410,-95 115,-20 194,-27 297,-28 139,-1 140,-1 200,31 33,17 110,69 172,115 175,130 480,291 696,367 314,110 588,90 715,-54 62,-71 75,-151 35,-229 -9,-18 -11,-32 -5,-38 24,-24 92,119 92,196 0,89 -100,186 -239,231 -30,10 -100,20 -155,24 -80,5 -101,9 -101,21 0,32 124,72 310,101 39,5 210,14 380,18 266,7 319,11 370,28 53,17 145,66 145,77 0,2 -26,-3 -57,-11 -85,-23 -210,-19 -323,10 -52,13 -198,58 -325,100 -344,112 -501,139 -675,114 l -55,-8 34,30 c 46,41 293,161 420,205 162,57 285,78 441,79 241,1 428,-57 640,-198 44,-30 156,-130 275,-245 110,-108 229,-215 265,-238 79,-52 156,-76 210,-67 53,9 52,31 -2,45 -79,19 -126,48 -162,97 -88,121 -104,299 -47,515 31,120 96,305 112,322 5,6 40,-22 86,-71 66,-69 86,-83 132,-97 76,-22 119,-20 177,9 55,27 139,105 183,169 31,45 56,109 66,171 l 6,40 -30,-35 c -17,-19 -52,-64 -78,-100 -59,-80 -129,-120 -226,-127 -118,-10 -138,24 -198,335 -108,556 -149,676 -279,803 -54,54 -90,77 -191,127 -206,102 -370,132 -607,112 -228,-20 -340,-39 -907,-160 -426,-91 -578,-118 -725,-130 -110,-9 -256,2 -293,21 -20,11 -20,12 -1,22 10,6 66,30 124,54 189,78 347,182 595,390 173,146 295,238 353,267 69,35 238,92 329,111 58,13 105,15 183,11 106,-7 144,0 118,21 -7,6 -32,13 -54,16 -23,2 -83,23 -133,46 -167,75 -258,86 -421,51 z m 325,-31 c 112,-34 102,-43 -108,-88 -171,-37 -240,-59 -316,-102 -30,-18 -198,-129 -372,-248 -314,-216 -468,-305 -544,-317 -35,-5 -28,0 50,40 131,67 202,125 375,306 214,225 355,331 525,395 128,49 263,54 390,14 z m 831,-905 c 172,-49 288,-119 406,-242 117,-123 171,-248 194,-451 10,-91 -10,-78 -58,38 -139,335 -391,551 -674,577 -139,13 -473,-57 -679,-142 -60,-25 -119,-48 -130,-52 -68,-20 111,101 263,177 137,69 266,110 392,125 68,8 206,-6 286,-30 z"
     inkscape:connector-curvature="0" /><path
     id="path1144"
     d="m 10716,9834 c -39,-47 -42,-72 -5,-38 22,20 53,73 47,80 -2,2 -21,-17 -42,-42 z"
     inkscape:connector-curvature="0" /></g></svg>