<svg xmlns="http://www.w3.org/2000/svg" xmlns:xlink="http://www.w3.org/1999/xlink" width="620.255" height="360.243" xmlns:v="https://vecta.io/nano"><style><![CDATA[.B{stroke-linejoin:round}.C{stroke-miterlimit:10}.D{stroke-linecap:round}.E{fill:none}.F{fill:#fff}.G{stroke-width:2}.H{fill:#94dee8}]]></style><defs><clipPath id="A"><path d="M206.78 435.53C202.84 383 290.34 382 315.12 341.75h0c28.1-45.63-.04-125.25 84.72-130.8h0c98.692-6.45 108.87-45.6 108.87-45.6h0c26.44 53.57 78.56 2.65 107.8 67.62h0c21.5 47.78 55.33 48 55.33 48h0v148c0 3.62-2.93 6.56-6.55 6.56h0z"/></clipPath><linearGradient x1="0" y1="0" x2="1" y2="0" gradientTransform="matrix(34.498409,-233.99011,-233.99011,-34.498409,433.63382,467.36066)" spreadMethod="pad" id="B" xlink:href="#Cl"><stop offset="0" stop-color="#17013f"/><stop offset="1" stop-color="#270668"/></linearGradient><clipPath id="C"><path d="M453.12 235.878c0-15.538 12.596-28.134 28.133-28.134h0c15.538 0 28.134 12.596 28.134 28.134h0c0 15.537-12.596 28.132-28.134 28.132h0c-15.537 0-28.133-12.595-28.133-28.132"/></clipPath><linearGradient x1="0" y1="0" x2="1" y2="0" gradientTransform="matrix(0,-132.7121,-132.7121,0,481.25308,311.00006)" spreadMethod="pad" id="D" xlink:href="#Cl"><stop offset="0" stop-color="#56e7d6"/><stop offset="1" stop-color="#0060cc"/></linearGradient><clipPath id="E"><path d="M338.092 255.063c5.935-18.054 16.3-33.024 38.693-40.07h0c3.712 4.767 5.922 10.76 5.922 17.268h0c0 15.538-12.596 28.133-28.133 28.133h0a28.01 28.01 0 0 1-16.482-5.33"/></clipPath><linearGradient x1="0" y1="0" x2="1" y2="0" gradientTransform="matrix(0,-132.71219,-132.71219,0,354.57373,310.99994)" spreadMethod="pad" id="F" xlink:href="#Cl"><stop offset="0" stop-color="#56e7d6"/><stop offset="1" stop-color="#0060cc"/></linearGradient><clipPath id="G"><path d="M480.802 197.968c0-2.12.217-4.19.63-6.2h0c17.812-9.465 24.26-19.646 26.363-24.1h0a31.22 31.22 0 0 1 2.021-.164h0c8.513 15.908 19.49 21.843 31.422 24.594h0a30.61 30.61 0 0 1 .565 5.87h0c0 16.846-13.656 30.5-30.5 30.5h0c-16.845 0-30.5-13.654-30.5-30.5"/></clipPath><linearGradient x1="0" y1="0" x2="1" y2="0" gradientTransform="matrix(0,-132.71208,-132.71208,0,511.30234,310.99997)" spreadMethod="pad" id="H" xlink:href="#Cl"><stop offset="0" stop-color="#56e7d6"/><stop offset="1" stop-color="#0060cc"/></linearGradient><clipPath id="I"><path d="M356.753 251.7c0-16.846 13.656-30.5 30.5-30.5h0c16.844 0 30.5 13.655 30.5 30.5h0c0 16.844-13.655 30.5-30.5 30.5h0c-16.844 0-30.5-13.655-30.5-30.5"/></clipPath><linearGradient x1="0" y1="0" x2="1" y2="0" gradientTransform="matrix(0,-132.71208,-132.71208,0,387.25272,311)" spreadMethod="pad" id="J" xlink:href="#Cl"><stop offset="0" stop-color="#56e7d6"/><stop offset="1" stop-color="#0060cc"/></linearGradient><clipPath id="K"><path d="M329.797 294.396c3.558-20.917 6.36-42.05 17.082-57.852h0c14.88 2.027 26.344 14.785 26.344 30.22h0c0 16.844-13.656 30.5-30.5 30.5h0a30.37 30.37 0 0 1-12.926-2.867"/></clipPath><linearGradient x1="0" y1="0" x2="1" y2="0" gradientTransform="matrix(0,-132.71208,-132.71208,0,342.72293,311.00003)" spreadMethod="pad" id="L" xlink:href="#Cl"><stop offset="0" stop-color="#56e7d6"/><stop offset="1" stop-color="#0060cc"/></linearGradient><clipPath id="M"><path d="M630.232 278.76a30.36 30.36 0 0 1 5.125-16.927h0c18.218 19.017 36.485 19.134 36.485 19.134h0v26.205c-3.443 1.348-7.2 2.087-11.1 2.087h0c-16.844 0-30.5-13.655-30.5-30.5"/></clipPath><linearGradient x1="0" y1="0" x2="1" y2="0" gradientTransform="matrix(0,-132.71208,-132.71208,0,660.73224,310.99997)" spreadMethod="pad" id="N" xlink:href="#Cl"><stop offset="0" stop-color="#56e7d6"/><stop offset="1" stop-color="#0060cc"/></linearGradient><clipPath id="O"><path d="M580.682 259.237c0-11.84 9.598-21.438 21.438-21.438h0c11.84 0 21.44 9.598 21.44 21.438h0c0 11.84-9.6 21.44-21.44 21.44h0c-11.84 0-21.438-9.6-21.438-21.44"/></clipPath><linearGradient x1="0" y1="0" x2="1" y2="0" gradientTransform="matrix(0,-132.71222,-132.71222,0,602.12054,310.99997)" spreadMethod="pad" id="P" xlink:href="#Cl"><stop offset="0" stop-color="#56e7d6"/><stop offset="1" stop-color="#0060cc"/></linearGradient><clipPath id="Q"><path d="M430.952 242.563a20.41 20.41 0 0 1 20.406-20.408h0c11.27 0 20.408 9.136 20.408 20.408h0c0 11.27-9.137 20.407-20.408 20.407h0a20.41 20.41 0 0 1-20.406-20.407"/></clipPath><linearGradient x1="0" y1="0" x2="1" y2="0" gradientTransform="matrix(0,-132.71194,-132.71194,0,451.35858,311.00012)" spreadMethod="pad" id="R" xlink:href="#Cl"><stop offset="0" stop-color="#56e7d6"/><stop offset="1" stop-color="#0060cc"/></linearGradient><clipPath id="S"><path d="M538.57 237.82c0-11.612 9.415-21.026 21.027-21.026h0a21.03 21.03 0 0 1 21.027 21.026h0a21.03 21.03 0 0 1-21.027 21.027h0c-11.612 0-21.027-9.414-21.027-21.027"/></clipPath><linearGradient x1="0" y1="0" x2="1" y2="0" gradientTransform="matrix(0,-132.71243,-132.71243,0,559.59705,310.99991)" spreadMethod="pad" id="T" xlink:href="#Cl"><stop offset="0" stop-color="#56e7d6"/><stop offset="1" stop-color="#0060cc"/></linearGradient><clipPath id="U"><path d="M390.595 248.478c0-11.61 9.414-21.026 21.026-21.026h0c11.613 0 21.027 9.415 21.027 21.026h0a21.03 21.03 0 0 1-21.027 21.027h0a21.03 21.03 0 0 1-21.026-21.027"/></clipPath><linearGradient x1="0" y1="0" x2="1" y2="0" gradientTransform="matrix(0,-132.71213,-132.71213,0,411.62134,310.99997)" spreadMethod="pad" id="V" xlink:href="#Cl"><stop offset="0" stop-color="#56e7d6"/><stop offset="1" stop-color="#0060cc"/></linearGradient><clipPath id="W"><path d="M416.594 242.563c0-8.047 6.522-14.57 14.57-14.57h0c8.046 0 14.57 6.523 14.57 14.57h0c0 8.046-6.523 14.57-14.57 14.57h0a14.57 14.57 0 0 1-14.569-14.569"/></clipPath><linearGradient x1="0" y1="0" x2="1" y2="0" gradientTransform="matrix(0,-132.71208,-132.71208,0,431.1629,310.99991)" spreadMethod="pad" id="X" xlink:href="#Cl"><stop offset="0" stop-color="#56e7d6"/><stop offset="1" stop-color="#0060cc"/></linearGradient><clipPath id="Y"><path d="M568.17 240.587a14.57 14.57 0 0 1 14.569-14.569h0c8.046 0 14.57 6.523 14.57 14.57h0a14.57 14.57 0 0 1-14.569 14.569h0a14.57 14.57 0 0 1-14.569-14.569"/></clipPath><linearGradient x1="0" y1="0" x2="1" y2="0" gradientTransform="matrix(0,-132.71208,-132.71208,0,582.73999,311.00003)" spreadMethod="pad" id="Z" xlink:href="#Cl"><stop offset="0" stop-color="#56e7d6"/><stop offset="1" stop-color="#0060cc"/></linearGradient><clipPath id="a"><path d="M608.04 250.158c0-6.954 3.376-13.12 8.578-16.947h0c7.376 16.308 16.2 27.046 24.587 34.118h0a20.92 20.92 0 0 1-12.137 3.855h0c-11.613 0-21.028-9.414-21.028-21.026"/></clipPath><linearGradient x1="0" y1="0" x2="1" y2="0" gradientTransform="matrix(0,-132.71213,-132.71213,0,629.06732,310.99991)" spreadMethod="pad" id="b" xlink:href="#Cl"><stop offset="0" stop-color="#56e7d6"/><stop offset="1" stop-color="#0060cc"/></linearGradient><clipPath id="c"><path d="M498.918 224.597c0-12.926 10.478-23.405 23.403-23.405h0a23.41 23.41 0 0 1 23.405 23.405h0c0 12.926-10.48 23.404-23.405 23.404h0c-12.925 0-23.403-10.478-23.403-23.404"/></clipPath><linearGradient x1="0" y1="0" x2="1" y2="0" gradientTransform="matrix(0,-132.7121,-132.7121,0,522.32153,310.99991)" spreadMethod="pad" id="d" xlink:href="#Cl"><stop offset="0" stop-color="#56e7d6"/><stop offset="1" stop-color="#0060cc"/></linearGradient><clipPath id="e"><path d="M495.643 207.104c0-13.633 9.052-25.153 21.474-28.877h0c10.235 11.665 22.756 14.27 35.812 15.756h0c1.922 3.967 2.998 8.418 2.998 13.12h0c0 16.648-13.495 30.143-30.142 30.143h0c-16.647 0-30.142-13.495-30.142-30.143"/></clipPath><linearGradient x1="525.937" y1="255.126" x2="525.603" y2="149.793" spreadMethod="pad" id="f" xlink:href="#Cl"><stop offset="0" stop-color="#56e7d6"/><stop offset="1" stop-color="#0060cc"/></linearGradient><clipPath id="g"><path d="M468.334 197.705c35.518-13.68 40.373-32.356 40.373-32.356h0c3.87 7.837 8.286 13.436 13.102 17.5h0c-1.915 14.8-14.568 26.235-29.89 26.235h0c-9.55 0-18.06-4.44-23.584-11.37"/></clipPath><linearGradient x1="492.159" y1="255.233" x2="491.826" y2="149.9" spreadMethod="pad" id="h" xlink:href="#Cl"><stop offset="0" stop-color="#56e7d6"/><stop offset="1" stop-color="#0060cc"/></linearGradient><clipPath id="i"><path d="M395.222 223.058c0-4.303 1.013-8.37 2.812-11.973h0l1.808-.13c16.474-1.078 30.48-3.066 42.385-5.63h0c4.165 4.73 6.69 10.937 6.69 17.735h0c0 14.827-12.02 26.848-26.848 26.848h0c-14.827 0-26.848-12.02-26.848-26.848"/></clipPath><linearGradient x1="422.173" y1="255.455" x2="421.839" y2="150.122" spreadMethod="pad" id="j" xlink:href="#Cl"><stop offset="0" stop-color="#56e7d6"/><stop offset="1" stop-color="#0060cc"/></linearGradient><clipPath id="k"><path d="M535.2 220.534c0-11.138 9.03-20.17 20.168-20.17h0c11.14 0 20.168 9.03 20.168 20.17h0a20.17 20.17 0 0 1-20.168 20.168h0a20.17 20.17 0 0 1-20.168-20.168"/></clipPath><linearGradient x1="555.476" y1="255.033" x2="555.143" y2="149.7" spreadMethod="pad" id="l" xlink:href="#Cl"><stop offset="0" stop-color="#56e7d6"/><stop offset="1" stop-color="#0060cc"/></linearGradient><clipPath id="m"><path d="M422.07 210.07l.04-1.288c15.654-2.08 28.505-5.072 39.06-8.53h0a20.69 20.69 0 0 1 2.461 9.818h0c0 11.478-9.303 20.782-20.78 20.782h0c-11.476 0-20.78-9.304-20.78-20.782"/></clipPath><linearGradient x1="442.994" y1="255.389" x2="442.661" y2="150.055" spreadMethod="pad" id="n" xlink:href="#Cl"><stop offset="0" stop-color="#56e7d6"/><stop offset="1" stop-color="#0060cc"/></linearGradient><clipPath id="o"><path d="M561.964 212.592c0-6.798 3.263-12.834 8.3-16.625h0c11.67 1.802 23.157 5.458 33.25 16.47h0l.001.154c0 11.476-9.305 20.78-20.78 20.78h0c-11.477 0-20.78-9.304-20.78-20.78"/></clipPath><linearGradient x1="582.879" y1="254.946" x2="582.546" y2="149.613" spreadMethod="pad" id="p" xlink:href="#Cl"><stop offset="0" stop-color="#56e7d6"/><stop offset="1" stop-color="#0060cc"/></linearGradient><clipPath id="q"><path d="M359.5 227.494c0-1.444.107-2.862.314-4.25h0c9.41-6.698 22.228-11.127 40.03-12.29h0c3.692-.242 7.253-.528 10.702-.858h0a28.37 28.37 0 0 1 5.927 17.398h0c0 15.733-12.754 28.486-28.485 28.486h0c-15.733 0-28.487-12.753-28.487-28.486"/></clipPath><linearGradient x1="388.074" y1="255.563" x2="387.741" y2="150.229" spreadMethod="pad" id="r" xlink:href="#Cl"><stop offset="0" stop-color="#56e7d6"/><stop offset="1" stop-color="#0060cc"/></linearGradient><clipPath id="s"><path d="M606.856 220.534a20.98 20.98 0 0 1 .326-3.691h0c3.303 4.38 6.43 9.686 9.33 16.13h0c1.076 2.39 2.184 4.665 3.316 6.824h0c-7.607-3.087-12.97-10.548-12.97-19.263"/></clipPath><linearGradient x1="627.744" y1="254.804" x2="627.411" y2="149.471" spreadMethod="pad" id="t" xlink:href="#Cl"><stop offset="0" stop-color="#56e7d6"/><stop offset="1" stop-color="#0060cc"/></linearGradient><clipPath id="u"><path d="M583.703 229.143c0-9.912 6.938-18.202 16.22-20.28h0c6.03 5.427 11.635 13.105 16.587 24.1h0c1.422 3.16 2.9 6.117 4.417 8.876h0c-3.8 4.91-9.753 8.074-16.445 8.074h0c-11.477 0-20.78-9.304-20.78-20.78"/></clipPath><linearGradient x1="604.565" y1="254.878" x2="604.232" y2="149.544" spreadMethod="pad" id="v" xlink:href="#Cl"><stop offset="0" stop-color="#56e7d6"/><stop offset="1" stop-color="#0060cc"/></linearGradient><clipPath id="w"><path d="M343.302 242.54c5.22-9.956 12.787-18.318 24.44-23.98h0c3.748 3.155 6.13 7.88 6.13 13.163h0a17.2 17.2 0 0 1-17.198 17.198h0c-5.4 0-10.22-2.49-13.372-6.382"/></clipPath><linearGradient x1="356.75" y1="255.662" x2="356.416" y2="150.328" spreadMethod="pad" id="x" xlink:href="#Cl"><stop offset="0" stop-color="#56e7d6"/><stop offset="1" stop-color="#0060cc"/></linearGradient><clipPath id="y"><path d="M452.3 205.923a23.3 23.3 0 0 1 .205-3.088h0c16.517-4.47 28.26-10.08 36.573-15.6h0c5.75 4.208 9.483 11.007 9.483 18.678h0c0 12.774-10.355 23.13-23.13 23.13h0c-12.774 0-23.13-10.356-23.13-23.13"/></clipPath><linearGradient x1="475.586" y1="255.286" x2="475.253" y2="149.952" spreadMethod="pad" id="z" xlink:href="#Cl"><stop offset="0" stop-color="#56e7d6"/><stop offset="1" stop-color="#0060cc"/></linearGradient><clipPath id="AA"><path d="M535.2 195.603a20.24 20.24 0 0 1 .629-5.017h0c12.467 4.172 26.306 3.473 39.664 6.332h0c-.677 10.526-9.428 18.854-20.125 18.854h0c-11.14 0-20.168-9.03-20.168-20.17"/></clipPath><linearGradient x1="555.367" y1="224.5" x2="555.367" y2="125.468" spreadMethod="pad" id="AB" xlink:href="#Cl"><stop offset="0" stop-color="#56e7d6"/><stop offset="1" stop-color="#0060cc"/></linearGradient><clipPath id="AC"><path d="M479.56 192.748c25.36-12.83 29.147-27.4 29.147-27.4h0c6.223 12.604 13.866 19.423 22.3 23.33h0c-4.44 10.403-14.763 17.696-26.79 17.696h0c-10.387 0-19.504-5.44-24.657-13.626"/></clipPath><linearGradient x1="504.217" y1="224.5" x2="504.217" y2="125.469" spreadMethod="pad" id="AD" xlink:href="#Cl"><stop offset="0" stop-color="#56e7d6"/><stop offset="1" stop-color="#0060cc"/></linearGradient><clipPath id="AE"><path d="M563.324 195.07c10.694 1.174 21.435 2.986 31.3 9.644h0c-3.367 2.35-7.462 3.728-11.88 3.728h0c-8.866 0-16.436-5.554-19.42-13.372"/></clipPath><linearGradient x1="582.745" y1="224.5" x2="582.745" y2="125.468" spreadMethod="pad" id="AF" xlink:href="#Cl"><stop offset="0" stop-color="#56e7d6"/><stop offset="1" stop-color="#0060cc"/></linearGradient><clipPath id="AG"><path d="M508.75 181.673c0-3.945 1.1-7.633 3.008-10.775h0c9.584 15.62 21.91 20.2 35.085 22.274h0c-3.724 5.594-10.088 9.28-17.312 9.28h0c-11.477 0-20.78-9.304-20.78-20.78"/></clipPath><linearGradient x1="529.532" y1="224.5" x2="529.532" y2="125.469" spreadMethod="pad" id="AH" xlink:href="#Cl"><stop offset="0" stop-color="#56e7d6"/><stop offset="1" stop-color="#0060cc"/></linearGradient><clipPath id="AI"><path d="M411.238 210.03c13.18-1.285 24.607-3.188 34.496-5.492h0c-.174 9.645-8.048 17.412-17.735 17.412h0c-7.758 0-14.353-4.98-16.76-11.92"/></clipPath><linearGradient x1="427.999" y1="224.5" x2="427.999" y2="125.469" spreadMethod="pad" id="AJ" xlink:href="#Cl"><stop offset="0" stop-color="#56e7d6"/><stop offset="1" stop-color="#0060cc"/></linearGradient><clipPath id="AK"><path d="M364.928 220.024c7.444-4.133 16.695-7.07 28.295-8.462h0c-2.22 7.265-8.976 12.55-16.967 12.55h0c-4.307 0-8.255-1.535-11.328-4.088"/></clipPath><linearGradient x1="376.256" y1="224.5" x2="376.256" y2="125.469" spreadMethod="pad" id="AL" xlink:href="#Cl"><stop offset="0" stop-color="#56e7d6"/><stop offset="1" stop-color="#0060cc"/></linearGradient><clipPath id="AM"><path d="M206.78 435.526C202.842 383 290.342 382 315.122 341.75c28.097-45.636-.04-125.254 84.72-130.797 98.687-6.454 108.865-45.605 108.865-45.605 26.447 53.57 78.566 2.648 107.804 67.624 21.497 47.776 55.33 47.994 55.33 47.994v154.56z"/></clipPath><clipPath id="AN"><path d="M606.855 195.604c0-11.477 9.304-20.78 20.78-20.78s20.78 9.304 20.78 20.78-9.304 20.78-20.78 20.78-20.78-9.305-20.78-20.78"/></clipPath><linearGradient x1="627.636" y1="224.5" x2="627.636" y2="125.468" spreadMethod="pad" id="AO" xlink:href="#Cl"><stop offset="0" stop-color="#56e7d6"/><stop offset="1" stop-color="#0060cc"/></linearGradient><clipPath id="AP"><path d="M583.703 204.212c0-1.648.192-3.25.554-4.787h0c9.954 3.692 19.39 10.537 27.482 24.266h0c-2.26.842-4.704 1.302-7.256 1.302h0c-11.477 0-20.78-9.304-20.78-20.78"/></clipPath><linearGradient x1="604.484" y1="224.5" x2="604.484" y2="125.468" spreadMethod="pad" id="AQ" xlink:href="#Cl"><stop offset="0" stop-color="#56e7d6"/><stop offset="1" stop-color="#0060cc"/></linearGradient><clipPath id="AR"><path d="M385.38 214.214l.048-1.42c4.403-.878 9.193-1.5 14.413-1.84h0c9.547-.625 18.264-1.555 26.226-2.726h0a20.79 20.79 0 0 1 .875 5.986h0c0 11.477-9.304 20.78-20.78 20.78h0c-11.477 0-20.78-9.304-20.78-20.78"/></clipPath><linearGradient x1="406.162" y1="224.5" x2="406.162" y2="125.469" spreadMethod="pad" id="AS" xlink:href="#Cl"><stop offset="0" stop-color="#56e7d6"/><stop offset="1" stop-color="#0060cc"/></linearGradient><clipPath id="AT"><path d="M206.78 435.526C202.842 383 290.342 382 315.122 341.75h0c28.097-45.636-.04-125.254 84.72-130.797h0c98.687-6.454 108.865-45.605 108.865-45.605h0c26.447 53.57 78.566 2.648 107.804 67.624h0c21.497 47.776 55.33 47.994 55.33 47.994h0v154.56z"/></clipPath><clipPath id="AU"><path d="M0 500h750V0H0z"/></clipPath><clipPath id="AV"><path d="M350.48 220h298.335v-53.68H350.48z"/></clipPath><linearGradient x1="80.483" y1="653.133" x2="78.672" y2="664.297" spreadMethod="pad" id="AW" xlink:href="#Cl"><stop offset="0" stop-color="#17013f"/><stop offset="1" stop-color="#270668"/></linearGradient><linearGradient x1="-149.193" y1="672.071" x2="-151.004" y2="683.235" spreadMethod="pad" id="AX" xlink:href="#Cl"><stop offset="0" stop-color="#17013f"/><stop offset="1" stop-color="#270668"/></linearGradient><linearGradient x1="95.664" y1="636.122" x2="94.211" y2="645.079" spreadMethod="pad" id="AY" xlink:href="#Cl"><stop offset="0" stop-color="#17013f"/><stop offset="1" stop-color="#270668"/></linearGradient><linearGradient x1="99.417" y1="641.327" x2="90.459" y2="639.874" spreadMethod="pad" id="AZ" xlink:href="#Cl"><stop offset="0" stop-color="#17013f"/><stop offset="1" stop-color="#270668"/></linearGradient><linearGradient x1="-172.46" y1="658.892" x2="-173.913" y2="667.849" spreadMethod="pad" id="Aa" xlink:href="#Cl"><stop offset="0" stop-color="#17013f"/><stop offset="1" stop-color="#270668"/></linearGradient><linearGradient x1="-168.708" y1="664.097" x2="-177.666" y2="662.644" spreadMethod="pad" id="Ab" xlink:href="#Cl"><stop offset="0" stop-color="#17013f"/><stop offset="1" stop-color="#270668"/></linearGradient><linearGradient x1="103.825" y1="662.923" x2="103.098" y2="667.401" spreadMethod="pad" id="Ac" xlink:href="#Cl"><stop offset="0" stop-color="#17013f"/><stop offset="1" stop-color="#270668"/></linearGradient><linearGradient x1="105.701" y1="665.525" x2="101.222" y2="664.798" spreadMethod="pad" id="Ad" xlink:href="#Cl"><stop offset="0" stop-color="#17013f"/><stop offset="1" stop-color="#270668"/></linearGradient><linearGradient x1="-131.506" y1="661.131" x2="-132.233" y2="665.609" spreadMethod="pad" id="Ae" xlink:href="#Cl"><stop offset="0" stop-color="#17013f"/><stop offset="1" stop-color="#270668"/></linearGradient><linearGradient x1="-129.631" y1="663.733" x2="-134.109" y2="663.006" spreadMethod="pad" id="Af" xlink:href="#Cl"><stop offset="0" stop-color="#17013f"/><stop offset="1" stop-color="#270668"/></linearGradient><clipPath id="Ag"><path d="M632.222 178.514c0-.683-.553-1.236-1.236-1.236s-1.236.553-1.236 1.236.554 1.236 1.236 1.236 1.236-.554 1.236-1.236"/></clipPath><linearGradient x1="0" y1="0" x2="1" y2="0" gradientTransform="matrix(-0.3957539,-2.4404895,-2.4404895,0.3957539,631.1839,179.73424)" spreadMethod="pad" id="Ah" xlink:href="#Cl"><stop offset="0" stop-color="#17013f"/><stop offset="1" stop-color="#270668"/></linearGradient><clipPath id="Ai"><path d="M370.615 168.73a2.41 2.41 0 0 0-2.408-2.409 2.41 2.41 0 0 0-2.408 2.409 2.41 2.41 0 0 0 2.408 2.409 2.41 2.41 0 0 0 2.408-2.409"/></clipPath><linearGradient x1="0" y1="0" x2="1" y2="0" gradientTransform="matrix(-0.7710969,-4.7551117,-4.7551117,0.7710969,368.59287,171.10661)" spreadMethod="pad" id="Aj" xlink:href="#Cl"><stop offset="0" stop-color="#17013f"/><stop offset="1" stop-color="#270668"/></linearGradient><clipPath id="Ak"><path d="M352.952 194.438c0-.682-.554-1.236-1.236-1.236s-1.236.554-1.236 1.236.553 1.237 1.236 1.237 1.236-.554 1.236-1.237"/></clipPath><linearGradient x1="0" y1="0" x2="1" y2="0" gradientTransform="matrix(-0.3957539,-2.4404895,-2.4404895,0.3957539,351.91415,195.65865)" spreadMethod="pad" id="Al" xlink:href="#Cl"><stop offset="0" stop-color="#17013f"/><stop offset="1" stop-color="#270668"/></linearGradient><clipPath id="Am"><path d="M397.29 194.212c0-.25-.204-.454-.454-.454s-.455.203-.455.454.204.455.455.455.454-.204.454-.455"/></clipPath><linearGradient x1="0" y1="0" x2="1" y2="0" gradientTransform="matrix(-0.1454779,-0.8971162,-0.8971162,0.1454779,396.90921,194.6609)" spreadMethod="pad" id="An" xlink:href="#Cl"><stop offset="0" stop-color="#17013f"/><stop offset="1" stop-color="#270668"/></linearGradient><clipPath id="Ao"><path d="M508.366 265.813s-3.915.033-5.848-1.344h0c-2.162-1.54-7.7-14.343-1.512-29.87h0c1.59-3.994 3.957-8.167 7.36-12.377h0c3.403 4.2 5.77 8.383 7.36 12.377h0c6.188 15.528.65 28.332-1.5 29.87h0c-1.846 1.314-5.493 1.344-5.825 1.344h0-.024"/></clipPath><linearGradient x1="0" y1="0" x2="1" y2="0" gradientTransform="matrix(0,-25.663702,-25.663702,0,508.36581,251.09261)" spreadMethod="pad" id="Ap" xlink:href="#Cl"><stop offset="0" stop-color="#ffc200"/><stop offset="1" stop-color="#ff5617"/></linearGradient><clipPath id="Aq"><path d="M508.366 260.647s-3.314.024-4.952-.916h0c-1.83-1.05-6.518-9.773-1.28-20.356h0c1.347-2.72 3.35-5.566 6.23-8.435h0c2.88 2.87 4.884 5.714 6.23 8.435h0c5.238 10.583.55 19.307-1.28 20.356h0c-1.56.895-4.642.916-4.93.916h0-.022"/></clipPath><linearGradient x1="0" y1="0" x2="1" y2="0" gradientTransform="matrix(0,-17.488954,-17.488954,0,508.36578,250.61583)" spreadMethod="pad" id="Ar" xlink:href="#Cl"><stop offset="0" stop-color="#ffc200"/><stop offset="1" stop-color="#ff5617"/></linearGradient><clipPath id="As"><path d="M475.318 240.005c-.843 18.214 16.094 37.186 16.094 37.186h0l-6.86 30.358c-33.84-28.6-9.233-67.544-9.233-67.544"/></clipPath><linearGradient x1="0" y1="0" x2="1" y2="0" gradientTransform="matrix(-8.9999771,-61.00003,-61.00003,8.9999771,483.3468,304.93689)" spreadMethod="pad" id="At" xlink:href="#Cl"><stop offset="0" stop-color="#ff466a"/><stop offset=".99" stop-color="#cc1b4b"/></linearGradient><clipPath id="Au"><path d="M525.32 277.19s16.937-18.972 16.094-37.186h0s24.606 38.954-9.232 67.544h0z"/></clipPath><linearGradient x1="0" y1="0" x2="1" y2="0" gradientTransform="matrix(10.000009,-50.50003,-50.50003,-10.000009,531.65057,306.84509)" spreadMethod="pad" id="Av" xlink:href="#Cl"><stop offset="0" stop-color="#ff466a"/><stop offset=".99" stop-color="#cc1b4b"/></linearGradient><clipPath id="Aw"><path d="M495.37 319.32c-10.93-34.7-1.15-63.32 2.67-66.76h0c3.4-3.07 10.33-3 10.33-3h0s1.62-.02 3.7.32h0c2.2.35 4.87 1.1 6.63 2.68h0c1.6 1.44 4.26 7.33 5.99 16.24h0c2.392 12.3 3.022 30.4-3.32 50.52h0c-2.81 8.93-6.98 18.25-13 27.66h0c-6-9.4-10.2-18.73-13-27.66"/></clipPath><linearGradient x1="0" y1="0" x2="1" y2="0" gradientTransform="matrix(0,-24.74873,-24.74873,0,508.36456,272.4144)" spreadMethod="pad" id="Ax" xlink:href="#Cl"><stop offset="0" stop-color="#ff466a"/><stop offset=".99" stop-color="#cc1b4b"/></linearGradient><clipPath id="Ay"><path d="M0 500h750V0H0z"/></clipPath><clipPath id="Az"><path d="M512.06 268.8h12.62v-18.92h-12.62z"/></clipPath><clipPath id="BA"><path d="M490.57 351.266c5.34-2.732 11.388-4.284 17.796-4.284h0c6.407 0 12.455 1.552 17.795 4.284h0c-3.844 12.22-9.566 24.99-17.795 37.87h0c-8.23-12.882-13.95-25.652-17.796-37.87"/></clipPath><linearGradient x1="0" y1="0" x2="1" y2="0" gradientTransform="matrix(0,-44.570061,-44.570061,0,508.36594,386.41431)" spreadMethod="pad" id="BB" xlink:href="#Cl"><stop offset="0" stop-color="#ff466a"/><stop offset=".99" stop-color="#cc1b4b"/></linearGradient><clipPath id="BC"><path d="M492.253 320.57c0-8.9 7.214-16.113 16.113-16.113h0c8.898 0 16.113 7.214 16.113 16.113h0c0 8.898-7.215 16.113-16.113 16.113h0c-8.9 0-16.113-7.215-16.113-16.113"/></clipPath><linearGradient x1="0" y1="0" x2="1" y2="0" gradientTransform="matrix(0,-30.450329,-30.450329,0,508.366,336.41428)" spreadMethod="pad" id="BD" xlink:href="#Cl"><stop offset="0" stop-color="#ff466a"/><stop offset=".99" stop-color="#cc1b4b"/></linearGradient><clipPath id="BE"><path d="M495.25 320.57a13.12 13.12 0 0 1 13.115-13.116h0a13.12 13.12 0 0 1 13.115 13.116h0a13.12 13.12 0 0 1-13.115 13.115h0a13.12 13.12 0 0 1-13.115-13.115"/></clipPath><linearGradient x1="0" y1="0" x2="1" y2="0" gradientTransform="matrix(-14.613909,-31.850784,-31.850784,14.613909,515.54053,336.20563)" spreadMethod="pad" id="BF" xlink:href="#Cl"><stop offset="0" stop-color="#56e7d6"/><stop offset="1" stop-color="#0094d0"/></linearGradient><clipPath id="BG"><path d="M0 500h750V0H0z"/></clipPath><clipPath id="BH"><path d="M507.366 331.596h12.027V319.57h-12.027z"/></clipPath><clipPath id="BI"><path d="M498.34 288.434a10.03 10.03 0 0 1 10.027-10.027h0a10.03 10.03 0 0 1 10.028 10.027h0a10.03 10.03 0 0 1-10.028 10.028h0a10.03 10.03 0 0 1-10.027-10.028"/></clipPath><linearGradient x1="0" y1="0" x2="1" y2="0" gradientTransform="matrix(0,-24.113251,-24.113251,0,508.366,299.74765)" spreadMethod="pad" id="BJ" xlink:href="#Cl"><stop offset="0" stop-color="#ff466a"/><stop offset=".99" stop-color="#cc1b4b"/></linearGradient><clipPath id="BK"><path d="M500.204 288.434c0-4.507 3.655-8.16 8.162-8.16h0c4.508 0 8.16 3.654 8.16 8.16h0c0 4.508-3.653 8.162-8.16 8.162h0c-4.507 0-8.162-3.654-8.162-8.162"/></clipPath><linearGradient x1="0" y1="0" x2="1" y2="0" gradientTransform="matrix(-9.0946016,-19.821541,-19.821541,9.0946016,512.83087,298.16547)" spreadMethod="pad" id="BL" xlink:href="#Cl"><stop offset="0" stop-color="#56e7d6"/><stop offset="1" stop-color="#0094d0"/></linearGradient><clipPath ><path d="M346.68 201.033h323.76V77.193H346.68z"/></clipPath><clipPath id="BN"><path d="M627.818 323.352l3.206-1.94 9.105 15.038-3.207 1.942z"/></clipPath><linearGradient x1="0" y1="0" x2="1" y2="0" gradientTransform="matrix(0,-6.6666832,-6.6666832,0,633.97357,338.78015)" spreadMethod="pad" id="BO" xlink:href="#Cl"><stop offset="0" stop-color="#56e7d6"/><stop offset="1" stop-color="#0094d0"/></linearGradient><clipPath id="BP"><path d="M633.367 350.365a10.73 10.73 0 0 1 3.622-14.734h0a10.73 10.73 0 0 1 14.733 3.62h0c3.07 5.07 1.448 11.666-3.62 14.735h0c-1.737 1.05-3.654 1.552-5.546 1.552h0c-3.63 0-7.172-1.842-9.19-5.173m4.894-12.634c-3.91 2.366-5.16 7.452-2.793 11.36h0c2.366 3.91 7.453 5.16 11.36 2.793h0c3.9-2.366 5.16-7.453 2.793-11.362h0a8.27 8.27 0 0 0-7.085-3.989h0c-1.46 0-2.936.386-4.276 1.197"/></clipPath><linearGradient x1="0" y1="0" x2="1" y2="0" gradientTransform="matrix(-7.3333287,-24.666605,-24.666605,7.3333287,645.91071,356.12845)" spreadMethod="pad" id="BQ" xlink:href="#Cl"><stop offset="0" stop-color="#56e7d6"/><stop offset="1" stop-color="#0094d0"/></linearGradient><clipPath id="BR"><path d="M629.07 326.732l-7.566-12.498a.95.95 0 0 1 .321-1.307h0l2.74-1.658a.95.95 0 0 1 1.305.321h0l7.568 12.498a.95.95 0 0 1-.322 1.306h0l-2.74 1.66a.95.95 0 0 1-.492.138h0c-.322 0-.636-.164-.815-.46"/></clipPath><linearGradient x1="0" y1="0" x2="1" y2="0" gradientTransform="matrix(-10.333333,-17.66667,-17.66667,10.333333,631.67706,326.35049)" spreadMethod="pad" id="BS" xlink:href="#Cl"><stop offset="0" stop-color="#56e7d6"/><stop offset="1" stop-color="#0094d0"/></linearGradient><clipPath id="BT"><path d="M0 500h750V0H0z"/></clipPath><clipPath id="BU"><path d="M634.27 353.082h16.548v-16.548H634.27z"/></clipPath><clipPath id="BV"><path d="M644.962 349.122h4.008v-4.008h-4.008z"/></clipPath><clipPath id="BW"><path d="M646.958 343.726h1.357v-1.357h-1.357z"/></clipPath><clipPath id="BX"><path d="M579.948 293.478l.642-.01-.166.726z"/></clipPath><linearGradient x1="0" y1="0" x2="1" y2="0" gradientTransform="matrix(-3.625041,-7.6563449,-7.6563449,3.625041,580.34418,293.63174)" spreadMethod="pad" id="BY" xlink:href="#Cl"><stop offset="0" stop-color="#f90"/><stop offset="1" stop-color="#ff5617"/></linearGradient><clipPath id="BZ"><path d="M559.84 293.418l20.222-.342.527.39-.643.01 2.307 1.715.643-.01.522.39-.642.01-19.58.33z"/></clipPath><linearGradient x1="0" y1="0" x2="1" y2="0" gradientTransform="matrix(-3.6249871,-7.6562309,-7.6562309,3.6249871,572.89264,297.15985)" spreadMethod="pad" id="Ba" xlink:href="#Cl"><stop offset="0" stop-color="#f90"/><stop offset="1" stop-color="#ff5617"/></linearGradient><clipPath id="Bb"><path d="M0 500h750V0H0z"/></clipPath><clipPath id="Bc"><path d="M552.715 324.714l7.126-31.296 3.357 2.497-7.127 31.294z"/></clipPath><linearGradient x1="0" y1="0" x2="1" y2="0" gradientTransform="matrix(3.6666865,-34.333301,-34.333301,-3.6666865,556.12854,327.42914)" spreadMethod="pad" id="Bd" xlink:href="#Cl"><stop offset="0" stop-color="#f90"/><stop offset="1" stop-color="#ff5617"/></linearGradient><clipPath id="Be"><path d="M563.198 295.915l20.222-.345-7.127 31.295-20.222.344z"/></clipPath><linearGradient x1="0" y1="0" x2="1" y2="0" gradientTransform="matrix(-5.6666846,-34.333416,-34.333416,5.6666846,571.85651,324.17926)" spreadMethod="pad" id="Bf" xlink:href="#Cl"><stop offset="0" stop-color="#ffbe00"/><stop offset="1" stop-color="#ff7800"/></linearGradient><clipPath id="Bg"><path d="M561.307 317.266l14.854-.22-1.568 6.992-14.852.222z"/></clipPath><linearGradient x1="0" y1="0" x2="1" y2="0" gradientTransform="matrix(-6.7499676,-12.499964,-12.499964,6.7499676,572.51312,329.10123)" spreadMethod="pad" id="Bh" xlink:href="#Cl"><stop offset="0" stop-color="#fff"/><stop offset="1" stop-color="#b4f1fe"/></linearGradient><clipPath id="Bi"><path d="M460.802 304.235l.556.63-.862.454z"/></clipPath><linearGradient x1="0" y1="0" x2="1" y2="0" gradientTransform="matrix(51.337528,-31.002514,-31.002514,-51.337528,417.24274,331.02362)" spreadMethod="pad" id="Bj" xlink:href="#Cl"><stop offset="0" stop-color="#ff7800"/><stop offset="1" stop-color="#ff4f00"/></linearGradient><clipPath id="Bk"><path d="M461.115 308.84l-16.98-19.2-.372-5.462 17.537 19.83.06.858-.556-.63.255 3.754.558.63.057.85z"/></clipPath><linearGradient x1="0" y1="0" x2="1" y2="0" gradientTransform="matrix(51.333023,-30.999794,-30.999794,-51.333023,411.59207,321.65826)" spreadMethod="pad" id="Bl" xlink:href="#Cl"><stop offset="0" stop-color="#ff7800"/><stop offset="1" stop-color="#ff4f00"/></linearGradient><clipPath id="Bm"><path d="M0 500h750V0H0z"/></clipPath><clipPath id="Bn"><path d="M406.558 303.7l37.202-19.524.372 5.463-37.203 19.524z"/></clipPath><linearGradient x1="0" y1="0" x2="1" y2="0" gradientTransform="matrix(51.333462,-31.000057,-31.000057,-51.333462,404.20953,309.4339)" spreadMethod="pad" id="Bo" xlink:href="#Cl"><stop offset="0" stop-color="#ff7800"/><stop offset="1" stop-color="#ff4f00"/></linearGradient><clipPath id="Bp"><path d="M406.93 309.164l37.203-19.524 17.54 19.83-37.203 19.524z"/></clipPath><linearGradient x1="0" y1="0" x2="1" y2="0" gradientTransform="matrix(16.333334,-29.333281,-29.333281,-16.333334,425.01749,325.98917)" spreadMethod="pad" id="Bq" xlink:href="#Cl"><stop offset="0" stop-color="#ffa303"/><stop offset="1" stop-color="#ff7800"/></linearGradient><clipPath id="Br"><path d="M412.985 310.306l8.29-4.388L434.13 320.5l-8.29 4.387z"/></clipPath><linearGradient x1="0" y1="0" x2="1" y2="0" gradientTransform="matrix(-3.2499979,-19.500032,-19.500032,3.2499979,425.9953,330.03418)" spreadMethod="pad" id="Bs" xlink:href="#Cl"><stop offset="0" stop-color="#fff"/><stop offset="1" stop-color="#b4f1fe"/></linearGradient><clipPath id="Bt"><path d="M379.833 250a19.57 19.57 0 0 1 19.566-19.567h0A19.57 19.57 0 0 1 418.966 250h0a19.57 19.57 0 0 1-19.567 19.566h0A19.57 19.57 0 0 1 379.833 250"/></clipPath><linearGradient x1="0" y1="0" x2="1" y2="0" gradientTransform="matrix(-6.5000081,-30.500027,-30.500027,6.5000081,403.42731,268.89819)" spreadMethod="pad" id="Bu" xlink:href="#Cl"><stop offset="0" stop-color="#ff5352"/><stop offset=".329" stop-color="#ff5352"/><stop offset="1" stop-color="#e32d38"/></linearGradient><clipPath id="Bv"><path d="M324.864 366.98l26.875-14.433-12.44 41.308zm6.312 1.9l6.905 12.855 5.95-19.76z"/></clipPath><linearGradient x1="0" y1="0" x2="1" y2="0" gradientTransform="matrix(3.5000145,-47.49995,-47.49995,-3.5000145,335.91461,392.16391)" spreadMethod="pad" id="Bw" xlink:href="#Cl"><stop offset="0" stop-color="#ffa303"/><stop offset="1" stop-color="#ff7800"/></linearGradient><clipPath id="Bx"><path d="M0 500h750V0H0z"/></clipPath><clipPath id="By"><path d="M374.155 376.627h31.792v-47.1h-31.792z"/></clipPath><clipPath id="Bz"><path d="M388.066 346.23c-6.096.463-8.16-1.132-8.16-1.132h0l-3.218-7.32a4.27 4.27 0 0 1 .545-4.407h0c.995-1.28 2.542-1.882 4.138-1.616h0l18.795 3.142c1.597.267 2.863 1.34 3.388 2.872h0a4.27 4.27 0 0 1-.917 4.345h0l-5.868 6.358c-2.252-.695-4.7-2.543-8.703-2.24"/></clipPath><linearGradient x1="0" y1="0" x2="1" y2="0" gradientTransform="matrix(4.9999781,-29.499958,-29.499958,-4.9999781,387.9743,349.86969)" spreadMethod="pad" id="CA" xlink:href="#Cl"><stop offset="0" stop-color="#56e7d6"/><stop offset="1" stop-color="#0060cc"/></linearGradient><clipPath id="CB"><path d="M0 500h750V0H0z"/></clipPath><clipPath id="CC"><path d="M382.95 369.115h3.587v-11.55h-3.587z"/></clipPath><clipPath id="CD"><path d="M382.172 373.77h2.316v-3.946h-2.316z"/></clipPath><clipPath id="CE"><path d="M377.27 353.615h9.788v-19.2h-9.788z"/></clipPath><clipPath id="CF"><path d="M290.8 406.948l2.66-1.662c1.716 2.747 5.333 3.582 8.08 1.866h0c2.745-1.716 3.582-5.334 1.865-8.08h0l2.66-1.663a9 9 0 0 1-2.865 12.402h0a8.95 8.95 0 0 1-4.759 1.368h0a8.99 8.99 0 0 1-7.642-4.232"/></clipPath><linearGradient x1="0" y1="0" x2="1" y2="0" gradientTransform="matrix(15.265368,-9.5379305,-9.5379305,-15.265368,293.17471,410.76456)" spreadMethod="pad" id="CG" xlink:href="#Cl"><stop offset="0" stop-color="#ff7119"/><stop offset="1" stop-color="#ff3b00"/></linearGradient><clipPath id="CH"><path d="M287.896 404.91l17.598-10.994 1.727 2.765-17.597 10.995z"/></clipPath><linearGradient x1="0" y1="0" x2="1" y2="0" gradientTransform="matrix(17.597584,-10.995118,-10.995118,-17.597584,288.76028,406.29413)" spreadMethod="pad" id="CI" xlink:href="#Cl"><stop offset="0" stop-color="#ff7119"/><stop offset="1" stop-color="#ff3b00"/></linearGradient><clipPath id="CJ"><path d="M0 500h750V0H0z"/></clipPath><clipPath ><path d="M76.44 213.44h142.08v-88.08H76.44z"/></clipPath><path id="CL" d="M430.86 330.985a.63.63 0 0 0-.629-.629.63.63 0 0 0-.628.629.63.63 0 0 0 .628.629.63.63 0 0 0 .629-.629"/><path id="CM" d="M415.518 290.14a.63.63 0 0 0-.629-.629.63.63 0 0 0-.629.629.63.63 0 0 0 .629.628.63.63 0 0 0 .629-.628"/><path id="CN" d="M448.293 285.417a.63.63 0 0 0-.629-.629.63.63 0 0 0-.629.629.63.63 0 0 0 .629.629.63.63 0 0 0 .629-.629"/><path id="CO" d="M461.055 330.282a.63.63 0 0 0-.628-.629.63.63 0 0 0-.629.629.63.63 0 0 0 .629.628.63.63 0 0 0 .628-.628"/><path id="CP" d="M438.93 380.498a.63.63 0 0 0-.629-.628.63.63 0 0 0-.629.628.63.63 0 0 0 .629.629.63.63 0 0 0 .629-.629"/><path id="CQ" d="M613.71 340.312a.63.63 0 0 0-.628-.629.63.63 0 0 0-.629.629.63.63 0 0 0 .629.629.63.63 0 0 0 .628-.629"/><path id="CR" d="M536.288 394.225a.63.63 0 0 0-.628-.628.63.63 0 0 0-.629.628.63.63 0 0 0 .629.629.63.63 0 0 0 .628-.629"/><path id="CS" d="M423.204 341.652c0-.174-.142-.316-.315-.316s-.317.142-.317.316.142.316.317.316.315-.142.315-.316"/><path id="CT" d="M388.46 323.132c0-.174-.14-.316-.315-.316s-.317.142-.317.316.142.316.317.316.315-.142.315-.316"/><path id="CU" d="M402.567 310.537c0-.174-.142-.316-.316-.316s-.316.142-.316.316.142.316.316.316.316-.142.316-.316"/><path id="CV" d="M457.497 317.604c0-.175-.142-.316-.316-.316s-.316.14-.316.316.14.316.316.316.316-.142.316-.316"/><path id="CW" d="M460.023 337.665c0-.174-.142-.316-.315-.316s-.317.142-.317.316.142.316.317.316.315-.14.315-.316"/><path id="CX" d="M429.93 349.41c0-.174-.14-.316-.315-.316s-.317.142-.317.316.142.316.317.316.315-.14.315-.316"/><path id="CY" d="M401.72 331.512c0-.175-.142-.316-.316-.316s-.316.14-.316.316.142.316.316.316.316-.142.316-.316"/><path id="CZ" d="M431.475 327.745c0-.175-.142-.316-.315-.316s-.317.14-.317.316.142.315.317.315.315-.14.315-.315"/><path id="Ca" d="M486.7 346.994c0-.174-.142-.316-.316-.316s-.316.142-.316.316.142.316.316.316.316-.14.316-.316"/><path id="Cb" d="M491.347 377.03c0-.174-.142-.316-.316-.316s-.316.142-.316.316.14.316.316.316.316-.142.316-.316"/><path id="Cc" d="M405.914 339.687c0-.175-.142-.316-.315-.316s-.317.14-.317.316.142.316.317.316.315-.142.315-.316"/><path id="Cd" d="M389.154 343.68c0-.175-.14-.316-.315-.316s-.317.14-.317.316.142.316.317.316.315-.142.315-.316"/><path id="Ce" d="M388.604 409.097c0-.175-.142-.316-.316-.316s-.316.14-.316.316.142.315.316.315.316-.14.316-.315"/><path id="Cf" d="M662.028 422.766a.93.93 0 1 0-1.863 0 .93.93 0 1 0 1.863 0"/><path id="Cg" d="M365.01 366.023c0-.514-.417-.932-.932-.932a.93.93 0 1 0 0 1.864.93.93 0 0 0 .932-.932"/><path id="Ch" d="M371.537 303.047a.93.93 0 1 0-1.863 0 .93.93 0 0 0 .931.932c.515 0 .932-.418.932-.932"/><path id="Ci" d="M348.4 357.36l.156-.52 1.733.522-.157.52z"/><path id="Cj" d="M347.85 359.193l.156-.52 1.733.522-.157.518z"/><path id="Ck" d="M289.036 404.2l-.266.166.575.918.264-.165z"/><linearGradient id="Cl" gradientUnits="userSpaceOnUse"/></defs><g transform="matrix(1.333333 0 0 -1.333333 -275.53478 580.70799)"><g clip-path="url(#A)"><path d="M206.78 435.53C202.84 383 290.34 382 315.12 341.75h0c28.1-45.63-.04-125.25 84.72-130.8h0c98.692-6.45 108.87-45.6 108.87-45.6h0c26.44 53.57 78.56 2.65 107.8 67.62h0c21.5 47.78 55.33 48 55.33 48h0v148c0 3.62-2.93 6.56-6.55 6.56h0z" fill="url(#B)"/></g><g clip-path="url(#C)"><path d="M453.12 235.878c0-15.538 12.596-28.134 28.133-28.134h0c15.538 0 28.134 12.596 28.134 28.134h0c0 15.537-12.596 28.132-28.134 28.132h0c-15.537 0-28.133-12.595-28.133-28.132" fill="url(#D)"/></g><g clip-path="url(#E)"><path d="M338.092 255.063c5.935-18.054 16.3-33.024 38.693-40.07h0c3.712 4.767 5.922 10.76 5.922 17.268h0c0 15.538-12.596 28.133-28.133 28.133h0a28.01 28.01 0 0 1-16.482-5.33" fill="url(#F)"/></g><g clip-path="url(#G)"><path d="M480.802 197.968c0-2.12.217-4.19.63-6.2h0c17.812-9.465 24.26-19.646 26.363-24.1h0a31.22 31.22 0 0 1 2.021-.164h0c8.513 15.908 19.49 21.843 31.422 24.594h0a30.61 30.61 0 0 1 .565 5.87h0c0 16.846-13.656 30.5-30.5 30.5h0c-16.845 0-30.5-13.654-30.5-30.5" fill="url(#H)"/></g><g clip-path="url(#I)"><path d="M356.753 251.7c0-16.846 13.656-30.5 30.5-30.5h0c16.844 0 30.5 13.655 30.5 30.5h0c0 16.844-13.655 30.5-30.5 30.5h0c-16.844 0-30.5-13.655-30.5-30.5" fill="url(#J)"/></g><g clip-path="url(#K)"><path d="M329.797 294.396c3.558-20.917 6.36-42.05 17.082-57.852h0c14.88 2.027 26.344 14.785 26.344 30.22h0c0 16.844-13.656 30.5-30.5 30.5h0a30.37 30.37 0 0 1-12.926-2.867" fill="url(#L)"/></g><g clip-path="url(#M)"><path d="M630.232 278.76a30.36 30.36 0 0 1 5.125-16.927h0c18.218 19.017 36.485 19.134 36.485 19.134h0v26.205c-3.443 1.348-7.2 2.087-11.1 2.087h0c-16.844 0-30.5-13.655-30.5-30.5" fill="url(#N)"/></g><g clip-path="url(#O)"><path d="M580.682 259.237c0-11.84 9.598-21.438 21.438-21.438h0c11.84 0 21.44 9.598 21.44 21.438h0c0 11.84-9.6 21.44-21.44 21.44h0c-11.84 0-21.438-9.6-21.438-21.44" fill="url(#P)"/></g><g clip-path="url(#Q)"><path d="M430.952 242.563a20.41 20.41 0 0 1 20.406-20.408h0c11.27 0 20.408 9.136 20.408 20.408h0c0 11.27-9.137 20.407-20.408 20.407h0a20.41 20.41 0 0 1-20.406-20.407" fill="url(#R)"/></g><g clip-path="url(#S)"><path d="M538.57 237.82c0-11.612 9.415-21.026 21.027-21.026h0a21.03 21.03 0 0 1 21.027 21.026h0a21.03 21.03 0 0 1-21.027 21.027h0c-11.612 0-21.027-9.414-21.027-21.027" fill="url(#T)"/></g><g clip-path="url(#U)"><path d="M390.595 248.478c0-11.61 9.414-21.026 21.026-21.026h0c11.613 0 21.027 9.415 21.027 21.026h0a21.03 21.03 0 0 1-21.027 21.027h0a21.03 21.03 0 0 1-21.026-21.027" fill="url(#V)"/></g><g clip-path="url(#W)"><path d="M416.594 242.563c0-8.047 6.522-14.57 14.57-14.57h0c8.046 0 14.57 6.523 14.57 14.57h0c0 8.046-6.523 14.57-14.57 14.57h0a14.57 14.57 0 0 1-14.569-14.569" fill="url(#X)"/></g><g clip-path="url(#Y)"><path d="M568.17 240.587a14.57 14.57 0 0 1 14.569-14.569h0c8.046 0 14.57 6.523 14.57 14.57h0a14.57 14.57 0 0 1-14.569 14.569h0a14.57 14.57 0 0 1-14.569-14.569" fill="url(#Z)"/></g><g clip-path="url(#a)"><path d="M608.04 250.158c0-6.954 3.376-13.12 8.578-16.947h0c7.376 16.308 16.2 27.046 24.587 34.118h0a20.92 20.92 0 0 1-12.137 3.855h0c-11.613 0-21.028-9.414-21.028-21.026" fill="url(#b)"/></g><g clip-path="url(#c)"><path d="M498.918 224.597c0-12.926 10.478-23.405 23.403-23.405h0a23.41 23.41 0 0 1 23.405 23.405h0c0 12.926-10.48 23.404-23.405 23.404h0c-12.925 0-23.403-10.478-23.403-23.404" fill="url(#d)"/></g><g clip-path="url(#e)"><path d="M495.643 207.104c0-13.633 9.052-25.153 21.474-28.877h0c10.235 11.665 22.756 14.27 35.812 15.756h0c1.922 3.967 2.998 8.418 2.998 13.12h0c0 16.648-13.495 30.143-30.142 30.143h0c-16.647 0-30.142-13.495-30.142-30.143" fill="url(#f)"/></g><g clip-path="url(#g)"><path d="M468.334 197.705c35.518-13.68 40.373-32.356 40.373-32.356h0c3.87 7.837 8.286 13.436 13.102 17.5h0c-1.915 14.8-14.568 26.235-29.89 26.235h0c-9.55 0-18.06-4.44-23.584-11.37" fill="url(#h)"/></g><g clip-path="url(#i)"><path d="M395.222 223.058c0-4.303 1.013-8.37 2.812-11.973h0l1.808-.13c16.474-1.078 30.48-3.066 42.385-5.63h0c4.165 4.73 6.69 10.937 6.69 17.735h0c0 14.827-12.02 26.848-26.848 26.848h0c-14.827 0-26.848-12.02-26.848-26.848" fill="url(#j)"/></g><g clip-path="url(#k)"><path d="M535.2 220.534c0-11.138 9.03-20.17 20.168-20.17h0c11.14 0 20.168 9.03 20.168 20.17h0a20.17 20.17 0 0 1-20.168 20.168h0a20.17 20.17 0 0 1-20.168-20.168" fill="url(#l)"/></g><g clip-path="url(#m)"><path d="M422.07 210.07l.04-1.288c15.654-2.08 28.505-5.072 39.06-8.53h0a20.69 20.69 0 0 1 2.461 9.818h0c0 11.478-9.303 20.782-20.78 20.782h0c-11.476 0-20.78-9.304-20.78-20.782" fill="url(#n)"/></g><g clip-path="url(#o)"><path d="M561.964 212.592c0-6.798 3.263-12.834 8.3-16.625h0c11.67 1.802 23.157 5.458 33.25 16.47h0l.001.154c0 11.476-9.305 20.78-20.78 20.78h0c-11.477 0-20.78-9.304-20.78-20.78" fill="url(#p)"/></g><g clip-path="url(#q)"><path d="M359.5 227.494c0-1.444.107-2.862.314-4.25h0c9.41-6.698 22.228-11.127 40.03-12.29h0c3.692-.242 7.253-.528 10.702-.858h0a28.37 28.37 0 0 1 5.927 17.398h0c0 15.733-12.754 28.486-28.485 28.486h0c-15.733 0-28.487-12.753-28.487-28.486" fill="url(#r)"/></g><g clip-path="url(#s)"><path d="M606.856 220.534a20.98 20.98 0 0 1 .326-3.691h0c3.303 4.38 6.43 9.686 9.33 16.13h0c1.076 2.39 2.184 4.665 3.316 6.824h0c-7.607-3.087-12.97-10.548-12.97-19.263" fill="url(#t)"/></g><g clip-path="url(#u)"><path d="M583.703 229.143c0-9.912 6.938-18.202 16.22-20.28h0c6.03 5.427 11.635 13.105 16.587 24.1h0c1.422 3.16 2.9 6.117 4.417 8.876h0c-3.8 4.91-9.753 8.074-16.445 8.074h0c-11.477 0-20.78-9.304-20.78-20.78" fill="url(#v)"/></g><g clip-path="url(#w)"><path d="M343.302 242.54c5.22-9.956 12.787-18.318 24.44-23.98h0c3.748 3.155 6.13 7.88 6.13 13.163h0a17.2 17.2 0 0 1-17.198 17.198h0c-5.4 0-10.22-2.49-13.372-6.382" fill="url(#x)"/></g><g clip-path="url(#y)"><path d="M452.3 205.923a23.3 23.3 0 0 1 .205-3.088h0c16.517-4.47 28.26-10.08 36.573-15.6h0c5.75 4.208 9.483 11.007 9.483 18.678h0c0 12.774-10.355 23.13-23.13 23.13h0c-12.774 0-23.13-10.356-23.13-23.13" fill="url(#z)"/></g><g clip-path="url(#AA)"><path d="M535.2 195.603a20.24 20.24 0 0 1 .629-5.017h0c12.467 4.172 26.306 3.473 39.664 6.332h0c-.677 10.526-9.428 18.854-20.125 18.854h0c-11.14 0-20.168-9.03-20.168-20.17" fill="url(#AB)"/></g><g clip-path="url(#AC)"><path d="M479.56 192.748c25.36-12.83 29.147-27.4 29.147-27.4h0c6.223 12.604 13.866 19.423 22.3 23.33h0c-4.44 10.403-14.763 17.696-26.79 17.696h0c-10.387 0-19.504-5.44-24.657-13.626" fill="url(#AD)"/></g><g clip-path="url(#AE)"><path d="M563.324 195.07c10.694 1.174 21.435 2.986 31.3 9.644h0c-3.367 2.35-7.462 3.728-11.88 3.728h0c-8.866 0-16.436-5.554-19.42-13.372" fill="url(#AF)"/></g><g clip-path="url(#AG)"><path d="M508.75 181.673c0-3.945 1.1-7.633 3.008-10.775h0c9.584 15.62 21.91 20.2 35.085 22.274h0c-3.724 5.594-10.088 9.28-17.312 9.28h0c-11.477 0-20.78-9.304-20.78-20.78" fill="url(#AH)"/></g><g clip-path="url(#AI)"><path d="M411.238 210.03c13.18-1.285 24.607-3.188 34.496-5.492h0c-.174 9.645-8.048 17.412-17.735 17.412h0c-7.758 0-14.353-4.98-16.76-11.92" fill="url(#AJ)"/></g><g clip-path="url(#AK)"><path d="M364.928 220.024c7.444-4.133 16.695-7.07 28.295-8.462h0c-2.22 7.265-8.976 12.55-16.967 12.55h0c-4.307 0-8.255-1.535-11.328-4.088" fill="url(#AL)"/></g><g clip-path="url(#AM)"><g clip-path="url(#AN)"><path d="M606.855 195.604c0-11.477 9.304-20.78 20.78-20.78s20.78 9.304 20.78 20.78-9.304 20.78-20.78 20.78-20.78-9.305-20.78-20.78" fill="url(#AO)"/></g></g><g clip-path="url(#AP)"><path d="M583.703 204.212c0-1.648.192-3.25.554-4.787h0c9.954 3.692 19.39 10.537 27.482 24.266h0c-2.26.842-4.704 1.302-7.256 1.302h0c-11.477 0-20.78-9.304-20.78-20.78" fill="url(#AQ)"/></g><g clip-path="url(#AR)"><path d="M385.38 214.214l.048-1.42c4.403-.878 9.193-1.5 14.413-1.84h0c9.547-.625 18.264-1.555 26.226-2.726h0a20.79 20.79 0 0 1 .875 5.986h0c0 11.477-9.304 20.78-20.78 20.78h0c-11.477 0-20.78-9.304-20.78-20.78" fill="url(#AS)"/></g><g clip-path="url(#AT)" class="F"><use xlink:href="#CL"/><use xlink:href="#CM"/><use xlink:href="#CN"/><use xlink:href="#CO"/><path d="M423.517 350.414a.63.63 0 0 0-.629-.629.63.63 0 0 0-.629.629.63.63 0 0 0 .629.628.63.63 0 0 0 .629-.628m-24.074-24.774a.63.63 0 0 0-.629-.629.63.63 0 0 0-.629.629.63.63 0 0 0 .629.628.63.63 0 0 0 .629-.628m46.18-8.7a.63.63 0 0 0-.629-.629.63.63 0 0 0-.628.629.63.63 0 0 0 .628.629.63.63 0 0 0 .629-.629m78.772 26.73a.63.63 0 0 0-.629-.629.63.63 0 0 0-.629.629.63.63 0 0 0 .629.628.63.63 0 0 0 .629-.628m-68.066 56.226a.63.63 0 0 0-.629-.629.63.63 0 0 0-.629.629.63.63 0 0 0 .629.629.63.63 0 0 0 .629-.629m-133.502 13.272a.63.63 0 0 0-.629-.629.63.63 0 0 0-.629.629.63.63 0 0 0 .629.629.63.63 0 0 0 .629-.629m-19.992-46.194a.63.63 0 0 0-.629-.629.63.63 0 0 0-.629.629.63.63 0 0 0 .629.628.63.63 0 0 0 .629-.628m140.762-64.8a.63.63 0 0 0-.629-.629.63.63 0 0 0-.629.629.63.63 0 0 0 .629.628.63.63 0 0 0 .629-.628m188.846 16.03a.63.63 0 0 0-.629-.629.63.63 0 0 0-.629.629.63.63 0 0 0 .629.628.63.63 0 0 0 .629-.628m-1.428 58.475a.63.63 0 0 0-.629-.629.63.63 0 0 0-.629.629.63.63 0 0 0 .629.629.63.63 0 0 0 .629-.629m-85.056 32.936a.63.63 0 0 0-.629-.629.63.63 0 0 0-.629.629.63.63 0 0 0 .629.629.63.63 0 0 0 .629-.629M403.493 372.44a.63.63 0 0 0-.629-.629.63.63 0 0 0-.629.629.63.63 0 0 0 .629.629.63.63 0 0 0 .629-.629m-21.417-71.534a.63.63 0 0 0-.629-.629.63.63 0 0 0-.629.629.63.63 0 0 0 .629.629.63.63 0 0 0 .629-.629m143.736-48.77a.63.63 0 0 0-.629-.628.63.63 0 0 0-.628.628.63.63 0 0 0 .628.629.63.63 0 0 0 .629-.629m106.018 121.33a.63.63 0 0 0-.629-.629.63.63 0 0 0-.629.629.63.63 0 0 0 .629.628.63.63 0 0 0 .629-.628m-78.028 17.63a.63.63 0 0 0-.629-.629.63.63 0 0 0-.629.629.63.63 0 0 0 .629.629.63.63 0 0 0 .629-.629"/><use xlink:href="#CP"/><path d="M390.128 283.445a.63.63 0 0 0-.629-.628.63.63 0 0 0-.629.628.63.63 0 0 0 .629.629.63.63 0 0 0 .629-.629m80.817-64.687a.63.63 0 0 0-.629-.629.63.63 0 0 0-.628.629.63.63 0 0 0 .628.629.63.63 0 0 0 .629-.629m123.475 28.078a.63.63 0 0 0-.629-.629.63.63 0 0 0-.628.629.63.63 0 0 0 .628.629.63.63 0 0 0 .629-.629"/><use xlink:href="#CQ"/><use xlink:href="#CR"/><path d="M376.982 402.47a.63.63 0 0 0-.629-.629.63.63 0 0 0-.629.629.63.63 0 0 0 .629.629.63.63 0 0 0 .629-.629M270.02 365.066a.63.63 0 0 0-.628-.629.63.63 0 0 0-.629.629.63.63 0 0 0 .629.629.63.63 0 0 0 .628-.629m38.104-66.84a.63.63 0 0 0-.629-.629.63.63 0 0 0-.629.629.63.63 0 0 0 .629.629.63.63 0 0 0 .629-.629M511.67 252.1a.63.63 0 0 0-.628-.629.63.63 0 0 0-.629.629.63.63 0 0 0 .629.628.63.63 0 0 0 .628-.628m157.58 117.674a.63.63 0 0 0-.629-.629.63.63 0 0 0-.629.629.63.63 0 0 0 .629.628.63.63 0 0 0 .629-.628m-133.787 37.24a.63.63 0 0 0-.629-.628.63.63 0 0 0-.629.628.63.63 0 0 0 .629.629.63.63 0 0 0 .629-.629M370.7 403.162a.63.63 0 0 0-.629-.628.63.63 0 0 0-.629.628.63.63 0 0 0 .629.629.63.63 0 0 0 .629-.629m-67.87-20.714a.63.63 0 0 0-.629-.629.63.63 0 0 0-.629.629.63.63 0 0 0 .629.629.63.63 0 0 0 .629-.629m160.222-34.178a.63.63 0 0 0-.629-.629.63.63 0 0 0-.629.629.63.63 0 0 0 .629.629.63.63 0 0 0 .629-.629m195.516 3.395a.63.63 0 0 0-.629-.629.63.63 0 0 0-.629.629.63.63 0 0 0 .629.629.63.63 0 0 0 .629-.629M632.45 387.96a.63.63 0 0 0-.628-.629.63.63 0 0 0-.629.629.63.63 0 0 0 .629.629.63.63 0 0 0 .628-.629M417.585 421.9a.63.63 0 0 0-.629-.629.63.63 0 0 0-.629.629.63.63 0 0 0 .629.629.63.63 0 0 0 .629-.629m-159.493-17.46a.63.63 0 0 0-.628-.628.63.63 0 0 0-.629.628.63.63 0 0 0 .629.629.63.63 0 0 0 .628-.629m17.366-47.55a.63.63 0 0 0-.629-.629.63.63 0 0 0-.628.629.63.63 0 0 0 .628.629.63.63 0 0 0 .629-.629m187.577-2.96a.63.63 0 0 0-.629-.628.63.63 0 0 0-.629.628.63.63 0 0 0 .629.629.63.63 0 0 0 .629-.629m178.105-12.975a.63.63 0 0 0-.629-.629.63.63 0 0 0-.629.629.63.63 0 0 0 .629.628.63.63 0 0 0 .629-.628m-52.782-10.678a.63.63 0 0 0-.629-.629.63.63 0 0 0-.629.629.63.63 0 0 0 .629.629.63.63 0 0 0 .629-.629M488.345 283.55a.63.63 0 0 0-.629-.629.63.63 0 0 0-.628.629.63.63 0 0 0 .628.629.63.63 0 0 0 .629-.629m18.01-16.662a.63.63 0 0 0-.629-.629.63.63 0 0 0-.628.629.63.63 0 0 0 .628.629.63.63 0 0 0 .629-.629"/><use xlink:href="#CS"/><use xlink:href="#CT"/><use xlink:href="#CU"/><use xlink:href="#CV"/><use xlink:href="#CW"/><use xlink:href="#CX"/><path d="M400.194 341c0-.174-.142-.316-.316-.316s-.316.142-.316.316.142.316.316.316.316-.142.316-.316"/><use xlink:href="#CY"/><use xlink:href="#CZ"/><path d="M445.333 347.05c0-.174-.142-.316-.315-.316s-.317.142-.317.316.142.316.317.316.315-.14.315-.316m-30.1-19.444c0-.174-.142-.316-.315-.316s-.317.142-.317.316.142.316.317.316.315-.14.315-.316m14.667-2.724c0-.175-.142-.316-.316-.316s-.316.14-.316.316.142.316.316.316.316-.142.316-.316"/><use xlink:href="#Ca"/><use xlink:href="#Cb"/><path d="M447.296 385.765c0-.175-.142-.316-.316-.316s-.316.14-.316.316.142.316.316.316.316-.142.316-.316"/><use xlink:href="#Cc"/><path d="M441.977 312.882c0-.174-.142-.316-.316-.316s-.316.142-.316.316.142.316.316.316.316-.142.316-.316m97.36 10.753c0-.174-.142-.316-.316-.316s-.316.142-.316.316.142.316.316.316.316-.142.316-.316m-2.654 41.38c0-.175-.142-.316-.316-.316s-.316.14-.316.316.14.316.316.316.316-.142.316-.316m-98.086 8.393c0-.174-.142-.316-.315-.316s-.317.142-.317.316.142.316.317.316.315-.142.315-.316"/><use xlink:href="#Cd"/><path d="M437.298 342.35c0-.174-.14-.316-.315-.316s-.317.142-.317.316.142.316.317.316.315-.14.315-.316m32.686 42.055c0-.174-.142-.316-.315-.316s-.317.142-.317.316.142.316.317.316.315-.14.315-.316M375.23 397.05c0-.174-.142-.316-.315-.316s-.317.142-.317.316.142.316.317.316.315-.142.315-.316m-34.716-32.062c0-.174-.142-.316-.315-.316s-.317.142-.317.316.142.316.317.316.315-.14.315-.316m48.706 9.382c0-.174-.14-.316-.315-.316s-.316.142-.316.316.14.316.316.316.315-.142.315-.316"/><use xlink:href="#Ce"/><path d="M315.216 414.395c0-.174-.142-.316-.316-.316s-.316.142-.316.316.14.316.316.316.316-.14.316-.316m-15.383-10.7c0-.174-.142-.316-.315-.316s-.317.142-.317.316.142.316.317.316.315-.142.315-.316m36.06 8.023c0-.175-.142-.316-.316-.316s-.316.14-.316.316.142.316.316.316.316-.142.316-.316m-5.995 21.376c0-.174-.142-.316-.315-.316s-.317.142-.317.316.142.316.317.316.315-.14.315-.316"/><path d="M249.896 431.707c0-.175-.142-.316-.316-.316s-.316.14-.316.316.14.316.316.316.316-.142.316-.316m-19.34-22.694c0-.175-.142-.316-.316-.316s-.316.14-.316.316.142.316.316.316.316-.142.316-.316m76.668-7.34c0-.174-.142-.316-.316-.316s-.316.142-.316.316.142.316.316.316.316-.142.316-.316m64.695 15.433c0-.174-.142-.316-.316-.316s-.316.142-.316.316.142.316.316.316.316-.142.316-.316"/><path d="M359.885 411.74c0-.175-.142-.316-.316-.316s-.316.14-.316.316.142.316.316.316.316-.142.316-.316m-7.34-42.064c0-.174-.142-.316-.316-.316s-.316.142-.316.316.142.316.316.316.316-.142.316-.316M464 363.7c0-.175-.142-.316-.315-.316s-.317.14-.317.316.142.316.317.316.315-.142.315-.316m34.678 29.355c0-.174-.142-.316-.316-.316s-.316.142-.316.316.142.316.316.316.316-.142.316-.316"/><path d="M398.594 387.74c0-.174-.142-.316-.316-.316s-.316.142-.316.316.142.316.316.316.316-.142.316-.316m-67.397-70.788c0-.174-.142-.316-.315-.316s-.317.142-.317.316.142.316.317.316.315-.142.315-.316m108.8 4.652c0-.175-.142-.316-.315-.316s-.317.14-.317.316.142.316.317.316.315-.142.315-.316m19.363 12.65c0-.174-.142-.316-.315-.316s-.317.142-.317.316.142.316.317.316.315-.14.315-.316m-35.44-30.706c0-.174-.142-.316-.316-.316s-.316.142-.316.316.142.316.316.316.316-.142.316-.316m79.44-6.613c0-.175-.142-.316-.316-.316s-.316.14-.316.316.142.316.316.316.316-.142.316-.316m130.74 40.03c0-.175-.142-.316-.315-.316s-.317.14-.317.316.142.316.317.316.315-.142.315-.316m-20.066 33.37c0-.174-.142-.316-.315-.316s-.317.142-.317.316.142.316.317.316.315-.14.315-.316"/><path d="M563.36 324.295c0-.174-.14-.316-.315-.316s-.317.142-.317.316.142.316.317.316.315-.142.315-.316m44.024-8.653c0-.175-.142-.316-.316-.316s-.316.14-.316.316.142.315.316.315.316-.14.316-.315M632.753 347c0-.174-.142-.316-.316-.316s-.316.142-.316.316.142.316.316.316.316-.14.316-.316m-69.393-8.675c0-.174-.142-.316-.316-.316s-.316.142-.316.316.142.316.316.316.316-.14.316-.316m1.326-54.73c0-.174-.142-.316-.316-.316s-.316.142-.316.316.142.316.316.316.316-.142.316-.316M629.4 291.6c0-.175-.142-.316-.316-.316s-.316.14-.316.316.14.316.316.316.316-.142.316-.316m-42.7-12.015c0-.175-.142-.316-.315-.316s-.317.14-.317.316.142.316.317.316.315-.142.315-.316m-12.672-10.025c0-.175-.142-.316-.315-.316s-.317.14-.317.316.142.316.317.316.315-.142.315-.316m70.07 25.385c0-.174-.142-.316-.315-.316s-.317.142-.317.316.142.316.317.316.315-.142.315-.316m-35.39-9.403c0-.174-.142-.316-.315-.316s-.317.142-.317.316.142.316.317.316.315-.142.315-.316M565.34 256.88c0-.174-.142-.316-.315-.316s-.317.142-.317.316.142.316.317.316.315-.14.315-.316M552 286.937c0-.175-.142-.316-.316-.316s-.316.14-.316.316.142.315.316.315.316-.14.316-.315m-73.982-20.7c0-.175-.142-.316-.315-.316s-.317.14-.317.316.142.316.317.316.315-.142.315-.316m-14.708-8.7c0-.175-.142-.316-.315-.316s-.317.14-.317.316.142.316.317.316.315-.142.315-.316m-9.37 30.068c0-.175-.142-.316-.316-.316s-.316.14-.316.316.14.316.316.316.316-.142.316-.316m-41.374-5.384c0-.174-.142-.316-.315-.316s-.317.142-.317.316.142.316.317.316.315-.142.315-.316"/><path d="M425.918 262.864c0-.174-.142-.316-.316-.316s-.316.142-.316.316.142.316.316.316.316-.142.316-.316m32.126 23.366c0-.174-.142-.316-.316-.316s-.316.142-.316.316.142.316.316.316.316-.142.316-.316"/><path d="M451.948 276.854c0-.174-.14-.316-.315-.316s-.317.142-.317.316.142.316.317.316.315-.142.315-.316m40.054-29.976c0-.175-.142-.315-.315-.315s-.317.14-.317.315.142.315.317.315.315-.14.315-.315m118.063 43.437c0-.174-.142-.316-.315-.316s-.317.142-.317.316.142.316.317.316.315-.14.315-.316m8.705 82.73c0-.174-.142-.316-.316-.316s-.316.142-.316.316.142.316.316.316.316-.142.316-.316m-43.4-4.694c0-.174-.142-.316-.316-.316s-.316.142-.316.316.14.316.316.316.316-.142.316-.316m32.017-18.027c0-.174-.142-.316-.315-.316s-.317.142-.317.316.142.316.317.316.315-.14.315-.316m48.046 42.04c0-.175-.142-.316-.315-.316s-.317.14-.317.316.142.315.317.315.315-.14.315-.315m-44.68 24.044c0-.175-.142-.316-.316-.316s-.316.14-.316.316.142.316.316.316.316-.142.316-.316m-23.063-15.37c0-.174-.142-.316-.315-.316s-.317.142-.317.316.142.316.317.316.315-.14.315-.316m34.412 10.674c0-.174-.142-.316-.316-.316s-.316.142-.316.316.142.316.316.316.316-.14.316-.316m18.648 21.364c0-.175-.14-.316-.315-.316s-.316.14-.316.316.14.316.316.316.315-.142.315-.316m-63.406-9.314c0-.175-.142-.316-.316-.316s-.316.14-.316.316.142.316.316.316.316-.142.316-.316m-47.314-25.375c0-.174-.142-.316-.316-.316s-.316.142-.316.316.142.316.316.316.316-.14.316-.316m73.338 15.995c0-.174-.142-.316-.315-.316s-.317.142-.317.316.142.316.317.316.315-.142.315-.316m-86.012 17.396c0-.174-.142-.316-.316-.316s-.316.142-.316.316.142.316.316.316.316-.14.316-.316m-23.45-13.375c0-.175-.14-.316-.315-.316s-.317.14-.317.316.142.316.317.316.315-.142.315-.316m92.8-.673c0-.174-.142-.316-.315-.316s-.317.142-.317.316.142.316.317.316.315-.142.315-.316m-32.692 16.705c0-.175-.142-.316-.315-.316s-.317.14-.317.316.142.316.317.316.315-.142.315-.316m-104.058-4.017c0-.175-.142-.316-.315-.316s-.317.14-.317.316.142.316.317.316.315-.142.315-.316m61.166-12.018c0-.174-.142-.316-.315-.316s-.317.142-.317.316.142.316.317.316.315-.14.315-.316m-20.5 6.1c0-.174-.142-.316-.316-.316s-.316.142-.316.316.14.316.316.316.316-.142.316-.316"/><use xlink:href="#Cf"/><use xlink:href="#Cg"/><use xlink:href="#Ch"/><path d="M507.818 303.102a.931.931 0 1 0-1.863 0 .93.93 0 0 0 .931.932c.515 0 .932-.418.932-.932m86.118 40.512a.93.93 0 0 0-.932-.932c-.514 0-.932.417-.932.932s.418.932.932.932a.93.93 0 0 0 .932-.932M521.6 383.296a.932.932 0 1 0-1.863 0 .932.932 0 1 0 1.863 0m-154.57-19.3a.931.931 0 1 0-1.863 0 .931.931 0 1 0 1.863 0m-11.578-64.974c0-.514-.417-.932-.932-.932a.932.932 0 1 0 0 1.864.93.93 0 0 0 .932-.932m116.72-9.8c0-.514-.417-.932-.932-.932s-.932.418-.932.932.418.932.932.932a.93.93 0 0 0 .932-.932m108.546 83.243a.932.932 0 1 0-1.863 0 .932.932 0 1 0 1.863 0M290.092 399.28a.931.931 0 1 0-1.863 0 .93.93 0 0 0 .931.932c.515 0 .932-.418.932-.932"/><path d="M290.852 398.885a.931.931 0 1 0-1.863 0 .93.93 0 0 0 .931.932c.515 0 .932-.418.932-.932m52.928-59.262a.931.931 0 1 0-1.863 0 .931.931 0 1 0 1.863 0m214.205 1.347a.932.932 0 1 0-1.863 0 .932.932 0 1 0 1.863 0m-4.61-74.784c0-.515-.418-.932-.932-.932s-.932.417-.932.932.418.932.932.932.932-.417.932-.932"/></g><g clip-path="url(#AU)"><g class="F"><path d="M543.063 356.017l.148-1.003c.113-.754.705-1.347 1.46-1.458l1.003-.15-1.003-.15c-.754-.112-1.346-.704-1.46-1.458l-.148-1.004-.148 1.004c-.113.754-.705 1.346-1.46 1.458l-1.003.15 1.003.15c.754.1 1.346.704 1.46 1.458zm54.923-59.3l.095-.633a1.09 1.09 0 0 1 .92-.921l.633-.094-.633-.094a1.09 1.09 0 0 1-.92-.92l-.095-.634-.094.634a1.09 1.09 0 0 1-.92.92l-.633.094.633.094a1.09 1.09 0 0 1 .921.921zm53.414 18.608l.094-.633a1.09 1.09 0 0 1 .92-.92l.633-.094-.633-.094a1.09 1.09 0 0 1-.92-.92l-.094-.633-.094.633a1.09 1.09 0 0 1-.92.92l-.633.094.633.094a1.09 1.09 0 0 1 .92.92zm-236.48 64.563l.094-.634a1.09 1.09 0 0 1 .92-.92l.633-.094-.633-.094a1.09 1.09 0 0 1-.92-.92l-.094-.634-.094.634a1.09 1.09 0 0 1-.92.92l-.633.094.633.094a1.09 1.09 0 0 1 .921.92zm44.84-3.51l.285-1.92c.215-1.445 1.35-2.58 2.793-2.793l1.922-.285-1.922-.285c-1.444-.214-2.578-1.348-2.793-2.793l-.285-1.92-.284 1.92c-.215 1.445-1.35 2.58-2.793 2.793l-1.922.285 1.922.285c1.444.214 2.578 1.348 2.793 2.793zm-69.708-68.527l.123-.83a1.43 1.43 0 0 1 1.206-1.206l.83-.123-.83-.123a1.43 1.43 0 0 1-1.206-1.207l-.123-.83-.124.83a1.43 1.43 0 0 1-1.206 1.207l-.83.123.83.123a1.43 1.43 0 0 1 1.206 1.206zm93.655 50.23l.123-.83a1.43 1.43 0 0 1 1.206-1.206l.83-.124-.83-.123a1.43 1.43 0 0 1-1.206-1.206l-.123-.83-.123.83a1.43 1.43 0 0 1-1.207 1.206l-.83.123.83.124a1.43 1.43 0 0 1 1.207 1.206zm-129.83 36.83l.123-.83c.093-.624.582-1.114 1.206-1.207l.83-.123-.83-.123a1.43 1.43 0 0 1-1.206-1.206l-.123-.83-.123.83a1.43 1.43 0 0 1-1.207 1.206l-.83.123.83.123c.624.093 1.114.583 1.207 1.207zm-80 24.43l.123-.83c.093-.624.582-1.114 1.206-1.207l.83-.123-.83-.123a1.43 1.43 0 0 1-1.206-1.206l-.123-.83-.123.83a1.43 1.43 0 0 1-1.206 1.206l-.83.123.83.123c.623.093 1.113.583 1.206 1.207zm361.52-59.1l.123-.83a1.43 1.43 0 0 1 1.206-1.206l.83-.123-.83-.123c-.624-.093-1.113-.583-1.206-1.207l-.123-.83-.123.83c-.093.624-.583 1.114-1.207 1.207l-.83.123.83.123c.624.093 1.114.582 1.207 1.206zm-57.348 29.323l.123-.83c.093-.624.583-1.113 1.207-1.206l.83-.123-.83-.123c-.624-.093-1.114-.583-1.207-1.207l-.123-.83-.123.83c-.093.624-.582 1.114-1.206 1.207l-.83.123.83.123a1.43 1.43 0 0 1 1.206 1.206zm-235.2-58.806l.204-1.38c.154-1.038.97-1.853 2.007-2.007l1.38-.205-1.38-.205c-1.038-.154-1.853-.97-2.007-2.006l-.204-1.38-.205 1.38c-.154 1.037-.97 1.852-2.007 2.006l-1.38.205 1.38.205c1.038.154 1.853.97 2.007 2.007zm128.688-1.663l.205-1.38c.154-1.037.97-1.852 2.007-2.006l1.38-.205-1.38-.205c-1.038-.154-1.853-.97-2.007-2.007l-.205-1.38-.204 1.38c-.154 1.038-.97 1.853-2.007 2.007l-1.38.205 1.38.205c1.038.154 1.853.97 2.007 2.006z"/></g><g clip-path="url(#AV)" opacity=".08"><g transform="translate(627.295 197.302)" class="B C E G"><path d="M0 0c0-2.57-2.084-4.655-4.655-4.655S-9.3-2.57-9.3 0s2.084 4.654 4.655 4.654S0 2.57 0 0z" stroke="url(#AW)"/></g><g transform="translate(397.618 178.364)" class="B C E G"><path d="M0 0c0-2.57-2.084-4.654-4.654-4.654S-9.3-2.57-9.3 0s2.084 4.654 4.656 4.654S0 2.57 0 0z" stroke="url(#AX)"/></g><g transform="translate(638 219)" class="B C D E G"><path d="M0 0v-7.167" stroke="url(#AY)"/></g><g transform="translate(641.583 215.417)" class="B C D E G"><path d="M0 0h-7.166" stroke="url(#AZ)"/></g><g transform="translate(369.875 196.231)" class="B C D E G"><path d="M0 0v-7.167" stroke="url(#Aa)"/></g><g transform="translate(373.459 192.647)" class="B C D E G"><path d="M0 0h-7.167" stroke="url(#Ab)"/></g><g transform="translate(646.523 192.647)" class="B C D E"><path d="M0 0v-3.583" stroke="url(#Ac)"/></g><g transform="translate(648.315 190.856)" class="B C D E"><path d="M0 0h-3.583" stroke="url(#Ad)"/></g><g transform="translate(411.193 194.439)" class="B C D E"><path d="M0 0v-3.583" stroke="url(#Ae)"/></g><g transform="translate(412.984 192.647)" class="B C D E"><path d="M0 0h-3.583" stroke="url(#Af)"/></g><g clip-path="url(#Ag)"><path d="M632.222 178.514c0-.683-.553-1.236-1.236-1.236s-1.236.553-1.236 1.236.554 1.236 1.236 1.236 1.236-.554 1.236-1.236" fill="url(#Ah)"/></g><g clip-path="url(#Ai)"><path d="M370.615 168.73a2.41 2.41 0 0 0-2.408-2.409 2.41 2.41 0 0 0-2.408 2.409 2.41 2.41 0 0 0 2.408 2.409 2.41 2.41 0 0 0 2.408-2.409" fill="url(#Aj)"/></g><g clip-path="url(#Ak)"><path d="M352.952 194.438c0-.682-.554-1.236-1.236-1.236s-1.236.554-1.236 1.236.553 1.237 1.236 1.237 1.236-.554 1.236-1.237" fill="url(#Al)"/></g><g clip-path="url(#Am)"><path d="M397.29 194.212c0-.25-.204-.454-.454-.454s-.455.203-.455.454.204.455.455.455.454-.204.454-.455" fill="url(#An)"/></g></g></g><g clip-path="url(#Ao)"><path d="M508.366 265.813s-3.915.033-5.848-1.344h0c-2.162-1.54-7.7-14.343-1.512-29.87h0c1.59-3.994 3.957-8.167 7.36-12.377h0c3.403 4.2 5.77 8.383 7.36 12.377h0c6.188 15.528.65 28.332-1.5 29.87h0c-1.846 1.314-5.493 1.344-5.825 1.344h0-.024" fill="url(#Ap)"/></g><g clip-path="url(#Aq)"><path d="M508.366 260.647s-3.314.024-4.952-.916h0c-1.83-1.05-6.518-9.773-1.28-20.356h0c1.347-2.72 3.35-5.566 6.23-8.435h0c2.88 2.87 4.884 5.714 6.23 8.435h0c5.238 10.583.55 19.307-1.28 20.356h0c-1.56.895-4.642.916-4.93.916h0-.022" fill="url(#Ar)"/></g><g clip-path="url(#As)"><path d="M475.318 240.005c-.843 18.214 16.094 37.186 16.094 37.186h0l-6.86 30.358c-33.84-28.6-9.233-67.544-9.233-67.544" fill="url(#At)"/></g><g clip-path="url(#Au)"><path d="M525.32 277.19s16.937-18.972 16.094-37.186h0s24.606 38.954-9.232 67.544h0z" fill="url(#Av)"/></g><g clip-path="url(#Aw)"><path d="M495.37 319.32c-10.93-34.7-1.15-63.32 2.67-66.76h0c3.4-3.07 10.33-3 10.33-3h0s1.62-.02 3.7.32h0c2.2.35 4.87 1.1 6.63 2.68h0c1.6 1.44 4.26 7.33 5.99 16.24h0c2.392 12.3 3.022 30.4-3.32 50.52h0c-2.81 8.93-6.98 18.25-13 27.66h0c-6-9.4-10.2-18.73-13-27.66" fill="url(#Ax)"/></g><g clip-path="url(#Ay)"><g clip-path="url(#Az)" opacity=".12"><path d="M524.68 268.8c-1.73-8.9-4.4-14.8-6-16.24-1.76-1.58-4.44-2.33-6.63-2.68.93 3.52.41 6.16.41 6.16z"/></g><path d="M522.5 259.86c-2.67-2.4-6.9-3.4-10.04-3.82-2.36-.3-4.1-.3-4.1-.3s-9.47-.1-14.15 4.1c-5.22 4.7-18.61 43.9-3.65 91.4 3.85 12.22 9.57 25 17.8 37.88 0 0 .01-.02.04-.07 8.2-12.87 13.92-25.6 17.75-37.8 14.96-47.5 1.57-86.7-3.65-91.4" class="F"/></g><g clip-path="url(#BA)"><path d="M490.57 351.266c5.34-2.732 11.388-4.284 17.796-4.284h0c6.407 0 12.455 1.552 17.795 4.284h0c-3.844 12.22-9.566 24.99-17.795 37.87h0c-8.23-12.882-13.95-25.652-17.796-37.87" fill="url(#BB)"/></g><g clip-path="url(#BC)"><path d="M492.253 320.57c0-8.9 7.214-16.113 16.113-16.113h0c8.898 0 16.113 7.214 16.113 16.113h0c0 8.898-7.215 16.113-16.113 16.113h0c-8.9 0-16.113-7.215-16.113-16.113" fill="url(#BD)"/></g><g clip-path="url(#BE)"><path d="M495.25 320.57a13.12 13.12 0 0 1 13.115-13.116h0a13.12 13.12 0 0 1 13.115 13.116h0a13.12 13.12 0 0 1-13.115 13.115h0a13.12 13.12 0 0 1-13.115-13.115" fill="url(#BF)"/></g><g clip-path="url(#BG)" class="B C D E G"><g clip-path="url(#BH)" opacity=".64" stroke="#fff"><path d="M518.247 322.287c.096-.558.146-1.132.146-1.718m-10.027 10.027a10 10 0 0 0 8.294-4.392"/></g></g><g clip-path="url(#BI)"><path d="M498.34 288.434a10.03 10.03 0 0 1 10.027-10.027h0a10.03 10.03 0 0 1 10.028 10.027h0a10.03 10.03 0 0 1-10.028 10.028h0a10.03 10.03 0 0 1-10.027-10.028" fill="url(#BJ)"/></g><g clip-path="url(#BK)"><path d="M500.204 288.434c0-4.507 3.655-8.16 8.162-8.16h0c4.508 0 8.16 3.654 8.16 8.16h0c0 4.508-3.653 8.162-8.16 8.162h0c-4.507 0-8.162-3.654-8.162-8.162" fill="url(#BL)"/></g><g clip-path="url(#BN)"><path d="M627.818 323.352l3.206-1.94 9.105 15.038-3.207 1.942z" fill="url(#BO)"/></g><g clip-path="url(#BP)"><path d="M633.367 350.365a10.73 10.73 0 0 1 3.622-14.734h0a10.73 10.73 0 0 1 14.733 3.62h0c3.07 5.07 1.448 11.666-3.62 14.735h0c-1.737 1.05-3.654 1.552-5.546 1.552h0c-3.63 0-7.172-1.842-9.19-5.173m4.894-12.634c-3.91 2.366-5.16 7.452-2.793 11.36h0c2.366 3.91 7.453 5.16 11.36 2.793h0c3.9-2.366 5.16-7.453 2.793-11.362h0a8.27 8.27 0 0 0-7.085-3.989h0c-1.46 0-2.936.386-4.276 1.197" fill="url(#BQ)"/></g><g clip-path="url(#BR)"><path d="M629.07 326.732l-7.566-12.498a.95.95 0 0 1 .321-1.307h0l2.74-1.658a.95.95 0 0 1 1.305.321h0l7.568 12.498a.95.95 0 0 1-.322 1.306h0l-2.74 1.66a.95.95 0 0 1-.492.138h0c-.322 0-.636-.164-.815-.46" fill="url(#BS)"/></g><g clip-path="url(#BT)" class="H"><g clip-path="url(#BU)" opacity=".28"><path d="M649.622 340.523c2.366 3.91 1.116 8.995-2.793 11.36s-8.994 1.116-11.36-2.792-1.117-8.995 2.792-11.36 8.995-1.116 11.36 2.792"/></g><g clip-path="url(#BV)" opacity=".28"><path d="M648.68 346.08c.573.946.27 2.178-.677 2.75s-2.177.27-2.75-.676-.27-2.18.676-2.75 2.18-.27 2.752.676"/></g><g clip-path="url(#BW)" opacity=".28"><path d="M648.218 342.696a.68.68 0 0 1-.229.932.68.68 0 0 1-.932-.229.68.68 0 0 1 .228-.932.68.68 0 0 1 .933.229"/></g></g><g clip-path="url(#BX)"><path d="M579.948 293.478l.642-.01-.166.726z" fill="url(#BY)"/></g><g clip-path="url(#BZ)"><path d="M559.84 293.418l20.222-.342.527.39-.643.01 2.307 1.715.643-.01.522.39-.642.01-19.58.33z" fill="url(#Ba)"/></g><g clip-path="url(#Bb)" class="F"><path d="M582.254 295.193l-2.307-1.715-18.915.32 2.307 1.715z"/></g><g clip-path="url(#Bc)"><path d="M552.715 324.714l7.126-31.296 3.357 2.497-7.127 31.294z" fill="url(#Bd)"/></g><g clip-path="url(#Be)"><path d="M563.198 295.915l20.222-.345-7.127 31.295-20.222.344z" fill="url(#Bf)"/></g><g clip-path="url(#Bg)"><path d="M561.307 317.266l14.854-.22-1.568 6.992-14.852.222z" fill="url(#Bh)"/></g><g clip-path="url(#Bi)"><path d="M460.802 304.235l.556.63-.862.454z" fill="url(#Bj)"/></g><g clip-path="url(#Bk)"><path d="M461.115 308.84l-16.98-19.2-.372-5.462 17.537 19.83.06.858-.556-.63.255 3.754.558.63.057.85z" fill="url(#Bl)"/></g><g clip-path="url(#Bm)" class="F"><path d="M461.058 307.99l-.256-3.753-16.406-18.55.255 3.754z"/></g><g clip-path="url(#Bn)"><path d="M406.558 303.7l37.202-19.524.372 5.463-37.203 19.524z" fill="url(#Bo)"/></g><g clip-path="url(#Bp)"><path d="M406.93 309.164l37.203-19.524 17.54 19.83-37.203 19.524z" fill="url(#Bq)"/></g><g clip-path="url(#Br)"><path d="M412.985 310.306l8.29-4.388L434.13 320.5l-8.29 4.387z" fill="url(#Bs)"/></g><g clip-path="url(#Bt)"><path d="M379.833 250a19.57 19.57 0 0 1 19.566-19.567h0A19.57 19.57 0 0 1 418.966 250h0a19.57 19.57 0 0 1-19.567 19.566h0A19.57 19.57 0 0 1 379.833 250" fill="url(#Bu)"/><g stroke="#271b2a" stroke-width="1.199" class="B C D E"><path d="M419.388 249.204c-5.957 6.36-15.067 10.432-25.282 10.432-4.795 0-9.342-.904-13.44-2.512"/><path d="M394.37 269.393c-4.468-4.295-7.317-10.806-7.317-18.094 0-9.474 4.823-17.616 11.748-21.304.196-.005.386-.03.584-.03m13 4.803c-11.478 5.053-16.46 19.477-25.17 19.477-7.8 0-6.64-10.6-6.544-11.356"/><path d="M385.77 264.685c.045-.217.592-2.24 5.247-.93 4.907 1.38 12.617 4.692 19.956 2.6"/></g></g><g clip-path="url(#Bv)"><path d="M324.864 366.98l26.875-14.433-12.44 41.308zm6.312 1.9l6.905 12.855 5.95-19.76z" fill="url(#Bw)"/></g><g clip-path="url(#Bx)"><g fill="#ff5617"><use xlink:href="#Ci"/><use xlink:href="#Cj"/><path d="M347.296 361.025l.157-.52 1.732.522-.157.52zm-.552 1.833l.156-.52 1.733.522-.157.518zm-.552 1.832l.156-.52 1.733.522-.157.52zm-.552 1.834l.156-.52 1.733.522-.157.52zm-.552 1.833l.156-.52 1.733.522-.157.518zm-.552 1.843l.156-.52 1.733.522-.157.52zm-.552 1.823l.156-.52 1.733.522-.157.518zm-.55 1.832l.156-.52 1.733.522-.157.52zm-.553 1.833l.156-.52 1.733.522-.157.518zm-.552 1.832l.156-.52 1.733.522-.157.52zm-.552 1.834l.156-.52 1.733.522-.157.518zm-.55 1.832l.156-.52 1.732.522-.156.52zm-.553 1.834l.156-.52 1.733.522-.157.52zm-.552 1.832l.156-.52 1.733.522-.157.52zm-.552 1.833l.156-.52 1.733.522-.157.52zm-.552 1.833l.157-.52 1.732.522-.157.518z"/></g><path d="M570.435 369.597l7.988-4.72 25.68 13.926z" class="F"/><path d="M578.423 364.876l-.75-3.39 26.43 17.317z" fill="#cad1e3"/><path d="M577.674 361.485l3.817.44 22.612 16.877z" fill="#dbe1f3"/><path d="M604.103 378.802l-22.61-16.876 5.01-8.38z" class="F"/><g clip-path="url(#By)" opacity=".77" class="F"><path d="M404.22 343.574l-14.37 15.565-2.555 15.282.045.007c.603.1 1 .672.91 1.274a1.11 1.11 0 0 1-1.274.91l-6.697-1.12c-.603-.1-1-.67-.91-1.273s.67-1.01 1.274-.9l.044.008 2.554-15.282-8.526-19.392c-2.077-4.723 1.922-9.863 7-9.013l18.796 3.14c5.09.85 7.197 7.012 3.698 10.803"/></g></g><g clip-path="url(#Bz)"><path d="M388.066 346.23c-6.096.463-8.16-1.132-8.16-1.132h0l-3.218-7.32a4.27 4.27 0 0 1 .545-4.407h0c.995-1.28 2.542-1.882 4.138-1.616h0l18.795 3.142c1.597.267 2.863 1.34 3.388 2.872h0a4.27 4.27 0 0 1-.917 4.345h0l-5.868 6.358c-2.252-.695-4.7-2.543-8.703-2.24" fill="url(#CA)"/></g><g clip-path="url(#CB)"><g fill="#acdffc"><path d="M387.073 339.778a1.34 1.34 0 0 0-1.1-1.541 1.34 1.34 0 0 0-1.541 1.1 1.34 1.34 0 0 0 1.1 1.541 1.34 1.34 0 0 0 1.541-1.1m13.143-1.466c.17-1.027-.52-1.998-1.548-2.17s-1.998.52-2.17 1.547.522 1.998 1.548 2.17 1.998-.522 2.17-1.548m-10.15-2.42a.54.54 0 0 0-.442-.62.54.54 0 0 0-.62.442.54.54 0 0 0 .442.62.54.54 0 0 0 .62-.442m-7.117-.44a.591.591 0 1 0-1.165-.195.591.591 0 1 0 1.165.195m5.915 7.604c.01-.063-.03-.123-.095-.133s-.123.032-.134.095.033.122.096.133.123-.032.133-.095m8.728 1.846c.01-.063-.032-.123-.096-.133s-.123.032-.133.095.032.123.095.133.123-.032.134-.095m-4.24-6.178c.01-.063-.03-.123-.095-.133s-.123.03-.134.095.033.122.096.133.123-.032.133-.095m7.66 2.258c.01-.063-.03-.123-.095-.133s-.123.032-.134.095.033.123.096.133.123-.032.133-.095m-18.33 2.166c.01-.063-.032-.123-.095-.133s-.123.032-.134.095.033.123.095.133.123-.032.134-.095m10.617-.672c.03-.187-.095-.363-.28-.394s-.364.095-.395.28.095.363.28.394.363-.095.394-.28m-13.303-3.878c.02-.128-.064-.25-.192-.27s-.248.065-.27.192.065.25.192.27.25-.065.27-.193"/></g><g clip-path="url(#CC)" opacity=".68" class="F"><path d="M385.706 357.58h0c-.54-.1-1.054.275-1.145.817l-1.597 9.56c-.09.542.275 1.055.816 1.145s1.055-.275 1.145-.816l1.598-9.56c.1-.542-.275-1.054-.817-1.145"/></g><g clip-path="url(#CD)" opacity=".68" class="F"><path d="M383.657 369.838h0c-.54-.1-1.054.275-1.145.817l-.327 1.956c-.1.542.276 1.055.818 1.145s1.053-.275 1.144-.817l.327-1.956c.1-.54-.275-1.054-.817-1.145"/></g><g clip-path="url(#CE)" opacity=".46" class="F"><path d="M378.225 334.524h0c-.8.328-1.164 1.233-.836 2.022l6.693 16.115a1.55 1.55 0 0 0 2.023.835c.79-.327 1.163-1.233.835-2.022l-6.693-16.115c-.328-.79-1.233-1.163-2.022-.835"/></g><g class="E B C D"><g stroke="#ff3756" stroke-width=".724"><path d="M448.17 354.174c1.556-.77 2.133-2.773 1.3-4.474s-2.785-2.457-4.34-1.688l-10.62 5.258m.453 1.284c-1.366.676-1.926 2.333-1.25 3.7s2.333 1.926 3.7 1.25l11.1-5.498"/><path d="M441.094 356.59l2.426-1.2c1.126-.556 1.586-1.92 1.03-3.046s-1.92-1.586-3.046-1.03l-6.986 3.458c-1.125.556-1.586 1.92-1.03 3.046"/></g><g stroke="#fff" stroke-width=".532"><path d="M617.5 292.315c-1.035-.744-2.535-.43-3.35.704s-.634 2.653.4 3.398l7.072 5.085"/><path d="M622.3 300.764a2.03 2.03 0 0 0 2.832-.463 2.03 2.03 0 0 0-.463-2.831l-7.396-5.318m4.223 3.925l-1.615-1.16a1.67 1.67 0 0 0-2.332.381h0a1.67 1.67 0 0 0 .382 2.332l4.65 3.344a1.67 1.67 0 0 0 2.332-.382"/></g><g stroke="#ff3756" stroke-width=".873"><path d="M585.48 223.287c.763-1.948-.348-4.204-2.48-5.038s-4.48.07-5.24 2.017l-5.2 13.3m1.45.78a3.33 3.33 0 0 0 1.888 4.313 3.33 3.33 0 0 0 4.313-1.887l5.446-13.92"/><path d="M581.127 231.186l1.19-3.04a2.74 2.74 0 0 0-1.553-3.552c-1.4-.552-3 .145-3.552 1.554l-3.426 8.754c-.552 1.4.145 3 1.555 3.552"/></g><g stroke="#ff7800" stroke-width=".699"><path d="M608.408 324.252c.938-1.4.467-3.347-1.053-4.374s-3.5-.733-4.45.656l-6.4 9.487m.995.862a2.67 2.67 0 0 0 .717 3.703 2.67 2.67 0 0 0 3.703-.717l6.704-9.922m-5.006 5.713l1.464-2.167c.68-1.004.415-2.37-.6-3.048a2.19 2.19 0 0 0-3.05.6l-4.216 6.24a2.2 2.2 0 0 0 .591 3.049"/></g><g stroke="#ffbe00" stroke-width=".985"><path d="M377.912 314.806c2.23.778 4.73-.57 5.58-3.012s-.268-5.05-2.5-5.827l-15.24-5.312m-.815 1.667a3.76 3.76 0 0 0-4.787 2.313 3.76 3.76 0 0 0 2.312 4.787l15.94 5.555m-9.587-4.747l3.48 1.213c1.615.563 3.38-.3 3.942-1.904s-.3-3.38-1.904-3.943l-10.023-3.493c-1.615-.562-3.38.3-3.942 1.905"/></g></g></g><g clip-path="url(#CF)"><path d="M290.8 406.948l2.66-1.662c1.716 2.747 5.333 3.582 8.08 1.866h0c2.745-1.716 3.582-5.334 1.865-8.08h0l2.66-1.663a9 9 0 0 1-2.865 12.402h0a8.95 8.95 0 0 1-4.759 1.368h0a8.99 8.99 0 0 1-7.642-4.232" fill="url(#CG)"/></g><g clip-path="url(#CH)"><path d="M287.896 404.91l17.598-10.994 1.727 2.765-17.597 10.995z" fill="url(#CI)"/></g><g clip-path="url(#CJ)" fill="#ff1e1c"><use xlink:href="#Ck"/><path d="M290.15 403.503l-.266.166.575.918.264-.165zm1.112-.695l-.265.166.575.918.264-.166zm1.113-.695l-.265.166.575.918.264-.166zm1.113-.696l-.265.166.574.918.265-.165zm1.114-.695l-.266.166.575.918.265-.165zm1.113-.696l-.266.166.575.918.264-.165zm1.113-.696l-.266.166.575.918.264-.166zm1.112-.694l-.265.166.575.918.264-.166zm1.114-.696l-.265.166.575.918.264-.165zm1.113-.695l-.265.166.574.918.265-.165zm1.113-.695l-.266.166.575.918.265-.166zm1.114-.696l-.266.166.575.918.264-.166zm1.113-.696l-.266.166.575.918.264-.165zm1.113-.695l-.265.166.575.918.264-.165z"/></g></g></svg>