<?xml version="1.0" encoding="UTF-8" standalone="no"?>
<!-- Created with Inkscape (http://www.inkscape.org/) -->
<svg
   xmlns:dc="http://purl.org/dc/elements/1.1/"
   xmlns:cc="http://creativecommons.org/ns#"
   xmlns:rdf="http://www.w3.org/1999/02/22-rdf-syntax-ns#"
   xmlns:svg="http://www.w3.org/2000/svg"
   xmlns="http://www.w3.org/2000/svg"
   xmlns:sodipodi="http://sodipodi.sourceforge.net/DTD/sodipodi-0.dtd"
   xmlns:inkscape="http://www.inkscape.org/namespaces/inkscape"
   width="534.78082"
   height="975.07153"
   id="svg3234"
   sodipodi:version="0.32"
   inkscape:version="0.46"
   sodipodi:docname="shokunin_japanese_character.svg"
   inkscape:output_extension="org.inkscape.output.svg.inkscape"
   version="1.0">
  <defs
     id="defs3236">
    <inkscape:perspective
       sodipodi:type="inkscape:persp3d"
       inkscape:vp_x="0 : 526.18109 : 1"
       inkscape:vp_y="0 : 1000 : 0"
       inkscape:vp_z="744.09448 : 526.18109 : 1"
       inkscape:persp3d-origin="372.04724 : 350.78739 : 1"
       id="perspective3242" />
  </defs>
  <sodipodi:namedview
     id="base"
     pagecolor="#ffffff"
     bordercolor="#666666"
     borderopacity="1.0"
     gridtolerance="10000"
     guidetolerance="10"
     objecttolerance="10"
     inkscape:pageopacity="0.0"
     inkscape:pageshadow="2"
     inkscape:zoom="0.7"
     inkscape:cx="139.28571"
     inkscape:cy="494.28571"
     inkscape:document-units="px"
     inkscape:current-layer="layer1"
     showgrid="false"
     inkscape:window-width="1920"
     inkscape:window-height="1088"
     inkscape:window-x="0"
     inkscape:window-y="22" />
  <metadata
     id="metadata3239">
    <rdf:RDF>
      <cc:Work
         rdf:about="">
        <dc:format>image/svg+xml</dc:format>
        <dc:type
           rdf:resource="http://purl.org/dc/dcmitype/StillImage" />
      </cc:Work>
    </rdf:RDF>
  </metadata>
  <g
     inkscape:label="Layer 1"
     inkscape:groupmode="layer"
     id="layer1"
     transform="translate(-119.14581,-44.826007)">
    <g
       id="g3273"
       transform="matrix(0.808182,0,0,0.808182,74.8089,120.589)">
      <path
         id="path2949"
         d="M 263.56366,1001.1611 L 251.40987,1021.0491 C 251.40987,1021.0491 235.94141,1015.5247 230.41696,1019.9442 C 224.89251,1024.3638 214.9485,1025.4687 211.63383,1033.2029 C 208.31916,1040.9371 199.48004,1046.4616 201.68982,1053.0909 C 203.8996,1059.7203 205.00449,1070.7692 205.00449,1070.7692 L 211.63383,1079.6083 L 249.20009,1093.9719 L 357.4793,1071.8741 L 350.84996,1014.4198 L 263.56366,1001.1611 z"
         style="fill:#816647;fill-rule:evenodd;stroke:none;stroke-width:1px;stroke-linecap:butt;stroke-linejoin:miter;stroke-opacity:1" />
      <path
         id="path2943"
         d="M 279.03211,846.47654 L 252.51476,1016.6296 L 356.37441,1024.3638 L 380.68199,842.05694 L 279.03211,846.47654 z"
         style="fill:#336699;fill-rule:evenodd;stroke:none;stroke-width:1px;stroke-linecap:butt;stroke-linejoin:miter;stroke-opacity:1" />
      <path
         id="path2947"
         d="M 406.09446,1006.6855 L 390.626,1080.7132 L 502.21988,1112.755 L 555.25459,1087.3425 C 555.25459,1087.3425 565.19859,1070.7692 562.98879,1060.8252 C 560.77909,1050.8811 544.2057,1017.7344 519.89812,1029.8882 C 495.59054,1042.042 500.0101,1039.8322 500.0101,1039.8322 L 519.89812,1027.6785 L 474.59763,1001.1611 L 406.09446,1006.6855 z"
         style="fill:#816647;fill-rule:evenodd;stroke:none;stroke-width:1px;stroke-linecap:butt;stroke-linejoin:miter;stroke-opacity:1" />
      <path
         id="path2945"
         d="M 392.83578,847.58144 L 390.626,1030.9931 L 496.69543,1012.21 L 491.17098,847.58144 L 392.83578,847.58144 z"
         style="fill:#336699;fill-rule:evenodd;stroke:none;stroke-width:1px;stroke-linecap:butt;stroke-linejoin:miter;stroke-opacity:1" />
      <path
         id="path2951"
         d="M 306.65436,755.87557 L 292.29079,881.83304 C 292.29079,881.83304 512.16389,890.67214 533.1568,868.57434 C 554.14969,846.47654 536.47147,866.36454 536.47147,866.36454 C 536.47147,866.36454 492.27587,776.86848 492.27587,766.92447 C 492.27587,756.98046 306.65436,755.87557 306.65436,755.87557 z"
         style="fill:#aaccee;fill-rule:evenodd;stroke:none;stroke-width:1px;stroke-linecap:butt;stroke-linejoin:miter;stroke-opacity:1" />
      <path
         id="path2953"
         d="M 254.72454,754.77068 C 254.72454,754.77068 223.78762,859.73524 217.15828,865.25964 C 210.52894,870.78414 218.26317,867.46944 218.26317,867.46944 C 218.26317,867.46944 304.44458,889.56724 309.96903,879.62324 C 315.49348,869.67924 308.86414,879.62324 308.86414,879.62324 L 315.49348,742.61689 L 254.72454,754.77068 z"
         style="fill:#336699;fill-rule:evenodd;stroke:none;stroke-width:1px;stroke-linecap:butt;stroke-linejoin:miter;stroke-opacity:1" />
      <path
         id="path2957"
         d="M 313.2837,764.71469 C 323.22771,766.92447 494.48565,784.60271 494.48565,784.60271 L 494.48565,748.14134 L 313.2837,764.71469 z"
         style="fill:#336699;fill-rule:evenodd;stroke:none;stroke-width:1px;stroke-linecap:butt;stroke-linejoin:miter;stroke-opacity:1" />
      <path
         id="path2955"
         d="M 232.62674,706.15552 C 232.62674,710.57508 238.15119,783.49782 238.15119,783.49782 L 501.11499,756.98046 C 501.11499,756.98046 484.54164,705.05063 491.17098,699.52618 C 497.80032,694.00173 494.48565,696.21151 494.48565,696.21151 C 494.48565,696.21151 241.46586,720.51909 232.62674,706.15552 z"
         style="fill:#b3defd;fill-rule:evenodd;stroke:none;stroke-width:1px;stroke-linecap:butt;stroke-linejoin:miter;stroke-opacity:1" />
      <path
         id="path2969"
         d="M 575.14259,726.04354 C 572.93279,731.56799 568.51329,766.92447 568.51329,766.92447 L 569.61819,790.12716 L 570.72309,804.49073 C 570.72309,804.49073 572.93279,810.01514 577.35239,808.91024 C 581.77199,807.80544 588.40129,803.38584 588.40129,803.38584 L 596.13549,791.23205 L 593.92579,831.00804 L 599.45019,840.95214 L 617.12839,849.79124 C 617.12839,849.79124 624.86269,855.31564 631.49199,853.10584 C 638.12139,850.89614 652.48489,842.05694 652.48489,842.05694 C 652.48489,842.05694 659.11429,836.53254 663.53379,826.58854 C 667.95339,816.64454 671.26809,791.23205 671.26809,791.23205 C 671.26809,791.23205 671.26809,792.33694 664.63869,781.28804 C 658.00939,770.23914 649.17029,763.6098 649.17029,763.6098 L 642.54089,749.24623 L 633.70179,739.30222 L 627.07249,727.14843 L 617.12839,712.78486 L 575.14259,726.04354 z"
         style="fill:#fdd99b;fill-opacity:1;fill-rule:evenodd;stroke:none;stroke-width:1px;stroke-linecap:butt;stroke-linejoin:miter;stroke-opacity:1" />
      <path
         id="path2965"
         d="M 519.89812,612.23987 C 527.63235,648.70124 570.72309,743.72178 570.72309,743.72178 L 627.07249,719.4142 L 572.93279,580.19807 L 519.89812,612.23987 z"
         style="fill:#b3defd;fill-rule:evenodd;stroke:none;stroke-width:1px;stroke-linecap:butt;stroke-linejoin:miter;stroke-opacity:1" />
      <path
         id="path2971"
         d="M 124.34752,709.47019 L 98.935046,756.98046 L 86.781256,776.86848 L 85.676366,798.96628 L 94.515486,818.85434 C 94.515486,818.85434 103.35461,827.69344 108.87906,828.79834 C 114.40351,829.90324 127.66219,832.11294 132.08175,831.00804 C 136.50131,829.90324 138.71109,831.00804 142.02576,825.48364 C 145.34043,819.95914 149.75999,807.80544 149.75999,807.80544 L 153.07466,811.12004 L 160.80889,813.32984 C 160.80889,813.32984 164.12356,813.32984 167.43823,807.80544 C 170.7529,802.28095 172.96268,803.38584 172.96268,796.7565 C 172.96268,790.12716 171.85779,794.54672 171.85779,779.07826 C 171.85779,763.6098 170.7529,756.98046 170.7529,756.98046 L 169.64801,738.19733 L 124.34752,709.47019 z"
         style="fill:#fdd99b;fill-opacity:1;fill-rule:evenodd;stroke:none;stroke-width:1px;stroke-linecap:butt;stroke-linejoin:miter;stroke-opacity:1" />
      <path
         id="path2967"
         d="M 119.92796,718.30931 C 119.92796,718.30931 171.85779,761.40002 172.96268,750.35112 C 174.06757,739.30222 209.42405,635.44256 209.42405,635.44256 L 153.07466,596.77142 L 119.92796,718.30931 z"
         style="fill:#b3defd;fill-rule:evenodd;stroke:none;stroke-width:1px;stroke-linecap:butt;stroke-linejoin:miter;stroke-opacity:1" />
      <path
         id="path2961"
         d="M 488.9612,474.12863 C 497.80032,480.75797 603.86979,574.67362 603.86979,574.67362 L 496.69543,674.11371 L 483.43675,712.78486 C 483.43675,712.78486 239.25608,737.09244 239.25608,722.72887 C 239.25608,708.3653 223.78762,625.49855 223.78762,625.49855 C 223.78762,625.49855 216.05339,668.58926 210.52894,657.54036 C 205.00449,646.49146 121.03285,600.08609 121.03285,600.08609 L 243.67564,464.18462 C 243.67564,464.18462 339.80106,533.79269 488.9612,474.12863 z"
         style="fill:#aaccee;fill-rule:evenodd;stroke:none;stroke-width:1px;stroke-linecap:butt;stroke-linejoin:miter;stroke-opacity:1" />
      <path
         id="path2963"
         d="M 238.15119,479.65308 C 238.15119,479.65308 317.70326,639.86212 337.59128,644.28168 C 357.4793,648.70124 345.32551,645.38657 345.32551,645.38657 L 387.31133,568.04428 C 387.31133,568.04428 321.01793,518.32423 325.43749,499.5411 C 329.85705,480.75797 328.75216,491.80687 328.75216,491.80687 L 238.15119,479.65308 z"
         style="fill:#b3defd;fill-rule:evenodd;stroke:none;stroke-width:1px;stroke-linecap:butt;stroke-linejoin:miter;stroke-opacity:1" />
      <path
         id="path2959"
         d="M 401.6749,500.64599 L 281.24189,724.93865 L 340.90595,723.83376 L 475.70252,489.59709 L 401.6749,500.64599 z"
         style="fill:#336699;fill-rule:evenodd;stroke:none;stroke-width:1px;stroke-linecap:butt;stroke-linejoin:miter;stroke-opacity:1" />
      <path
         id="path3232"
         d="M 549.73019,-54.008761 L 568.51329,-77.211451 C 568.51329,-77.211451 569.61819,-81.631011 579.56219,-84.945681 C 589.50619,-88.260351 592.82089,-87.155461 604.97469,-88.260351 C 617.12839,-89.365241 625.96759,-99.309241 644.75069,-89.365241 C 663.53379,-79.421231 671.26809,-71.687001 671.26809,-71.687001 C 671.26809,-71.687001 692.26099,-51.798981 697.78539,-36.330521 C 703.30989,-20.862061 715.46359,-3.1838214 715.46359,11.179749 C 715.46359,25.543319 714.35879,39.906889 715.46359,47.641109 C 716.56849,55.375339 716.56849,79.682919 716.56849,79.682919 C 716.56849,79.682919 692.26099,108.41006 665.74359,107.30517 C 639.22619,106.20028 624.86269,110.61984 619.33819,103.9905 C 613.81379,97.361159 597.24039,85.207369 597.24039,85.207369 C 597.24039,85.207369 590.61109,77.473139 590.61109,73.053579 C 590.61109,68.634019 593.92579,59.794899 593.92579,54.270449 C 593.92579,48.745999 592.82089,42.116669 592.82089,33.277549 C 592.82089,24.438429 591.71599,8.9699686 591.71599,8.9699686 L 591.71599,-5.3936014 L 549.73019,-54.008761 z"
         style="fill:#565248;fill-rule:evenodd;stroke:none;stroke-width:1px;stroke-linecap:butt;stroke-linejoin:miter;stroke-opacity:1" />
      <path
         id="path2416"
         d="M 369.62392,-33.001961 C 220.1986,-33.001961 98.936396,90.484439 98.936416,242.65429 C 98.936416,253.46707 99.588926,264.13379 100.78017,274.62304 C 91.650716,269.17123 82.029916,267.22785 73.623916,270.02929 C 54.848626,276.28646 49.215926,303.76355 61.061416,331.34179 C 72.906876,358.92003 97.754886,376.22396 116.53017,369.96679 C 120.38382,368.6825 123.66567,366.48027 126.37392,363.59179 C 170.39668,455.18443 262.79714,518.31053 369.62392,518.31054 C 469.67812,518.31054 557.11429,462.95984 603.96769,380.68554 C 605.22799,384.57259 607.12169,387.7338 609.68639,389.96679 C 621.47849,400.23358 642.80509,386.6322 657.28019,359.59179 C 671.75529,332.55135 673.91599,302.26483 662.12389,291.99804 C 655.29269,286.05044 645.26039,288.13726 635.21769,296.18554 C 638.56939,278.86524 640.34269,260.97074 640.34269,242.65429 C 640.34269,90.484439 519.04926,-33.001961 369.62392,-33.001961 z"
         style="opacity:1;fill:#fdd99b;fill-opacity:1;stroke:none;stroke-width:4;stroke-miterlimit:4;stroke-dasharray:none;stroke-opacity:1" />
      <path
         id="path2973"
         d="M 145.34043,224.4235 L 135.39642,257.5702 L 300.02502,268.6191 L 303.33969,250.94086 L 145.34043,224.4235 z"
         style="fill:#565248;fill-opacity:1;fill-rule:evenodd;stroke:none;stroke-width:0.99921298;stroke-linecap:butt;stroke-linejoin:miter;stroke-miterlimit:4;stroke-dasharray:none;stroke-opacity:1" />
      <path
         id="path2975"
         d="M 412.7238,257.5702 L 421.56292,276.35333 C 421.56292,276.35333 568.51329,258.67509 568.51329,254.25553 C 568.51329,249.83597 547.52039,220.00394 547.52039,220.00394 L 412.7238,257.5702 z"
         style="fill:#565248;fill-opacity:1;fill-rule:evenodd;stroke:none;stroke-width:0.99921298;stroke-linecap:butt;stroke-linejoin:miter;stroke-miterlimit:4;stroke-dasharray:none;stroke-opacity:1" />
      <path
         id="path2977"
         d="M 326.54238,398.99612 L 366.31842,412.25479 L 403.88468,395.68145 L 406.09446,395.68145"
         style="fill:#816647;fill-rule:evenodd;stroke:none;stroke-width:7.08660984;stroke-linecap:butt;stroke-linejoin:miter;stroke-miterlimit:4;stroke-dasharray:none;stroke-opacity:1" />
      <path
         id="path2979"
         d="M 429.29715,453.13572 C 429.29715,453.13572 363.00375,492.91176 328.75216,458.66017"
         style="fill:#565248;fill-opacity:1;fill-rule:evenodd;stroke:none;stroke-width:17.71649933;stroke-linecap:round;stroke-linejoin:miter;stroke-miterlimit:4;stroke-dasharray:none;stroke-opacity:1" />
      <path
         id="path2981"
         d="M 464.65363,-16.442501 C 464.65363,-16.442501 518.79323,54.270449 549.73019,38.801989 C 580.66709,23.333529 616.02359,-0.97404143 616.02359,-0.97404143 L 613.81379,-21.966951 L 608.28929,-30.806071 C 608.28929,-30.806071 604.97469,-45.169641 595.03059,-50.694091 C 585.08659,-56.218541 561.88389,-68.372331 561.88389,-68.372331 L 550.83499,-68.372331 L 464.65363,-16.442501 z"
         style="fill:#6699cc;fill-rule:evenodd;stroke:none;stroke-width:1px;stroke-linecap:butt;stroke-linejoin:miter;stroke-opacity:1" />
      <path
         transform="translate(976.218,-192.627)"
         d="M -694.97575,526.43457 A 34.804031,35.35648 0 1 1 -764.58382,526.43457 A 34.804031,35.35648 0 1 1 -694.97575,526.43457 z"
         sodipodi:ry="35.35648"
         sodipodi:rx="34.804031"
         sodipodi:cy="526.43457"
         sodipodi:cx="-729.77979"
         id="path2402"
         style="opacity:0.59701502;fill:#0080e8;fill-opacity:1;stroke:none;stroke-width:4;stroke-miterlimit:4;stroke-dasharray:none;stroke-opacity:1"
         sodipodi:type="arc" />
      <path
         transform="translate(965.169,-200.361)"
         d="M -464.05377,535.82611 A 34.251587,33.699142 0 1 1 -532.55695,535.82611 A 34.251587,33.699142 0 1 1 -464.05377,535.82611 z"
         sodipodi:ry="33.699142"
         sodipodi:rx="34.251587"
         sodipodi:cy="535.82611"
         sodipodi:cx="-498.30536"
         id="path2404"
         style="opacity:0.59701502;fill:#0080e8;fill-opacity:1;stroke:none;stroke-width:4;stroke-miterlimit:4;stroke-dasharray:none;stroke-opacity:1"
         sodipodi:type="arc" />
      <path
         id="path2410"
         d="M 150.86488,296.24135 C 150.86488,296.24135 170.7529,288.50712 175.17246,287.40223 C 179.59202,286.29734 202.79471,285.19245 202.79471,285.19245 L 224.89251,285.19245 C 224.89251,285.19245 239.25608,290.7169 250.30498,292.92668 C 261.35388,295.13646 270.193,299.55602 274.61256,302.87069 C 279.03212,306.18536 286.76635,312.8147 286.76635,312.8147 L 298.92014,327.17827 L 249.20009,311.70981 L 213.84361,299.55602 C 213.84361,299.55602 196.16537,297.34624 191.74581,297.34624 C 187.32625,297.34624 172.96268,297.34624 172.96268,297.34624 L 150.86488,296.24135 z"
         style="fill:#565248;fill-opacity:1;fill-rule:evenodd;stroke:none;stroke-width:1px;stroke-linecap:butt;stroke-linejoin:miter;stroke-opacity:1" />
      <path
         id="path2412"
         d="M 416.03847,330.49294 L 432.61182,312.8147 L 449.18517,301.7658 L 467.9683,295.13646 C 467.9683,295.13646 482.33187,291.82179 486.75143,291.82179 C 491.17099,291.82179 512.16389,289.61201 516.58345,289.61201 C 521.00301,289.61201 535.36658,289.61201 535.36658,289.61201 L 545.31059,294.03157 C 545.31059,294.03157 553.04479,297.34624 544.2057,297.34624 C 535.36658,297.34624 532.05191,296.24135 522.1079,297.34624 C 512.16389,298.45113 502.21988,301.7658 502.21988,301.7658 C 502.21988,301.7658 497.80032,300.66091 491.17099,303.97558 C 484.54165,307.29025 473.49275,309.50003 473.49275,309.50003 L 460.23407,313.91959 L 434.8216,327.17827 L 424.87759,331.59783 L 416.03847,330.49294 z"
         style="fill:#565248;fill-opacity:1;fill-rule:evenodd;stroke:none;stroke-width:1px;stroke-linecap:butt;stroke-linejoin:miter;stroke-opacity:1" />
      <path
         id="path2422"
         d="M 369.62392,-33.001961 C 220.1986,-33.001961 98.936396,90.484439 98.936416,242.65429 C 98.936416,283.84699 107.85375,322.91955 123.78017,358.02929 C 119.21287,322.65872 111.72366,250.81813 123.24892,231.06054 C 138.71738,204.54318 124.35526,158.14474 200.59267,124.99804 C 276.83009,91.851329 368.53017,153.71679 368.53017,153.71679 C 368.53015,153.71678 440.34354,103.98473 486.74892,108.40429 C 533.1543,112.82385 634.80459,207.83587 629.28019,248.71679 C 623.75569,289.59773 625.96769,311.71679 625.96769,311.71679 L 626.90519,328.52929 C 635.61029,301.49633 640.34269,272.63919 640.34269,242.65429 C 640.34269,90.484439 519.04926,-33.001961 369.62392,-33.001961 z"
         style="opacity:1;fill:#565248;fill-opacity:1;stroke:none;stroke-width:4;stroke-miterlimit:4;stroke-dasharray:none;stroke-opacity:1" />
      <path
         transform="translate(976.218,-192.627)"
         d="M -713.75893,531.95905 A 12.15379,13.258679 0 1 1 -738.06651,531.95905 A 12.15379,13.258679 0 1 1 -713.75893,531.95905 z"
         sodipodi:ry="13.258679"
         sodipodi:rx="12.15379"
         sodipodi:cy="531.95905"
         sodipodi:cx="-725.91272"
         id="path3198"
         style="opacity:1;fill:#eeeeee;fill-opacity:1;stroke:none;stroke-width:0.99921298;stroke-miterlimit:4;stroke-dasharray:none;stroke-opacity:1"
         sodipodi:type="arc" />
      <path
         transform="translate(1187.25,-195.942)"
         d="M -713.75893,531.95905 A 12.15379,13.258679 0 1 1 -738.06651,531.95905 A 12.15379,13.258679 0 1 1 -713.75893,531.95905 z"
         sodipodi:ry="13.258679"
         sodipodi:rx="12.15379"
         sodipodi:cy="531.95905"
         sodipodi:cx="-725.91272"
         id="path3200"
         style="opacity:1;fill:#eeeeee;fill-opacity:1;stroke:none;stroke-width:0.99921298;stroke-miterlimit:4;stroke-dasharray:none;stroke-opacity:1"
         sodipodi:type="arc" />
    </g>
  </g>
</svg>
