<?xml version="1.0" encoding="UTF-8" standalone="no"?>
<!-- Created with Inkscape (http://www.inkscape.org/) -->

<svg
   xmlns:dc="http://purl.org/dc/elements/1.1/"
   xmlns:cc="http://creativecommons.org/ns#"
   xmlns:rdf="http://www.w3.org/1999/02/22-rdf-syntax-ns#"
   xmlns:svg="http://www.w3.org/2000/svg"
   xmlns="http://www.w3.org/2000/svg"
   xmlns:sodipodi="http://sodipodi.sourceforge.net/DTD/sodipodi-0.dtd"
   xmlns:inkscape="http://www.inkscape.org/namespaces/inkscape"
   version="1.0"
   width="29971.182"
   height="28189.191"
   viewBox="-0.52 -0.464 37354.324 58140.207"
   id="svg2"
   xml:space="preserve"
   sodipodi:docname="character5.svg"
   inkscape:version="0.92.5 (2060ec1f9f, 2020-04-08)"><metadata
     id="metadata7"><rdf:RDF><cc:Work
         rdf:about=""><dc:format>image/svg+xml</dc:format><dc:type
           rdf:resource="http://purl.org/dc/dcmitype/StillImage" /><dc:title></dc:title></cc:Work></rdf:RDF></metadata><sodipodi:namedview
     pagecolor="#ffffff"
     bordercolor="#666666"
     borderopacity="1"
     objecttolerance="10"
     gridtolerance="10"
     guidetolerance="10"
     inkscape:pageopacity="0"
     inkscape:pageshadow="2"
     inkscape:window-width="1848"
     inkscape:window-height="1017"
     id="namedview5"
     showgrid="false"
     inkscape:zoom="0.01"
     inkscape:cx="20753.805"
     inkscape:cy="4706.9743"
     inkscape:window-x="72"
     inkscape:window-y="27"
     inkscape:window-maximized="1"
     inkscape:current-layer="svg2" /><defs
     id="defs4" /><path
     d="m 17295.289,-0.464 c -1221.31,0 -2404.551,1044.3019 -3381.603,2950.794 l -7048.893,13614.419 -17413.844,6225.47 c -1186.41,476.615 -1953.016,3444.272 -1592.444,6393.374 l 1779.793,14933.901 h 3475.273 c -347.2487,8459.382 1961.9696,14022.251 4908.4718,14022.251 2946.49606,0 5284.1863,-6293.27 4908.4719,-14022.251 H 31430.564 c -414.954,8434.507 2026.204,14022.251 4908.473,14022.251 2882.267,0 5283.87,-6299.503 4908.47,-14022.251 h 7105.112 c 662.997,0 1231.806,-1433.152 1231.802,-3190.719 V 24037.7 c 0,-1608.613 -463.041,-2946.192 -1067.873,-3154.698 L 36418.66,16564.749 31627.28,4281.787 C 30580.441,1541.203 29148.9,59.1178 27636.8,-0.464 Z m 5086.447,5181.879 h 5559.504 c 825.84,0 1581.5,1097.29 2046.759,2854.833 l 1372.313,5301.832 c 339.52,1484.119 -30.201,2928.62 -665.082,3190.705 h -8313.494 z m -5981.027,23.992 h 4407.32 V 16528.785 H 9506.3687 L 14564.718,6788.757 c 523.416,-1012.817 1184.627,-1583.35 1835.991,-1583.35 z"
     id="path12"
     inkscape:connector-curvature="0"
     style="stroke-width:118.66362" /></svg>